<svg xmlns="http://www.w3.org/2000/svg" width="63" height="63" viewBox="0 0 63 63">
  <g id="popup_02_icon_04_on" transform="translate(-1282 -1087)">
    <rect id="사각형_764" data-name="사각형 764" width="63" height="63" rx="20" transform="translate(1282 1087)" fill="#fff"/>
    <g id="그룹_1921" data-name="그룹 1921" transform="translate(1298.363 1102.545)">
      <g id="그룹_1918" data-name="그룹 1918" transform="translate(3.415 0)">
        <path id="패스_19657" data-name="패스 19657" d="M1319.71,574.667h-11.237a3.733,3.733,0,0,0-3.733,3.733v23.825a3.733,3.733,0,0,0,3.733,3.733h19.933a3.733,3.733,0,0,0,3.733-3.733V587.1A12.429,12.429,0,0,0,1319.71,574.667Zm-2.621,22.682h-11v-8.636h11Z" transform="translate(-1304.741 -574.667)" fill="#2b5bdf"/>
      </g>
      <g id="그룹_1919" data-name="그룹 1919" transform="translate(0 10.801)">
        <path id="패스_19658" data-name="패스 19658" d="M1316.847,587.868H1304.3a3.732,3.732,0,0,0-3.733,3.733v7.862a3.733,3.733,0,0,0,3.733,3.733h12.548a3.733,3.733,0,0,0,3.732-3.733V591.6A3.732,3.732,0,0,0,1316.847,587.868Zm-1.635,6.459-4.642,4.111a1.073,1.073,0,0,1-1.459-.034l-2.3-2.231a1.072,1.072,0,0,1,1.495-1.537l1.582,1.538,3.9-3.452a1.072,1.072,0,0,1,1.422,1.605Z" transform="translate(-1300.567 -587.868)" fill="#8ebbfe"/>
      </g>
    </g>
  </g>
</svg>
