<svg xmlns="http://www.w3.org/2000/svg" width="63" height="63" viewBox="0 0 63 63">
  <g id="popup_02_icon_01_off" transform="translate(-403 -1091)">
    <rect id="사각형_761" data-name="사각형 761" width="63" height="63" rx="20" transform="translate(403 1091)" fill="#eceef5"/>
    <g id="그룹_1927" data-name="그룹 1927" transform="translate(421.818 1106.546)">
      <g id="그룹_1901" data-name="그룹 1901" transform="translate(0.685 25.204)">
        <g id="그룹_1900" data-name="그룹 1900">
          <path id="패스_19643" data-name="패스 19643" d="M449.711,600.58H427.791a2.378,2.378,0,1,0,0,4.755h2.176v-2.247h7.858v2.247h11.887Z" transform="translate(-425.413 -600.58)" fill="#cfd5e8"/>
        </g>
        <path id="패스_19644" data-name="패스 19644" d="M437.123,609.024l-1.964-.85-1.964.85v-3.788h3.929Z" transform="translate(-426.828 -601.427)" fill="#c2c6d6"/>
      </g>
      <g id="그룹_1903" data-name="그룹 1903" transform="translate(0 0)">
        <g id="그룹_1902" data-name="그룹 1902">
          <path id="패스_19645" data-name="패스 19645" d="M427.594,569.775a3.018,3.018,0,0,0-3.018,3.018v22.376a4.458,4.458,0,0,1,3.69-1.626h21.561V569.775Zm14.583,12.968h0a1.293,1.293,0,0,1,.514,1.8l-.235.407a1.335,1.335,0,0,1-1.822.488,1.279,1.279,0,0,0-1.706.414,1.2,1.2,0,0,0-.18.667,1.379,1.379,0,0,1-1.379,1.371h-.347a1.379,1.379,0,0,1-1.379-1.371,1.194,1.194,0,0,0-.18-.667,1.28,1.28,0,0,0-1.706-.415,1.335,1.335,0,0,1-1.822-.488l-.235-.407a1.293,1.293,0,0,1,.514-1.8,1.177,1.177,0,0,0,.623-1.038v-.091a1.183,1.183,0,0,0-.622-1.042h0a1.3,1.3,0,0,1-.511-1.8l.2-.349a1.4,1.4,0,0,1,1.9-.513,1.106,1.106,0,0,0,1.111.028l.141-.081a1.154,1.154,0,0,0,.579-1v-.048a1.38,1.38,0,0,1,1.38-1.38h.353a1.38,1.38,0,0,1,1.38,1.38v.048a1.154,1.154,0,0,0,.579,1l.141.081a1.1,1.1,0,0,0,1.092-.017,1.412,1.412,0,0,1,1.922.5l.22.38a1.263,1.263,0,0,1-.491,1.746,1.256,1.256,0,0,0-.661,1.1v.056A1.173,1.173,0,0,0,442.178,582.743Z" transform="translate(-424.576 -569.775)" fill="#c2c6d6"/>
        </g>
        <circle id="타원_491" data-name="타원 491" cx="2.209" cy="2.209" r="2.209" transform="translate(10.411 9.674)" fill="#c2c6d6"/>
      </g>
    </g>
  </g>
</svg>
