<svg xmlns="http://www.w3.org/2000/svg" width="63" height="63" viewBox="0 0 63 63">
  <g id="popup_02_icon_03_off" transform="translate(-988 -1091)">
    <rect id="사각형_763" data-name="사각형 763" width="63" height="63" rx="20" transform="translate(988 1091)" fill="#eceef5"/>
    <g id="그룹_1917" data-name="그룹 1917" transform="translate(1002.726 1109.818)">
      <g id="그룹_1915" data-name="그룹 1915">
        <g id="그룹_1914" data-name="그룹 1914">
          <path id="패스_19655" data-name="패스 19655" d="M1032.324,576.825h-23.1a3.337,3.337,0,0,0-3.336,3.336v14.546a3.337,3.337,0,0,0,3.336,3.337h23.1a3.337,3.337,0,0,0,3.337-3.337V580.161A3.337,3.337,0,0,0,1032.324,576.825ZM1025.07,588l-7.443,4.727a.671.671,0,0,1-1.031-.566v-9.457a.671.671,0,0,1,1.031-.566l7.443,4.727A.672.672,0,0,1,1025.07,588Z" transform="translate(-1005.889 -576.825)" fill="#c2c6d6"/>
        </g>
      </g>
      <path id="패스_19656" data-name="패스 19656" d="M1037.451,580.994a3.33,3.33,0,0,1,.227,1.185v14.546a3.336,3.336,0,0,1-3.336,3.336h-23.1a3.3,3.3,0,0,1-1.184-.227,3.33,3.33,0,0,0,3.11,2.153h23.1a3.337,3.337,0,0,0,3.337-3.337V584.1A3.33,3.33,0,0,0,1037.451,580.994Z" transform="translate(-1006.647 -577.583)" fill="#cfd5e8"/>
    </g>
  </g>
</svg>
