<?xml version="1.0" standalone="no"?>
<!DOCTYPE svg PUBLIC "-//W3C//DTD SVG 20010904//EN"
 "http://www.w3.org/TR/2001/REC-SVG-20010904/DTD/svg10.dtd">
<svg version="1.0" xmlns="http://www.w3.org/2000/svg"
 width="780.000000pt" height="780.000000pt" viewBox="0 0 780.000000 780.000000"
 preserveAspectRatio="xMidYMid meet">
<metadata>
Created by potrace 1.11, written by Peter Selinger 2001-2013
</metadata>
<g transform="translate(0.000000,780.000000) scale(0.100000,-0.100000)"
fill="#000000" stroke="none">
<path d="M1360 6823 c-197 -33 -374 -183 -446 -379 -35 -94 -41 -233 -15 -330
30 -110 63 -173 132 -248 242 -265 666 -246 884 40 77 100 106 185 111 324 8
230 -89 407 -291 526 -101 60 -254 87 -375 67z"/>
<path d="M4527 6364 c-1 -1 -83 -5 -182 -9 -99 -3 -191 -8 -205 -9 -14 -2 -61
-7 -105 -11 -97 -8 -149 -14 -195 -20 -31 -4 -55 -7 -140 -20 -14 -3 -43 -7
-65 -9 -22 -3 -51 -8 -65 -11 -14 -2 -83 -16 -155 -31 -513 -102 -970 -267
-1420 -512 -362 -197 -823 -565 -945 -753 -60 -94 -85 -184 -85 -314 0 -119
18 -197 62 -267 13 -21 23 -43 23 -49 0 -24 166 -174 223 -202 217 -105 456
-82 637 61 60 48 78 67 125 136 186 271 587 681 910 930 55 43 107 83 115 89
95 75 319 226 465 314 89 53 137 80 339 187 48 25 189 91 291 135 28 12 59 26
70 31 201 89 666 235 892 281 66 14 71 17 32 24 -87 14 -611 38 -622 29z"/>
<path d="M7149 5996 c-2 -2 -92 -6 -199 -10 -107 -3 -224 -8 -260 -11 -203
-13 -345 -25 -380 -30 -23 -4 -70 -10 -165 -20 -22 -3 -56 -7 -75 -10 -36 -6
-61 -9 -145 -20 -27 -3 -60 -8 -73 -11 -13 -2 -73 -13 -135 -24 -224 -40 -286
-53 -507 -106 -901 -219 -1741 -600 -2463 -1116 -453 -324 -797 -629 -1186
-1052 -492 -535 -1020 -1333 -1311 -1981 -12 -27 -34 -75 -47 -105 -66 -144
-203 -498 -203 -524 0 -5 46 56 103 136 109 153 123 171 256 338 112 140 165
204 172 210 3 3 25 28 49 55 114 134 202 227 400 425 247 247 272 270 477 447
283 243 459 371 673 491 25 14 59 33 75 43 47 28 307 155 335 164 14 4 30 11
35 15 6 4 28 13 50 20 22 7 45 16 50 20 6 4 84 33 175 64 180 63 423 127 608
162 12 2 34 6 50 9 35 8 135 23 192 30 25 3 65 8 90 11 25 3 55 7 68 9 21 4
121 11 272 21 65 4 464 4 535 0 104 -6 261 -18 279 -22 10 -2 51 -6 90 -10 39
-3 73 -8 76 -9 3 -2 33 -6 65 -10 33 -3 67 -8 75 -10 8 -2 38 -7 65 -11 28 -3
53 -8 56 -10 4 -2 22 -6 40 -9 29 -5 57 -11 174 -40 62 -16 159 -16 228 -1
115 26 190 67 272 149 116 116 165 240 161 402 -6 204 -120 381 -308 476 -31
16 -65 29 -74 29 -29 0 -10 9 32 15 21 4 50 8 64 11 37 6 336 43 405 49 33 3
76 8 95 10 130 15 300 25 530 30 240 6 288 11 371 40 151 53 297 183 366 325
53 108 72 196 68 308 -5 135 -42 252 -113 354 -52 74 -162 178 -190 178 -6 0
-12 3 -14 8 -12 26 -160 79 -251 88 -34 4 -65 8 -68 10 -3 2 -8 2 -10 0z"/>
</g>
</svg>
