<svg xmlns="http://www.w3.org/2000/svg" width="209.042" height="177.211" viewBox="0 0 209.042 177.211">
  <g id="그룹_31" data-name="그룹 31" transform="translate(-34.144 -43.53)">
    <path id="패스_57" data-name="패스 57" d="M42.258,128.695c1.321-.042,3.346.125,5.782.125,1.116,0,2.188-.041,2.686-.083a8.005,8.005,0,0,0,1.528,2.272c3.511,4.5,10.327,13.051,12.844,15.984.042,0,.082-.041.125-.041,0-5.287.082-11.4-.165-14.168-.124-1.364-.5-1.983-1.776-2.313a17.727,17.727,0,0,0-2.6-.454,2.388,2.388,0,0,1,.041-1.323c1.031,0,2.933.125,5.535.125,2.024,0,3.966-.125,4.709-.125a2.367,2.367,0,0,1,0,1.323,14.91,14.91,0,0,0-1.693.37c-1.156.372-1.529.91-1.7,2.438-.247,3.511-.287,9.5-.33,15.613,0,1.858.043,4.254.083,5.7a27.811,27.811,0,0,0-3.716.042c-2.355-3.306-12.31-16.151-14.954-19.537a.113.113,0,0,0-.206,0c-.084,4.461-.042,13.093.083,14.993.082,1.735.66,2.354,1.817,2.6a19.423,19.423,0,0,0,2.436.414,1.955,1.955,0,0,1-.081,1.362c-1.324,0-3.182-.123-5.2-.123-2.272,0-4.091.123-5.247.123a2.2,2.2,0,0,1,0-1.362,11.38,11.38,0,0,0,2.314-.457c.909-.287,1.321-.949,1.444-2.353.247-2.188.373-9.706.413-16.645a2.672,2.672,0,0,0-1.364-2.439,8.155,8.155,0,0,0-2.85-.7,2.558,2.558,0,0,1,.042-1.365" transform="translate(-0.208 -2.218)"/>
    <path id="패스_58" data-name="패스 58" d="M84.516,134.232c-.785,2.228-2.067,6.07-2.727,8.054-.042.165,0,.246.083.288.453.044,1.4.044,2.686.044,1.238,0,2.353,0,2.766-.044.042,0,.125-.164.125-.246-.538-1.736-1.984-6.029-2.769-8.1-.041,0-.122-.042-.164,0m-7.641,14.951c2.23-5.247,5.74-14.827,6.731-17.719a14.013,14.013,0,0,0,.785-2.726c.5.042,1.157.083,1.858.083a18.026,18.026,0,0,0,1.859-.083c.168.66.455,1.612.7,2.314,1.237,3.467,4.914,14.084,6.362,17.677,1.279,3.221,1.525,3.511,4.583,3.923a2.557,2.557,0,0,1-.125,1.363c-1.074,0-2.974-.122-5.7-.122-2.974,0-4.708.082-6.032.122a2.577,2.577,0,0,1,0-1.363,9.2,9.2,0,0,0,2.109-.5.751.751,0,0,0,.41-.908c-.372-1.487-1.484-4.543-2.106-6.113-.038-.084-.246-.29-.372-.29-.659-.042-2.064,0-3.426,0-1.942,0-2.769,0-3.3.042-.167,0-.372.206-.456.37a34.722,34.722,0,0,0-1.775,5.619c0,.62.081,1.157,1.2,1.4a12.5,12.5,0,0,0,2.025.372,2.6,2.6,0,0,1-.122,1.363c-1.076,0-2.853-.122-5.248-.122-1.776,0-3.346.122-4.586.122a2.528,2.528,0,0,1,0-1.363c2.935-.412,3.472-.742,4.629-3.469" transform="translate(-0.99 -2.22)"/>
    <path id="패스_59" data-name="패스 59" d="M134.527,142.244c-.042.165,0,.289.125.329.453.042,1.4.042,2.683.042,1.241,0,2.356,0,2.727-.042.081,0,.164-.165.122-.246-.535-1.734-1.98-5.99-2.724-8.1-.041,0-.167-.042-.2,0-.789,2.23-2.068,6.03-2.728,8.013m-23.833-11.689a.972.972,0,0,0-.288.62c-.087,1.071-.087,4.954-.087,9.665,0,.166.087.288.25.288a12.7,12.7,0,0,0,4.75-.413c1.157-.578,2.147-1.735,2.147-4.46,0-3.553-1.942-5.907-5.535-5.907a3.355,3.355,0,0,0-1.237.206m-8.715-1.859c.991,0,3.962.125,5.452.125,3.1,0,5.327-.083,7.516-.083,5.08,0,7.683,2.768,7.683,6.361,0,3.222-2.148,5.2-4.789,6.318-.084.042-.084.25-.044.33a68.852,68.852,0,0,0,6.65,9.09,4.129,4.129,0,0,0,2.894,1.4c.824,0,1.237-.414,1.776-1.652,2.189-5.247,6.279-16.234,7.269-19.124a23.222,23.222,0,0,0,.783-2.727c.458.042,1.118.083,1.861.083.866,0,1.4-.041,1.856-.083.167.66.417,1.611.66,2.354,1.241,3.429,4.958,14.042,6.365,17.637,1.321,3.221,1.567,3.511,4.584,3.925a2.224,2.224,0,0,1-.126,1.362c-1.032,0-2.93-.123-5.7-.123-2.974,0-4.667.082-6.032.123a2.991,2.991,0,0,1,0-1.362,9.317,9.317,0,0,0,2.106-.5.715.715,0,0,0,.414-.91c-.372-1.487-1.446-4.543-2.065-6.114-.084-.082-.249-.288-.413-.288-.619-.042-2.023,0-3.388,0-1.981,0-2.808,0-3.344.04a.548.548,0,0,0-.416.374,35.8,35.8,0,0,0-1.814,5.617c0,.62.081,1.157,1.2,1.445.618.124,1.115.208,2.023.332a3.1,3.1,0,0,1-.081,1.362c-1.073,0-1.817-.123-5.247-.123-1.321,0-4.708.123-6.112.123a5.59,5.59,0,0,1-4.958-2.354c-1.651-2.024-3.84-5.741-5.247-7.931a1.416,1.416,0,0,0-1.154-.743h-1.654c-.042,0-.167.165-.167.248,0,2.478.045,5.452.087,7.062.08,1.282.33,1.736,1.237,1.984a16.746,16.746,0,0,0,2.23.372c.208.123.123,1.28-.083,1.362-1.154,0-3.179-.123-5.946-.123-3.182,0-5,.123-5.865.123-.167-.165-.249-1.2,0-1.322.783-.124,1.442-.206,1.94-.33.91-.206,1.2-.743,1.281-2.106.081-1.2.126-6.774.126-9.253,0-4.049,0-7.1-.087-8.759-.039-1.115-.371-1.65-1.237-1.858a18.352,18.352,0,0,0-2.106-.37c-.208-.248-.126-1.239.083-1.323" transform="translate(-1.762 -2.219)"/>
    <path id="패스_60" data-name="패스 60" d="M174.647,130.661a10.339,10.339,0,0,0-4.917-1.032c-4.917,0-8.1,3.757-8.1,11.069,0,5.949,2.892,11.855,9.789,11.855a6.186,6.186,0,0,0,4.171-1.362,16.318,16.318,0,0,0,3.139-4.092,2.157,2.157,0,0,1,1.156.787c-.493,1.734-2.189,5-3.3,5.74a19.589,19.589,0,0,1-6.238.991c-9.211,0-14.579-4.708-14.579-13.506a12.261,12.261,0,0,1,6.693-11.278,17.655,17.655,0,0,1,8.383-1.775c3.3,0,6.447.619,8.3.7a54.977,54.977,0,0,0-.659,6.732c-.164.208-1.4.334-1.446.126-.413-2.724-.781-4.048-2.393-4.956" transform="translate(-3.168 -2.202)"/>
    <path id="패스_61" data-name="패스 61" d="M183.886,128.695c.99,0,2.853.125,5.824.125,3.057,0,4.666-.125,5.784-.125a2.085,2.085,0,0,1-.041,1.323,13.832,13.832,0,0,0-1.943.37c-.827.29-1.03.743-1.072,2.026-.042,1.817-.042,4.212-.042,7.062a.505.505,0,0,0,.207.33,51.08,51.08,0,0,0,5.9.085c3.221,0,4.67,0,5.163-.042.084-.043.251-.167.251-.291,0-2.064,0-5.7-.084-7.724a1.364,1.364,0,0,0-.87-1.362,8.663,8.663,0,0,0-2.271-.454,1.5,1.5,0,0,1,0-1.323c1.486,0,3.057.125,5.907.125,2.972,0,4.628-.125,5.617-.125a1.632,1.632,0,0,1,0,1.323,9.561,9.561,0,0,0-2.022.412c-.785.29-1.034.7-1.072,2.024-.084,2.312-.084,4.3-.084,9.334,0,3.015,0,6.694.084,8.386.08,1.116.246,1.736.989,1.984a12.107,12.107,0,0,0,2.6.5,1.934,1.934,0,0,1-.168,1.362c-1.114,0-3.262-.123-5.948-.123-2.519,0-4.955.123-5.907.123a1.724,1.724,0,0,1-.04-1.362,10.473,10.473,0,0,0,2.1-.372c.746-.208,1.077-.7,1.119-1.984.042-1.692.042-5.12.042-7.807a.273.273,0,0,0-.251-.287c-.786-.041-3.346-.041-5.289-.041-4.253.041-5.615.041-5.862.123a.714.714,0,0,0-.124.248c0,2.478,0,5.906.042,7.434.042,1.281.206,1.942,1.2,2.229a15.61,15.61,0,0,0,2.353.457,1.9,1.9,0,0,1-.164,1.362c-.785,0-2.727-.123-6.157-.123-2.93,0-5,.123-5.864.123a2.215,2.215,0,0,1,0-1.362c.951-.124,1.405-.208,1.984-.332,1.114-.288,1.362-.95,1.443-2.766.042-.868.084-4.586.084-8.221,0-4.006-.042-7.889-.084-8.962-.082-1.281-.287-1.734-1.114-1.942a13.252,13.252,0,0,0-2.271-.412,2.09,2.09,0,0,1,.04-1.323" transform="translate(-3.896 -2.219)"/>
    <path id="패스_62" data-name="패스 62" d="M227.333,134.232c-.784,2.228-2.066,6.07-2.726,8.054-.042.165,0,.246.082.288.457.044,1.4.044,2.686.044,1.238,0,2.357,0,2.766-.044.042,0,.126-.164.126-.246-.535-1.736-1.984-6.029-2.766-8.1-.044,0-.126-.042-.167,0m-7.64,14.951c2.229-5.247,5.739-14.827,6.73-17.719a13.56,13.56,0,0,0,.786-2.726c.5.042,1.157.083,1.858.083a17.927,17.927,0,0,0,1.858-.083c.168.66.455,1.612.7,2.314,1.241,3.467,4.916,14.084,6.361,17.677,1.281,3.221,1.53,3.511,4.586,3.923a2.6,2.6,0,0,1-.124,1.363c-1.074,0-2.974-.122-5.7-.122-2.973,0-4.706.082-6.028.122a2.548,2.548,0,0,1,0-1.363,9.2,9.2,0,0,0,2.106-.5.758.758,0,0,0,.412-.908c-.37-1.487-1.485-4.543-2.1-6.113-.042-.084-.251-.29-.373-.29-.661-.042-2.066,0-3.429,0-1.942,0-2.768,0-3.3.042-.165,0-.37.206-.454.37a34.649,34.649,0,0,0-1.776,5.619c0,.62.082,1.157,1.2,1.4a12.38,12.38,0,0,0,2.022.372,2.575,2.575,0,0,1-.122,1.363c-1.075,0-2.854-.122-5.247-.122-1.776,0-3.346.122-4.584.122a2.547,2.547,0,0,1,0-1.363c2.934-.412,3.468-.742,4.626-3.469" transform="translate(-4.711 -2.22)"/>
    <rect id="사각형_63" data-name="사각형 63" width="209.042" height="2.73" transform="translate(34.144 113.454)"/>
    <rect id="사각형_64" data-name="사각형 64" width="209.042" height="2.733" transform="translate(34.144 162.78)"/>
    <path id="패스_63" data-name="패스 63" d="M153.766,48.986s-26.085-3.692-43.22,13.2a6.253,6.253,0,1,0,9.155,8.489l.006.006s.018-.03.048-.074a6.466,6.466,0,0,0,.431-.613,56.749,56.749,0,0,1,33.58-21.005" transform="translate(-1.94 -0.133)" fill="#b2000d"/>
    <path id="패스_64" data-name="패스 64" d="M178.163,53.888a6.9,6.9,0,0,0-4.159-1.2v0c-60.317.964-75.863,53.54-75.863,53.54a88.69,88.69,0,0,1,19.044-20.152c16.584-11.921,36.144-8.035,39.981-7.112a5.728,5.728,0,0,0,.573.144c.062.017.1.028.1.028v-.006a5.821,5.821,0,0,0,2.518-11.357A78.685,78.685,0,0,1,174.6,66.6v-.028a6.951,6.951,0,0,0,3.564-12.682" transform="translate(-1.667 -0.238)" fill="#05133b"/>
    <path id="패스_65" data-name="패스 65" d="M120.035,49.67a6.137,6.137,0,1,1-6.136-6.14,6.137,6.137,0,0,1,6.136,6.14" transform="translate(-1.918)" fill="#b2000d"/>
    <g id="그룹_30" data-name="그룹 30" transform="translate(84.892 179.164)">
      <path id="패스_66" data-name="패스 66" d="M99.317,183.557H86.449l-.2,3.974h.809l.012-.175a3.2,3.2,0,0,1,.464-1.557,1.892,1.892,0,0,1,.914-.751,4.991,4.991,0,0,1,1.46-.147h1.654v11.512a3.131,3.131,0,0,1-.217,1.54,1.365,1.365,0,0,1-1.222.506H89.39v.8h6.876v-.8h-.723a1.5,1.5,0,0,1-1.178-.414c-.1-.109-.259-.466-.259-1.632V184.9h1.969a3.085,3.085,0,0,1,1.44.285,2.076,2.076,0,0,1,.856.888,4.242,4.242,0,0,1,.316,1.292l.023.165h.795Z" transform="translate(-86.249 -182.812)"/>
      <path id="패스_67" data-name="패스 67" d="M105.018,198.07a1.912,1.912,0,0,0,.366,1.065,1.3,1.3,0,0,0,1.028.449c.828,0,1.693-.6,2.606-1.886v-1.093l-.327.326a6.4,6.4,0,0,1-.875.8.352.352,0,0,1-.393-.013.575.575,0,0,1-.125-.336,14.029,14.029,0,0,1-.057-1.781v-3.512a6.273,6.273,0,0,0-.216-2.062,2.3,2.3,0,0,0-1.067-1.192,5.062,5.062,0,0,0-2.347-.482,4.522,4.522,0,0,0-2.915.852,2.508,2.508,0,0,0-1.059,1.931,1.308,1.308,0,0,0,.313.931,1.162,1.162,0,0,0,1.657.017,1.312,1.312,0,0,0,.318-.938l-.024-.651a.976.976,0,0,1,.372-.743,1.4,1.4,0,0,1,1-.332,1.592,1.592,0,0,1,1.285.506,3.278,3.278,0,0,1,.446,2.005v.274a24.155,24.155,0,0,0-3.718,1.62,4.668,4.668,0,0,0-1.674,1.508,2.631,2.631,0,0,0-.369,1.411,2.885,2.885,0,0,0,.746,2.061,2.529,2.529,0,0,0,1.9.794,3.28,3.28,0,0,0,1.383-.3A13.6,13.6,0,0,0,105.018,198.07Zm-1.939-3.92a19.162,19.162,0,0,1,1.922-.844v3.57c-1.478,1.174-2.346,1.324-3.046.556a1.736,1.736,0,0,1-.437-1.222,1.849,1.849,0,0,1,.348-1.077A3.649,3.649,0,0,1,103.079,194.15Z" transform="translate(-86.587 -182.937)"/>
      <path id="패스_68" data-name="패스 68" d="M114.526,199.7a3.887,3.887,0,0,0,3-1.334,5.642,5.642,0,0,0,1.425-2.916l.018-.122-.649-.422-.087.221a3.958,3.958,0,0,1-1.2,1.826,2.648,2.648,0,0,1-1.651.525,3.247,3.247,0,0,1-2.511-1.248,5.035,5.035,0,0,1-1.07-3.3h7.151v-.192a4.419,4.419,0,0,0-1.176-3.2,4.024,4.024,0,0,0-2.995-1.2,4.644,4.644,0,0,0-3.557,1.549,6.11,6.11,0,0,0-1.41,4.268,5.764,5.764,0,0,0,1.377,4.031A4.373,4.373,0,0,0,114.526,199.7Zm-2.7-7.8a2.889,2.889,0,0,1,.786-1.7,2.008,2.008,0,0,1,2.608-.343,2.1,2.1,0,0,1,.773.915,3.693,3.693,0,0,1,.206,1.132Z" transform="translate(-86.863 -182.936)"/>
      <path id="패스_69" data-name="패스 69" d="M120.129,184.821a1.978,1.978,0,0,1,.64-.181.536.536,0,0,1,.351.106.8.8,0,0,1,.2.45,17.671,17.671,0,0,1,.071,2.159v9.422a3.4,3.4,0,0,1-.145,1.2.653.653,0,0,1-.278.3,2.639,2.639,0,0,1-1.1.173h-.191v.785h5.645v-.782l-.187,0a2.788,2.788,0,0,1-1.044-.126.721.721,0,0,1-.316-.362,3.566,3.566,0,0,1-.125-1.243v-2.884l2.831,3.621c.375.477.417.662.417.721a.21.21,0,0,1-.084.183.875.875,0,0,1-.467.09l-.188,0v.781h5.41v-.785h-.19a2.633,2.633,0,0,1-.914-.1,2.864,2.864,0,0,1-.886-.647c-.235-.23-.7-.784-1.477-1.744l-2.547-3.217,2.525-2.331a4.833,4.833,0,0,1,1.3-.892,4.039,4.039,0,0,1,1.469-.269l.188,0v-.736h-4.879v.731l.181.01a.844.844,0,0,1,.5.142.3.3,0,0,1,.122.243.314.314,0,0,1-.062.169,7.549,7.549,0,0,1-.937.934l-2.314,2.1V182.792l-.782.016L119.6,184.15l.363.735Z" transform="translate(-87.118 -182.792)"/>
      <path id="패스_70" data-name="패스 70" d="M146.774,190.674a1.668,1.668,0,0,1,1.3-1.214l.164-.024v-.775h-3.645v.795l.185,0a1.388,1.388,0,0,1,.753.153c.146.111.146.2.146.232a2.833,2.833,0,0,1-.214.9l-2.005,5.27-2.168-5.48a1.184,1.184,0,0,1-.077-.4.522.522,0,0,1,.149-.428,1.95,1.95,0,0,1,1.047-.253l.181-.006v-.794h-5.3v.792l.181.008a1.861,1.861,0,0,1,.836.164,1.688,1.688,0,0,1,.634.845l.592,1.377-2.035,4.426-2.058-5.527a2.17,2.17,0,0,1-.179-.775.459.459,0,0,1,.12-.346,1.241,1.241,0,0,1,.671-.164l.179-.013v-.787h-4.718v.765l.152.032a1.949,1.949,0,0,1,.908.389,2.942,2.942,0,0,1,.591,1.036l3.37,8.824h.67l2.882-6.312,2.468,6.312h.723Z" transform="translate(-87.428 -182.945)"/>
      <path id="패스_71" data-name="패스 71" d="M154.505,188.35a4.885,4.885,0,0,0-4.466,2.854,6.432,6.432,0,0,0-.73,2.913,6,6,0,0,0,1.2,3.64,4.584,4.584,0,0,0,3.87,1.942,4.928,4.928,0,0,0,4.609-2.981,6.763,6.763,0,0,0,.685-2.893,5.7,5.7,0,0,0-1.246-3.618A4.793,4.793,0,0,0,154.505,188.35Zm.361,10.164a2.478,2.478,0,0,1-2.2-1.539,7.823,7.823,0,0,1-.876-3.805,5.859,5.859,0,0,1,.358-2.221,2.294,2.294,0,0,1,.9-1.157,2.171,2.171,0,0,1,1.107-.329,2.25,2.25,0,0,1,1.894,1.007,6.931,6.931,0,0,1,1.147,4.223,5.015,5.015,0,0,1-.671,2.992A2.014,2.014,0,0,1,154.866,198.514Z" transform="translate(-87.892 -182.937)"/>
      <path id="패스_72" data-name="패스 72" d="M160.954,190.388c.493-.19.848-.216,1.034-.052a.771.771,0,0,1,.2.445,16.668,16.668,0,0,1,.08,2.228v3.843a2.691,2.691,0,0,1-.24,1.421,1.058,1.058,0,0,1-.913.319h-.417v.789h5.5v-.789H166a2.425,2.425,0,0,1-1.032-.127.839.839,0,0,1-.355-.4,3.352,3.352,0,0,1-.105-1.21l-.052-5.331a3.573,3.573,0,0,1,2.534-1.405,1.126,1.126,0,0,1,1.074.544,4.134,4.134,0,0,1,.345,1.956v4.237a5.752,5.752,0,0,1-.042,1.012.973.973,0,0,1-.333.548,1.508,1.508,0,0,1-.894.179h-.405v.789h5.5v-.789h-.191a2.068,2.068,0,0,1-.924-.13.738.738,0,0,1-.321-.356,3.416,3.416,0,0,1-.144-1.253v-4.419a6.751,6.751,0,0,0-.259-2.146,3.045,3.045,0,0,0-1.042-1.483,2.682,2.682,0,0,0-1.568-.456,4.682,4.682,0,0,0-3.273,1.87v-1.87l-.747.013-3.3,1.337.316.755Z" transform="translate(-88.182 -182.937)"/>
      <path id="패스_73" data-name="패스 73" d="M183.907,197.509c-.533.206-.842.25-1.056.076a.887.887,0,0,1-.211-.459,16.855,16.855,0,0,1-.078-2.182V182.793l-.772.016-3.251,1.334.277.747.178-.066c.539-.206.84-.227,1.045-.068a.8.8,0,0,1,.2.444,14.76,14.76,0,0,1,.082,2.145v1.494a3.374,3.374,0,0,0-2.072-.644,4.528,4.528,0,0,0-3.754,1.921,6.8,6.8,0,0,0-1.439,4.187,5.449,5.449,0,0,0,1.316,3.767,4.04,4.04,0,0,0,3.1,1.484,3.76,3.76,0,0,0,1.638-.363,4.9,4.9,0,0,0,1.212-.853v1.216h.749l3.265-1.357-.234-.759Zm-3.536-.548c-1.335,1.425-2.769,1.226-3.92-.175a5.264,5.264,0,0,1-.95-3.378,4.923,4.923,0,0,1,.982-3.309,2.113,2.113,0,0,1,1.63-.827,2,2,0,0,1,.993.3,2.145,2.145,0,0,1,.827.879,3.43,3.43,0,0,1,.385,1.312Z" transform="translate(-88.51 -182.792)"/>
      <path id="패스_74" data-name="패스 74" d="M194.059,190.206a4.791,4.791,0,0,0-3.925-1.856,4.891,4.891,0,0,0-4.466,2.855,6.464,6.464,0,0,0-.727,2.912,6.006,6.006,0,0,0,1.2,3.64,4.6,4.6,0,0,0,3.87,1.942,4.927,4.927,0,0,0,4.616-2.982,6.833,6.833,0,0,0,.685-2.892A5.693,5.693,0,0,0,194.059,190.206Zm-3.562,8.308a2.483,2.483,0,0,1-2.2-1.538,7.837,7.837,0,0,1-.872-3.806,5.786,5.786,0,0,1,.357-2.221,2.322,2.322,0,0,1,.9-1.157,2.145,2.145,0,0,1,1.105-.329,2.248,2.248,0,0,1,1.892,1.007,6.939,6.939,0,0,1,1.147,4.223,5.014,5.014,0,0,1-.671,2.992A2.009,2.009,0,0,1,190.5,198.514Z" transform="translate(-88.82 -182.937)"/>
      <path id="패스_75" data-name="패스 75" d="M111.343,213.691l-.054.1a1.468,1.468,0,0,1-.324.439.8.8,0,0,1-.467.07l-.488-.192a5.54,5.54,0,0,0-.916-.324,3.941,3.941,0,0,0-.871-.092,3.152,3.152,0,0,0-2.261.844,2.734,2.734,0,0,0-.889,2.039A2.854,2.854,0,0,0,105.46,218a6.679,6.679,0,0,0,1.023,1.207,14.9,14.9,0,0,1,1.933,2.243,1.767,1.767,0,0,1,.22.88,2,2,0,0,1-.485,1.329,2.289,2.289,0,0,1-3.072-.057,2.167,2.167,0,0,1-.627-1.609c0-.247.02-.556.053-.931l.021-.208H103.9l-.963,4.319h.663l.048-.117c.207-.511.461-.511.544-.511a1.342,1.342,0,0,1,.443.107,10.9,10.9,0,0,0,1.326.431,4.456,4.456,0,0,0,.919.09,3.9,3.9,0,0,0,1.833-.438,3.092,3.092,0,0,0,1.3-1.243,3.352,3.352,0,0,0,.452-1.657,2.938,2.938,0,0,0-.368-1.433,8.6,8.6,0,0,0-1.55-1.8,10.94,10.94,0,0,1-1.467-1.586,1.685,1.685,0,0,1-.294-.944,1.275,1.275,0,0,1,.446-.963,1.678,1.678,0,0,1,1.192-.428,2.087,2.087,0,0,1,1.52.549,1.854,1.854,0,0,1,.568,1.413c0,.19-.009.44-.03.749l-.015.2h.622l.9-3.906Z" transform="translate(-86.684 -183.597)"/>
      <path id="패스_76" data-name="패스 76" d="M115.266,217.521l-3.156.51v.691l.22-.035c.621-.1.708-.289.946.119a5.243,5.243,0,0,1-.244,1.027l-1.02,3.506a4.136,4.136,0,0,0-.2,1.015.819.819,0,0,0,.262.621.918.918,0,0,0,.654.244,1.872,1.872,0,0,0,1.133-.456,5.7,5.7,0,0,0,1.3-1.415l.1-.161-.589-.385-.1.153a4.6,4.6,0,0,1-.86.957c-.107.08-.158.086-.226-.006a3.87,3.87,0,0,1,.148-.614Z" transform="translate(-86.915 -183.697)"/>
      <path id="패스_77" data-name="패스 77" d="M115.643,214.656a.989.989,0,0,0-1.376,0,.95.95,0,0,0-.286.692.974.974,0,0,0,1.949,0A.953.953,0,0,0,115.643,214.656Z" transform="translate(-86.971 -183.615)"/>
      <path id="패스_78" data-name="패스 78" d="M122.841,222.974a2.993,2.993,0,0,1-.985.958,3.826,3.826,0,0,1,.155-.644l.957-3.292a5.019,5.019,0,0,0,.235-1.309,1.107,1.107,0,0,0-.309-.8c-.553-.565-1.511-.369-2.407.419a12.1,12.1,0,0,0-1.6,1.935l.795-2.721-3.192.571.1.656.479-.079c.374-.05.426-.042.517.048a.216.216,0,0,1,.074.164,5.454,5.454,0,0,1-.243,1.013l-1.493,5.143h1.567l.431-1.427a7.411,7.411,0,0,1,.6-1.419,15.735,15.735,0,0,1,1.306-2.049,4.515,4.515,0,0,1,1.157-1.114.847.847,0,0,1,.425-.16l.158.162a3.315,3.315,0,0,1-.164.864l-.91,3.145a5.573,5.573,0,0,0-.275,1.345.854.854,0,0,0,.23.612.817.817,0,0,0,.6.23,1.682,1.682,0,0,0,.918-.34,5.94,5.94,0,0,0,1.428-1.534l.116-.168-.565-.347Z" transform="translate(-87.022 -183.697)"/>
      <path id="패스_79" data-name="패스 79" d="M126.916,218.322a5.583,5.583,0,0,0-1.862,1.948,4.875,4.875,0,0,0-.7,2.449,2.47,2.47,0,0,0,.679,1.817,2.514,2.514,0,0,0,1.868.685,3.787,3.787,0,0,0,1.847-.482,6.232,6.232,0,0,0,1.7-1.481l.116-.142-.506-.45-.125.136a4.913,4.913,0,0,1-1.273,1.054,1.9,1.9,0,0,1-2.21-.131,1.535,1.535,0,0,1-.4-1.131,4.926,4.926,0,0,1,.618-2.321,4.207,4.207,0,0,1,1.229-1.468,2.4,2.4,0,0,1,1.406-.5.952.952,0,0,1,.536.122l.107-.157-.062.355a1.071,1.071,0,0,1-.185.2,1.264,1.264,0,0,0-.28.355.781.781,0,0,0-.08.359.732.732,0,0,0,.223.531.848.848,0,0,0,1.218-.125,1.424,1.424,0,0,0,.343-.956,1.28,1.28,0,0,0-.491-1.015C129.925,217.37,128.325,217.418,126.916,218.322Z" transform="translate(-87.242 -183.698)"/>
      <path id="패스_80" data-name="패스 80" d="M135.855,221.569a4.943,4.943,0,0,0,2.085-1.307,2.07,2.07,0,0,0,.565-1.369,1.227,1.227,0,0,0-.469-.948,2.06,2.06,0,0,0-1.351-.378,4.4,4.4,0,0,0-2.34.705,5.6,5.6,0,0,0-1.868,1.966,4.857,4.857,0,0,0-.747,2.481,2.692,2.692,0,0,0,.619,1.71,2.268,2.268,0,0,0,1.874.792,5.425,5.425,0,0,0,3.667-1.894l.116-.114-.369-.524-.158.123a9.055,9.055,0,0,1-1.508,1,1.845,1.845,0,0,1-2.073-.217,1.439,1.439,0,0,1-.434-1.053,4.558,4.558,0,0,1,.032-.478A10.87,10.87,0,0,0,135.855,221.569Zm.711-1.665a3.616,3.616,0,0,1-1.377.975,5.9,5.9,0,0,1-1.547.4,4.708,4.708,0,0,1,1.19-2.147,2.406,2.406,0,0,1,1.564-.8.625.625,0,0,1,.455.148.519.519,0,0,1,.152.4A1.682,1.682,0,0,1,136.566,219.9Z" transform="translate(-87.434 -183.698)"/>
      <path id="패스_81" data-name="패스 81" d="M146.189,214.312a3.645,3.645,0,0,0-1.23,1.656l-.069.168.586.269.09-.135a1.923,1.923,0,0,1,1.659-.973,1.531,1.531,0,0,1,1.16.454,1.622,1.622,0,0,1,.449,1.2,3.366,3.366,0,0,1-.574,1.855,31.156,31.156,0,0,1-5.3,5.509l-.065.624h5.6l1.045-2.5h-.729l-.048.119a1.323,1.323,0,0,1-.524.625,1.749,1.749,0,0,1-.955.235h-2.158a47.027,47.027,0,0,0,3.738-3.684,7.617,7.617,0,0,0,1.416-2.1,3.458,3.458,0,0,0,.258-1.345,2.5,2.5,0,0,0-.745-1.815A2.762,2.762,0,0,0,146.189,214.312Z" transform="translate(-87.725 -183.598)"/>
      <path id="패스_82" data-name="패스 82" d="M154.659,214.486a8.156,8.156,0,0,0-2.112,3.282,10.36,10.36,0,0,0-.7,3.668,4.345,4.345,0,0,0,.731,2.775,2.3,2.3,0,0,0,1.847.911,2.6,2.6,0,0,0,1.176-.256,5.11,5.11,0,0,0,1.606-1.4,8.994,8.994,0,0,0,1.463-2.854,10.684,10.684,0,0,0,.521-3.223,4.355,4.355,0,0,0-.729-2.767A2.583,2.583,0,0,0,154.659,214.486Zm-.952,9.628a1.648,1.648,0,0,1-.309-1.095,16.482,16.482,0,0,1,.582-3.912,18.943,18.943,0,0,1,.944-2.875,3.778,3.778,0,0,1,.9-1.409,1.355,1.355,0,0,1,.8-.318.867.867,0,0,1,.685.346,1.763,1.763,0,0,1,.31,1.153,19.2,19.2,0,0,1-1.032,5.376,6.57,6.57,0,0,1-1.494,2.808A.954.954,0,0,1,153.706,224.113Z" transform="translate(-87.958 -183.598)"/>
      <path id="패스_83" data-name="패스 83" d="M166.686,214.624a2.579,2.579,0,0,0-3.8-.138,8.176,8.176,0,0,0-2.112,3.282,10.29,10.29,0,0,0-.7,3.668,4.284,4.284,0,0,0,.732,2.775,2.3,2.3,0,0,0,1.848.911,2.6,2.6,0,0,0,1.176-.256,5.107,5.107,0,0,0,1.605-1.4,9.028,9.028,0,0,0,1.461-2.854,10.706,10.706,0,0,0,.519-3.223A4.282,4.282,0,0,0,166.686,214.624Zm-4.75,9.489a1.643,1.643,0,0,1-.308-1.095,16.536,16.536,0,0,1,.582-3.912,18.844,18.844,0,0,1,.943-2.875,3.825,3.825,0,0,1,.9-1.409,1.374,1.374,0,0,1,.806-.318.875.875,0,0,1,.685.346,1.763,1.763,0,0,1,.309,1.153,19.117,19.117,0,0,1-1.035,5.376,6.564,6.564,0,0,1-1.487,2.808A.957.957,0,0,1,161.936,224.113Z" transform="translate(-88.172 -183.598)"/>
      <path id="패스_84" data-name="패스 84" d="M170.881,214.314a3.639,3.639,0,0,0-1.233,1.654l-.068.168.589.269.09-.135a1.917,1.917,0,0,1,1.657-.973,1.546,1.546,0,0,1,1.163.454,1.636,1.636,0,0,1,.447,1.2,3.41,3.41,0,0,1-.569,1.855,31.406,31.406,0,0,1-5.31,5.509l-.064.624h5.6l1.044-2.5H173.5l-.048.119a1.306,1.306,0,0,1-.517.625,1.773,1.773,0,0,1-.958.235h-2.161a47.035,47.035,0,0,0,3.738-3.684,7.7,7.7,0,0,0,1.419-2.1,3.522,3.522,0,0,0,.255-1.345,2.485,2.485,0,0,0-.746-1.815A2.754,2.754,0,0,0,170.881,214.314Z" transform="translate(-88.368 -183.598)"/>
    </g>
  </g>
</svg>
