<svg xmlns="http://www.w3.org/2000/svg" width="216.426" height="106.587" viewBox="0 0 216.426 106.587">
  <g id="그룹_23" data-name="그룹 23" transform="translate(-5.211 -220.052)">
    <g id="그룹_22" data-name="그룹 22">
      <path id="패스_39" data-name="패스 39" d="M105.67,316.5H97.536l-.125,2.45h.429l.006-.071a2.07,2.07,0,0,1,.305-1.015,1.238,1.238,0,0,1,.6-.5,3.258,3.258,0,0,1,.948-.1h1.1v7.4a2.017,2.017,0,0,1-.146,1.009.909.909,0,0,1-.815.341h-.423v.424h4.3v-.424H103.3a1,1,0,0,1-.786-.276c-.081-.092-.176-.354-.176-1.074v-7.4h1.3a2.024,2.024,0,0,1,.94.187,1.4,1.4,0,0,1,.564.586,2.756,2.756,0,0,1,.207.84l.009.067h.425Z" fill="#fff"/>
      <path id="패스_40" data-name="패스 40" d="M110.784,325.5l-.139-.053-.095-.239-.035-1.146v-2.243a3.944,3.944,0,0,0-.135-1.3,1.441,1.441,0,0,0-.664-.74,3.172,3.172,0,0,0-1.478-.3,2.817,2.817,0,0,0-1.832.537,1.549,1.549,0,0,0-.663,1.2.829.829,0,0,0,.188.565.641.641,0,0,0,.5.214.658.658,0,0,0,.5-.205.8.8,0,0,0,.191-.566l-.013-.421a.661.661,0,0,1,.247-.5.954.954,0,0,1,.67-.226,1.06,1.06,0,0,1,.852.341,2.091,2.091,0,0,1,.3,1.307v.206a15.936,15.936,0,0,0-2.395,1.04,2.959,2.959,0,0,0-1.057.95,1.656,1.656,0,0,0-.228.877,1.8,1.8,0,0,0,.466,1.287,1.568,1.568,0,0,0,1.187.493,2.05,2.05,0,0,0,.862-.186,10.338,10.338,0,0,0,1.182-.837,1.284,1.284,0,0,0,.219.744.778.778,0,0,0,.621.274c.515,0,1.055-.375,1.606-1.115l.015-.451v-.176l-.7.637Zm-2.906-2.4,1.291-.565v2.36a2.536,2.536,0,0,1-1.365.685.858.858,0,0,1-.657-.319,1.163,1.163,0,0,1-.29-.809,1.2,1.2,0,0,1,.232-.713A2.355,2.355,0,0,1,107.878,323.1Z" fill="#fff"/>
      <path id="패스_41" data-name="패스 41" d="M117.442,323.778a2.56,2.56,0,0,1-.777,1.187,1.759,1.759,0,0,1-1.082.342,2.116,2.116,0,0,1-1.637-.81,3.3,3.3,0,0,1-.689-2.179h4.56v-.079a2.777,2.777,0,0,0-.736-2.013,2.523,2.523,0,0,0-1.882-.757,2.919,2.919,0,0,0-2.239.975,3.862,3.862,0,0,0-.89,2.7,3.64,3.64,0,0,0,.868,2.546,2.749,2.749,0,0,0,2.1.952,2.433,2.433,0,0,0,1.883-.837,3.533,3.533,0,0,0,.9-1.841l.008-.05-.347-.224Zm-3.662-3.2a1.4,1.4,0,0,1,1.017-.443,1.261,1.261,0,0,1,.7.22,1.342,1.342,0,0,1,.51.6,2.632,2.632,0,0,1,.135.785H113.27A1.91,1.91,0,0,1,113.78,320.581Z" fill="#fff"/>
      <path id="패스_42" data-name="패스 42" d="M124.453,325.53l-.945-1.117-1.652-2.086,1.643-1.517a3.151,3.151,0,0,1,.839-.578,2.674,2.674,0,0,1,.957-.173l.076,0v-.385h-3.026v.367l.074.02.345.1.093.191-.045.13-.609.607s-1.329,1.207-1.55,1.409v-6.473h-.41c-.029.006-1.992.814-1.992.814l-.077.031.187.385.5-.138.254.081.139.309a10.984,10.984,0,0,1,.049,1.388v6.016a2.121,2.121,0,0,1-.1.79l-.2.209a1.708,1.708,0,0,1-.721.116H118.2v.415h3.519v-.414h-.077a1.919,1.919,0,0,1-.686-.087l-.222-.251a2.452,2.452,0,0,1-.083-.812V322.9l1.888,2.414c.236.3.272.434.272.485a.176.176,0,0,1-.067.152l-.389.08-.012.065v.338h3.366v-.408l-.677-.075A1.9,1.9,0,0,1,124.453,325.53Z" fill="#fff"/>
      <path id="패스_43" data-name="패스 43" d="M133.916,319.672v.421l.075,0a.944.944,0,0,1,.51.1.241.241,0,0,1,.109.184l-.139.594s-1.195,3.131-1.323,3.468l-1.425-3.608-.054-.266a.369.369,0,0,1,.116-.307,1.269,1.269,0,0,1,.69-.17l.075,0v-.421h-3.3v.42l.074,0a1.218,1.218,0,0,1,.555.109,1.1,1.1,0,0,1,.424.563l.373.971c-.019-.006-1.052,2.237-1.341,2.866-.118-.321-1.348-3.627-1.348-3.627l-.118-.513.094-.253a.787.787,0,0,1,.455-.116l.072-.006v-.418h-2.927v.409l.063.013a1.3,1.3,0,0,1,.6.259,1.939,1.939,0,0,1,.39.681l2.14,5.605h.37s1.729-3.791,1.871-4.1l1.606,4.1h.4l2.226-5.742a1.1,1.1,0,0,1,.864-.8l.067-.01v-.413h-2.243Z" fill="#fff"/>
      <path id="패스_44" data-name="패스 44" d="M139.911,319.478a3.081,3.081,0,0,0-2.814,1.8,4.07,4.07,0,0,0-.459,1.842,3.772,3.772,0,0,0,.758,2.3,2.884,2.884,0,0,0,2.436,1.223,3.1,3.1,0,0,0,2.9-1.877,4.321,4.321,0,0,0,.433-1.83,3.591,3.591,0,0,0-.787-2.285A3.016,3.016,0,0,0,139.911,319.478Zm.231,6.493a1.624,1.624,0,0,1-1.443-1.007,5.044,5.044,0,0,1-.563-2.45,3.787,3.787,0,0,1,.231-1.435,1.533,1.533,0,0,1,.592-.761,1.437,1.437,0,0,1,.728-.216,1.478,1.478,0,0,1,1.245.662,4.475,4.475,0,0,1,.741,2.724,3.228,3.228,0,0,1-.439,1.936A1.337,1.337,0,0,1,140.142,325.971Z" fill="#fff"/>
      <path id="패스_45" data-name="패스 45" d="M150.312,325.931l-.222-.245a2.347,2.347,0,0,1-.093-.82v-2.821a4.227,4.227,0,0,0-.164-1.355,1.9,1.9,0,0,0-.649-.928,1.67,1.67,0,0,0-.974-.285,3.069,3.069,0,0,0-2.139,1.281v-1.281h-.387c-.03.005-2.023.814-2.023.814l-.073.03.167.393.528-.121.249.075.142.311a11.128,11.128,0,0,1,.051,1.433v2.454a1.8,1.8,0,0,1-.164.932.709.709,0,0,1-.617.225h-.221v.415h3.423v-.415h-.078a1.541,1.541,0,0,1-.68-.09l-.244-.272a2.21,2.21,0,0,1-.073-.8v-3.485a2.356,2.356,0,0,1,1.632-.86.761.761,0,0,1,.724.368,2.7,2.7,0,0,1,.222,1.27v2.707l-.026.657a.659.659,0,0,1-.228.374,1,1,0,0,1-.6.126h-.215v.415h3.424v-.415h-.077A1.355,1.355,0,0,1,150.312,325.931Z" fill="#fff"/>
      <path id="패스_46" data-name="패스 46" d="M157.818,325.537l-.226-.081-.148-.314a10.137,10.137,0,0,1-.052-1.4v-7.717h-.4c-.03.006-2,.814-2,.814l-.069.028.142.388.548-.131.241.077.142.309a10.273,10.273,0,0,1,.052,1.378v1.077a2.083,2.083,0,0,0-1.365-.492,2.85,2.85,0,0,0-2.365,1.212,4.3,4.3,0,0,0-.91,2.647,3.458,3.458,0,0,0,.827,2.378,2.551,2.551,0,0,0,1.95.932,2.311,2.311,0,0,0,1.029-.229,3.462,3.462,0,0,0,.834-.638v.867h.408c.03-.006,1.993-.822,1.993-.822l.066-.028-.123-.388Zm-4.3-4.921a1.408,1.408,0,0,1,1.074-.543,1.309,1.309,0,0,1,.656.2,1.4,1.4,0,0,1,.545.579,2.225,2.225,0,0,1,.251.864v3.362a1.69,1.69,0,0,1-1.193.615,1.753,1.753,0,0,1-1.353-.746,3.388,3.388,0,0,1-.619-2.185A3.175,3.175,0,0,1,153.52,320.616Z" fill="#fff"/>
      <path id="패스_47" data-name="패스 47" d="M164.547,320.648a3.012,3.012,0,0,0-2.471-1.17,3.081,3.081,0,0,0-2.815,1.8,4.068,4.068,0,0,0-.458,1.842,3.777,3.777,0,0,0,.757,2.3A2.886,2.886,0,0,0,162,326.639a3.1,3.1,0,0,0,2.906-1.877,4.334,4.334,0,0,0,.432-1.83A3.591,3.591,0,0,0,164.547,320.648Zm-2.24,5.323a1.626,1.626,0,0,1-1.445-1.007,5.05,5.05,0,0,1-.562-2.45,3.784,3.784,0,0,1,.231-1.435,1.544,1.544,0,0,1,.592-.761,1.44,1.44,0,0,1,.729-.216,1.476,1.476,0,0,1,1.244.662,4.469,4.469,0,0,1,.742,2.724,3.232,3.232,0,0,1-.439,1.936A1.34,1.34,0,0,1,162.307,325.971Z" fill="#fff"/>
    </g>
    <path id="패스_48" data-name="패스 48" d="M42.841,280.206c1.206-.038,3.054.113,5.28.113,1.018,0,2-.039,2.451-.076a7.343,7.343,0,0,0,1.4,2.075c3.2,4.11,9.428,11.917,11.728,14.594.037,0,.075-.039.113-.039,0-4.826.075-10.408-.151-12.934-.114-1.245-.453-1.81-1.622-2.112a16.44,16.44,0,0,0-2.375-.415,2.156,2.156,0,0,1,.036-1.206c.944,0,2.679.113,5.054.113,1.848,0,3.621-.113,4.3-.113a2.168,2.168,0,0,1,0,1.206,14.027,14.027,0,0,0-1.545.339c-1.057.339-1.4.83-1.547,2.226-.226,3.2-.264,8.674-.3,14.255,0,1.7.037,3.883.075,5.2a25.765,25.765,0,0,0-3.394.038c-2.149-3.018-11.238-14.746-13.653-17.838a.1.1,0,0,0-.188,0c-.074,4.072-.037,11.955.076,13.689.075,1.584.6,2.15,1.659,2.375a17.674,17.674,0,0,0,2.225.378,1.779,1.779,0,0,1-.075,1.244c-1.207,0-2.9-.113-4.752-.113-2.074,0-3.734.113-4.789.113a2,2,0,0,1,0-1.244,10.434,10.434,0,0,0,2.112-.415c.829-.263,1.207-.867,1.32-2.149.226-2,.338-8.862.377-15.2A2.438,2.438,0,0,0,45.4,282.09a7.5,7.5,0,0,0-2.6-.64,2.316,2.316,0,0,1,.038-1.244" fill="#fff"/>
    <path id="패스_49" data-name="패스 49" d="M80.7,285.259c-.717,2.036-1.886,5.544-2.49,7.354-.038.151,0,.226.076.263.415.038,1.282.038,2.451.038,1.132,0,2.15,0,2.527-.038.038,0,.113-.151.113-.225-.49-1.584-1.81-5.506-2.526-7.392-.038,0-.114-.038-.151,0M73.726,298.91c2.037-4.79,5.242-13.54,6.147-16.178a12.79,12.79,0,0,0,.717-2.489c.452.036,1.055.076,1.7.076.791,0,1.319-.04,1.7-.076.151.6.414,1.47.64,2.111,1.131,3.168,4.489,12.86,5.808,16.141,1.169,2.942,1.4,3.205,4.186,3.583a2.353,2.353,0,0,1-.113,1.244c-.98,0-2.715-.113-5.2-.113-2.716,0-4.3.076-5.506.113a2.335,2.335,0,0,1,0-1.244,8.442,8.442,0,0,0,1.924-.453.692.692,0,0,0,.377-.829c-.341-1.356-1.359-4.148-1.925-5.582-.036-.075-.225-.265-.339-.265-.6-.036-1.885,0-3.129,0-1.773,0-2.528,0-3.017.039-.151,0-.339.189-.415.339a31.69,31.69,0,0,0-1.622,5.129c0,.566.076,1.056,1.094,1.283a11.5,11.5,0,0,0,1.848.339,2.343,2.343,0,0,1-.114,1.244c-.98,0-2.6-.113-4.789-.113-1.622,0-3.054.113-4.185.113a2.285,2.285,0,0,1,0-1.244c2.677-.378,3.167-.678,4.223-3.168" fill="#fff"/>
    <path id="패스_50" data-name="패스 50" d="M125.654,292.575c-.039.15,0,.264.112.3.416.038,1.284.038,2.452.038,1.132,0,2.149,0,2.49-.038.073,0,.149-.151.112-.225-.49-1.584-1.81-5.47-2.488-7.393-.039,0-.151-.037-.189,0-.716,2.037-1.886,5.507-2.489,7.317M103.894,281.9a.881.881,0,0,0-.265.565c-.075.981-.075,4.525-.075,8.825,0,.151.075.264.226.264a11.6,11.6,0,0,0,4.338-.378c1.055-.527,1.96-1.583,1.96-4.073,0-3.243-1.772-5.393-5.052-5.393a3.076,3.076,0,0,0-1.132.19m-7.958-1.7c.906,0,3.622.113,4.979.113,2.828,0,4.865-.076,6.864-.076,4.638,0,7.013,2.526,7.013,5.807,0,2.942-1.961,4.753-4.374,5.771-.076.037-.076.226-.038.3a62.883,62.883,0,0,0,6.071,8.3,3.769,3.769,0,0,0,2.64,1.281c.755,0,1.133-.377,1.623-1.507,2-4.789,5.731-14.822,6.636-17.461a21.808,21.808,0,0,0,.717-2.489c.414.037,1.019.076,1.7.076.793,0,1.282-.039,1.7-.076.151.6.378,1.47.6,2.15,1.131,3.129,4.525,12.821,5.807,16.1,1.206,2.942,1.434,3.205,4.186,3.583a2.034,2.034,0,0,1-.113,1.244c-.943,0-2.677-.113-5.2-.113-2.716,0-4.262.075-5.507.113a2.779,2.779,0,0,1,0-1.244,8.442,8.442,0,0,0,1.924-.453.654.654,0,0,0,.378-.829c-.34-1.357-1.32-4.148-1.887-5.582-.075-.075-.225-.265-.377-.265-.564-.036-1.848,0-3.091,0-1.811,0-2.566,0-3.055.039a.494.494,0,0,0-.378.339,32.893,32.893,0,0,0-1.659,5.129c0,.566.076,1.056,1.094,1.32.565.114,1.018.189,1.847.3a2.8,2.8,0,0,1-.076,1.244c-.979,0-1.659-.113-4.788-.113-1.207,0-4.3.113-5.581.113a5.1,5.1,0,0,1-4.525-2.148c-1.509-1.849-3.508-5.243-4.79-7.242a1.3,1.3,0,0,0-1.056-.679h-1.508c-.039,0-.152.151-.152.227,0,2.262.039,4.977.075,6.449.077,1.17.3,1.583,1.133,1.81a15,15,0,0,0,2.035.339c.189.113.114,1.169-.075,1.244-1.056,0-2.9-.113-5.43-.113-2.9,0-4.563.113-5.356.113-.15-.151-.226-1.093,0-1.207.716-.112,1.321-.187,1.773-.3.831-.19,1.093-.68,1.169-1.924.076-1.1.113-6.185.113-8.447,0-3.7,0-6.486-.075-7.995-.038-1.019-.34-1.509-1.131-1.7a17.208,17.208,0,0,0-1.924-.339c-.187-.226-.113-1.132.075-1.206" fill="#fff"/>
    <path id="패스_51" data-name="패스 51" d="M160.988,282.015a9.4,9.4,0,0,0-4.487-.943c-4.487,0-7.392,3.432-7.392,10.108,0,5.43,2.64,10.822,8.938,10.822a5.638,5.638,0,0,0,3.808-1.244,14.869,14.869,0,0,0,2.867-3.733,1.99,1.99,0,0,1,1.056.716c-.453,1.584-2,4.564-3.016,5.242a17.866,17.866,0,0,1-5.7.906c-8.409,0-13.311-4.3-13.311-12.332a11.191,11.191,0,0,1,6.108-10.3,16.136,16.136,0,0,1,7.656-1.622c3.016,0,5.882.567,7.58.641a49.757,49.757,0,0,0-.6,6.148c-.151.188-1.283.3-1.319.113-.378-2.489-.718-3.695-2.189-4.526" fill="#fff"/>
    <path id="패스_52" data-name="패스 52" d="M168.757,280.206c.9,0,2.6.113,5.316.113,2.792,0,4.263-.113,5.28-.113a1.857,1.857,0,0,1-.038,1.206,12.856,12.856,0,0,0-1.772.339c-.753.264-.942.679-.98,1.848-.038,1.659-.038,3.847-.038,6.448a.464.464,0,0,0,.19.3,46.864,46.864,0,0,0,5.39.077c2.944,0,4.263,0,4.715-.039.075-.038.227-.15.227-.265,0-1.884,0-5.2-.075-7.051a1.244,1.244,0,0,0-.792-1.244,8.036,8.036,0,0,0-2.075-.415,1.353,1.353,0,0,1,0-1.206c1.357,0,2.79.113,5.394.113,2.714,0,4.223-.113,5.128-.113a1.5,1.5,0,0,1,0,1.206,8.825,8.825,0,0,0-1.848.377c-.717.264-.943.641-.98,1.848-.076,2.112-.076,3.922-.076,8.523,0,2.753,0,6.11.076,7.656.075,1.018.225,1.584.9,1.809a10.721,10.721,0,0,0,2.375.453,1.751,1.751,0,0,1-.151,1.244c-1.018,0-2.979-.113-5.429-.113-2.3,0-4.526.113-5.394.113a1.571,1.571,0,0,1-.038-1.244,9.4,9.4,0,0,0,1.924-.339c.678-.189.981-.64,1.018-1.81.038-1.547.038-4.677.038-7.129a.249.249,0,0,0-.227-.264c-.716-.036-3.054-.036-4.827-.036-3.884.036-5.128.036-5.354.113a.626.626,0,0,0-.114.226c0,2.262,0,5.393.038,6.787.038,1.17.189,1.774,1.094,2.037a14.282,14.282,0,0,0,2.15.415,1.725,1.725,0,0,1-.152,1.244c-.717,0-2.489-.113-5.619-.113-2.677,0-4.563.113-5.354.113a1.992,1.992,0,0,1,0-1.244c.867-.113,1.282-.188,1.81-.3,1.018-.264,1.244-.867,1.319-2.526.038-.793.075-4.186.075-7.505,0-3.658-.037-7.2-.075-8.184-.075-1.168-.263-1.583-1.019-1.772a12.253,12.253,0,0,0-2.074-.377,1.88,1.88,0,0,1,.039-1.206" fill="#fff"/>
    <path id="패스_53" data-name="패스 53" d="M207.675,285.259c-.716,2.036-1.886,5.544-2.489,7.354-.038.151,0,.226.075.263.415.038,1.283.038,2.451.038,1.131,0,2.15,0,2.527-.038.038,0,.113-.151.113-.225-.49-1.584-1.809-5.506-2.527-7.392-.037,0-.113-.038-.15,0M200.7,298.91c2.037-4.79,5.243-13.54,6.147-16.178a12.652,12.652,0,0,0,.717-2.489c.454.036,1.057.076,1.7.076.792,0,1.319-.04,1.7-.076.15.6.414,1.47.64,2.111,1.131,3.168,4.489,12.86,5.808,16.141,1.169,2.942,1.4,3.205,4.187,3.583a2.353,2.353,0,0,1-.114,1.244c-.981,0-2.715-.113-5.2-.113-2.715,0-4.3.076-5.5.113a2.3,2.3,0,0,1,0-1.244,8.434,8.434,0,0,0,1.922-.453.688.688,0,0,0,.377-.829c-.34-1.356-1.357-4.148-1.923-5.582-.038-.075-.226-.265-.339-.265-.6-.036-1.886,0-3.13,0-1.774,0-2.527,0-3.017.039-.151,0-.34.189-.416.339a31.764,31.764,0,0,0-1.621,5.129c0,.566.075,1.056,1.1,1.283a11.5,11.5,0,0,0,1.846.339,2.352,2.352,0,0,1-.112,1.244c-.98,0-2.6-.113-4.79-.113-1.621,0-3.055.113-4.185.113a2.3,2.3,0,0,1,0-1.244c2.676-.378,3.168-.678,4.222-3.168" fill="#fff"/>
    <path id="패스_54" data-name="패스 54" d="M65.882,225.885s-28.594-4.046-47.373,14.466a6.854,6.854,0,1,0,10.037,9.3l0,.005s.023-.031.053-.078a6.883,6.883,0,0,0,.475-.675,62.219,62.219,0,0,1,36.805-23.022" fill="#fff"/>
    <path id="패스_55" data-name="패스 55" d="M92.922,231.142a7.581,7.581,0,0,0-4.553-1.319v0C22.254,230.878,5.211,288.5,5.211,288.5a97.376,97.376,0,0,1,20.874-22.087c18.177-13.066,39.619-8.806,43.821-7.795a6.28,6.28,0,0,0,.632.159l.1.029V258.8A6.38,6.38,0,0,0,73.4,246.355a86.535,86.535,0,0,1,15.615-1.282v-.03a7.62,7.62,0,0,0,3.9-13.9" fill="#fff"/>
    <path id="패스_56" data-name="패스 56" d="M28.938,226.78a6.728,6.728,0,1,1-6.729-6.728,6.729,6.729,0,0,1,6.729,6.728" fill="#fff"/>
  </g>
</svg>
