<svg xmlns="http://www.w3.org/2000/svg" width="55.916" height="42.047" viewBox="0 0 55.916 42.047">
  <g id="그룹_1789" data-name="그룹 1789" transform="translate(-724.996 -1201.852)">
    <path id="패스_19592" data-name="패스 19592" d="M139.016,48.874s-17.562-2.486-29.1,8.885a4.21,4.21,0,1,0,6.164,5.715l0,0s.012-.02.032-.05a4.355,4.355,0,0,0,.29-.412,38.207,38.207,0,0,1,22.608-14.142" transform="translate(623.248 1156.561)" fill="#fff"/>
    <path id="패스_19591" data-name="패스 19591" d="M152.017,53.493a4.648,4.648,0,0,0-2.8-.811h0c-40.609.649-51.076,36.047-51.076,36.047a59.713,59.713,0,0,1,12.822-13.568c11.166-8.026,24.335-5.41,26.918-4.788a3.853,3.853,0,0,0,.386.1l.067.019v0a3.919,3.919,0,0,0,1.7-7.646,52.976,52.976,0,0,1,9.59-.787v-.019a4.68,4.68,0,0,0,2.4-8.538" transform="translate(626.855 1155.173)" fill="#fff"/>
    <path id="패스_19593" data-name="패스 19593" d="M116.024,47.664a4.132,4.132,0,1,1-4.131-4.134,4.132,4.132,0,0,1,4.131,4.134" transform="translate(623.544 1158.322)" fill="#fff"/>
  </g>
</svg>
