<svg xmlns="http://www.w3.org/2000/svg" width="94.036" height="38.49" viewBox="0 0 94.036 38.49">
  <g id="m-logo-header" transform="translate(-5.211 -220.052)">
    <g id="그룹_22" data-name="그룹 22" transform="translate(41.173 253.579)">
      <path id="패스_39" data-name="패스 39" d="M101.272,316.5h-3.8l-.058,1.145h.2l0-.033a.967.967,0,0,1,.143-.474.579.579,0,0,1,.282-.233,1.526,1.526,0,0,1,.443-.045H99v3.458a.942.942,0,0,1-.068.472.425.425,0,0,1-.381.159h-.2v.2h2.012v-.2h-.195a.469.469,0,0,1-.367-.129c-.038-.043-.082-.165-.082-.5v-3.458h.608a.945.945,0,0,1,.439.087.655.655,0,0,1,.264.274,1.289,1.289,0,0,1,.1.393l0,.031h.2Z" transform="translate(-97.411 -316.275)"/>
      <path id="패스_40" data-name="패스 40" d="M107.964,322.294l-.065-.025-.044-.112-.016-.536v-1.049a1.844,1.844,0,0,0-.063-.607.674.674,0,0,0-.31-.346,1.484,1.484,0,0,0-.691-.142,1.317,1.317,0,0,0-.856.251.724.724,0,0,0-.31.56.387.387,0,0,0,.088.264.3.3,0,0,0,.231.1.308.308,0,0,0,.234-.1.372.372,0,0,0,.089-.265l-.006-.2a.309.309,0,0,1,.115-.235.446.446,0,0,1,.313-.106.5.5,0,0,1,.4.159.978.978,0,0,1,.138.611v.1a7.438,7.438,0,0,0-1.12.486,1.383,1.383,0,0,0-.494.444.774.774,0,0,0-.107.41.843.843,0,0,0,.218.6.733.733,0,0,0,.555.23.959.959,0,0,0,.4-.087,4.843,4.843,0,0,0,.553-.391.6.6,0,0,0,.1.348.364.364,0,0,0,.29.128c.241,0,.493-.175.751-.521l.007-.211v-.082l-.328.3Zm-1.358-1.122.6-.264v1.1a1.186,1.186,0,0,1-.638.32.4.4,0,0,1-.307-.149.543.543,0,0,1-.136-.378.563.563,0,0,1,.108-.333A1.1,1.1,0,0,1,106.606,321.172Z" transform="translate(-101.713 -317.862)"/>
      <path id="패스_41" data-name="패스 41" d="M114.581,321.483a1.2,1.2,0,0,1-.363.555.823.823,0,0,1-.506.16.989.989,0,0,1-.765-.379,1.545,1.545,0,0,1-.322-1.019h2.132v-.037a1.3,1.3,0,0,0-.344-.941,1.18,1.18,0,0,0-.88-.354,1.364,1.364,0,0,0-1.047.456,1.805,1.805,0,0,0-.416,1.261,1.7,1.7,0,0,0,.406,1.19,1.285,1.285,0,0,0,.98.445,1.137,1.137,0,0,0,.88-.391,1.652,1.652,0,0,0,.42-.861l0-.023-.162-.1Zm-1.712-1.495a.655.655,0,0,1,.475-.207.589.589,0,0,1,.328.1.626.626,0,0,1,.238.28,1.231,1.231,0,0,1,.063.367h-1.344A.893.893,0,0,1,112.869,319.989Z" transform="translate(-105.217 -317.858)"/>
      <path id="패스_42" data-name="패스 42" d="M121.109,320.467l-.442-.522-.772-.975.768-.709a1.473,1.473,0,0,1,.392-.27,1.25,1.25,0,0,1,.447-.081h.036v-.18h-1.415v.172l.035.009.161.046.043.089-.021.061-.285.284-.725.659v-3.026h-.192c-.014,0-.931.38-.931.38l-.036.015.087.18.232-.064.119.038.065.144a5.136,5.136,0,0,1,.023.649v2.812a.992.992,0,0,1-.047.369l-.092.1a.8.8,0,0,1-.337.054h-.036v.194h1.645V320.7H119.8a.9.9,0,0,1-.321-.041l-.1-.117a1.147,1.147,0,0,1-.039-.38v-.92l.883,1.129c.11.142.127.2.127.227a.082.082,0,0,1-.031.071l-.182.037-.006.03v.158H121.7V320.7l-.316-.035A.888.888,0,0,1,121.109,320.467Z" transform="translate(-108.468 -316.022)"/>
      <path id="패스_43" data-name="패스 43" d="M129.467,319.672v.2h.035a.441.441,0,0,1,.238.049.113.113,0,0,1,.051.086l-.065.278-.618,1.621-.666-1.687-.025-.124a.173.173,0,0,1,.054-.144.594.594,0,0,1,.323-.079h.035v-.2h-1.543v.2l.035,0a.569.569,0,0,1,.259.051.516.516,0,0,1,.2.263l.174.454c-.009,0-.492,1.046-.627,1.34-.055-.15-.63-1.7-.63-1.7l-.055-.24.044-.118a.369.369,0,0,1,.213-.054l.034,0v-.2h-1.368v.191l.029.006a.608.608,0,0,1,.28.121.907.907,0,0,1,.182.318l1,2.62h.173l.875-1.917.751,1.917h.187l1.041-2.684a.516.516,0,0,1,.4-.375l.031,0v-.193h-1.049Z" transform="translate(-112.402 -317.966)"/>
      <path id="패스_44" data-name="패스 44" d="M138.168,319.478a1.44,1.44,0,0,0-1.316.841,1.9,1.9,0,0,0-.215.861,1.763,1.763,0,0,0,.354,1.073,1.348,1.348,0,0,0,1.139.572,1.448,1.448,0,0,0,1.358-.878,2.02,2.02,0,0,0,.2-.855,1.679,1.679,0,0,0-.368-1.068A1.41,1.41,0,0,0,138.168,319.478Zm.108,3.035a.759.759,0,0,1-.675-.471,2.357,2.357,0,0,1-.263-1.145,1.771,1.771,0,0,1,.108-.671.717.717,0,0,1,.277-.356.672.672,0,0,1,.34-.1.691.691,0,0,1,.582.31,2.092,2.092,0,0,1,.346,1.273,1.51,1.51,0,0,1-.205.905A.625.625,0,0,1,138.276,322.513Z" transform="translate(-118.3 -317.862)"/>
      <path id="패스_45" data-name="패스 45" d="M146.731,322.494l-.1-.115a1.1,1.1,0,0,1-.043-.383v-1.319a1.975,1.975,0,0,0-.077-.633.886.886,0,0,0-.3-.434.781.781,0,0,0-.455-.133,1.435,1.435,0,0,0-1,.6v-.6h-.181c-.014,0-.946.38-.946.38l-.034.014.078.184.247-.057.116.035.066.145a5.2,5.2,0,0,1,.024.67V322a.84.84,0,0,1-.077.436.331.331,0,0,1-.288.105h-.1v.194h1.6v-.194h-.036a.72.72,0,0,1-.318-.042l-.114-.127a1.033,1.033,0,0,1-.034-.372v-1.629a1.1,1.1,0,0,1,.763-.4.355.355,0,0,1,.338.172,1.261,1.261,0,0,1,.1.594V322l-.012.307a.308.308,0,0,1-.107.175.467.467,0,0,1-.28.059h-.1v.194h1.6v-.194h-.036A.634.634,0,0,1,146.731,322.494Z" transform="translate(-122.001 -317.862)"/>
      <path id="패스_46" data-name="패스 46" d="M154.4,320.47l-.106-.038-.069-.147a4.735,4.735,0,0,1-.024-.656v-3.607h-.189c-.014,0-.934.38-.934.38l-.032.013.066.181.256-.061.113.036.066.145a4.8,4.8,0,0,1,.024.644v.5a.974.974,0,0,0-.638-.23,1.332,1.332,0,0,0-1.106.567,2.011,2.011,0,0,0-.425,1.237,1.617,1.617,0,0,0,.387,1.112,1.192,1.192,0,0,0,.912.436,1.081,1.081,0,0,0,.481-.107,1.617,1.617,0,0,0,.39-.3v.405h.191c.014,0,.932-.384.932-.384l.031-.013-.057-.181Zm-2.009-2.3a.658.658,0,0,1,.5-.254.612.612,0,0,1,.307.092.653.653,0,0,1,.255.271,1.04,1.04,0,0,1,.117.4v1.572a.79.79,0,0,1-.558.287.819.819,0,0,1-.633-.349,1.583,1.583,0,0,1-.289-1.021A1.484,1.484,0,0,1,152.394,318.17Z" transform="translate(-126.164 -316.022)"/>
      <path id="패스_47" data-name="패스 47" d="M161.488,320.025a1.408,1.408,0,0,0-1.155-.547,1.44,1.44,0,0,0-1.316.841,1.9,1.9,0,0,0-.214.861,1.766,1.766,0,0,0,.354,1.073,1.349,1.349,0,0,0,1.139.572,1.449,1.449,0,0,0,1.358-.878,2.025,2.025,0,0,0,.2-.855A1.679,1.679,0,0,0,161.488,320.025Zm-1.047,2.488a.76.76,0,0,1-.676-.471,2.361,2.361,0,0,1-.263-1.145,1.77,1.77,0,0,1,.108-.671.722.722,0,0,1,.277-.356.673.673,0,0,1,.341-.1.69.69,0,0,1,.582.31,2.089,2.089,0,0,1,.347,1.273,1.511,1.511,0,0,1-.205.905A.626.626,0,0,1,160.441,322.513Z" transform="translate(-130.104 -317.862)"/>
    </g>
    <path id="패스_48" data-name="패스 48" d="M42.784,280.2c.564-.018,1.428.053,2.468.053.476,0,.934-.018,1.146-.035a3.432,3.432,0,0,0,.653.97c1.5,1.921,4.407,5.571,5.483,6.822.017,0,.035-.018.053-.018,0-2.256.035-4.866-.071-6.046-.053-.582-.212-.846-.758-.987a7.675,7.675,0,0,0-1.11-.194,1.008,1.008,0,0,1,.017-.564c.441,0,1.252.053,2.363.053.864,0,1.693-.053,2.01-.053a1.014,1.014,0,0,1,0,.564,6.566,6.566,0,0,0-.722.159c-.494.159-.653.388-.723,1.041-.106,1.5-.123,4.055-.141,6.664,0,.793.017,1.815.035,2.433a12.035,12.035,0,0,0-1.587.018c-1-1.411-5.254-6.893-6.382-8.339a.048.048,0,0,0-.088,0c-.035,1.9-.017,5.589.036,6.4.035.74.282,1.005.776,1.11a8.263,8.263,0,0,0,1.04.177.832.832,0,0,1-.035.582c-.564,0-1.357-.053-2.221-.053-.97,0-1.746.053-2.239.053a.937.937,0,0,1,0-.582,4.877,4.877,0,0,0,.987-.194c.388-.123.564-.405.617-1,.106-.934.158-4.143.176-7.1a1.14,1.14,0,0,0-.582-1.041,3.507,3.507,0,0,0-1.216-.3,1.083,1.083,0,0,1,.018-.582" transform="translate(-27.121 -43.367)"/>
    <path id="패스_49" data-name="패스 49" d="M74.693,282.588c-.335.952-.882,2.592-1.164,3.438-.018.071,0,.106.036.123.194.018.6.018,1.146.018.529,0,1.005,0,1.181-.018.018,0,.053-.071.053-.105-.229-.74-.846-2.574-1.181-3.456-.018,0-.053-.018-.071,0m-3.262,6.382c.952-2.239,2.451-6.33,2.874-7.563a5.98,5.98,0,0,0,.335-1.164c.211.017.493.036.793.036.37,0,.617-.019.793-.036.071.282.194.687.3.987.529,1.481,2.1,6.012,2.715,7.546.546,1.375.653,1.5,1.957,1.675a1.1,1.1,0,0,1-.053.582c-.458,0-1.269-.053-2.433-.053-1.27,0-2.01.035-2.574.053a1.091,1.091,0,0,1,0-.582,3.945,3.945,0,0,0,.9-.212.324.324,0,0,0,.176-.388c-.159-.634-.635-1.939-.9-2.609-.017-.035-.105-.124-.158-.124-.282-.017-.881,0-1.463,0-.829,0-1.182,0-1.41.018-.071,0-.158.088-.194.158a14.812,14.812,0,0,0-.758,2.4c0,.265.036.494.511.6a5.381,5.381,0,0,0,.864.158,1.1,1.1,0,0,1-.053.582c-.458,0-1.216-.053-2.239-.053-.758,0-1.428.053-1.956.053a1.068,1.068,0,0,1,0-.582c1.251-.177,1.48-.317,1.974-1.481" transform="translate(-41.33 -43.39)"/>
    <path id="패스_50" data-name="패스 50" d="M109.731,285.988c-.018.07,0,.123.052.141.194.018.6.018,1.146.018.529,0,1,0,1.164-.018.034,0,.07-.071.052-.105-.229-.74-.846-2.557-1.163-3.456-.018,0-.071-.017-.088,0-.335.952-.882,2.574-1.164,3.421M99.558,281a.412.412,0,0,0-.124.264c-.035.459-.035,2.115-.035,4.126,0,.071.035.123.106.123a5.419,5.419,0,0,0,2.028-.177c.493-.246.916-.74.916-1.9a2.249,2.249,0,0,0-2.362-2.521,1.437,1.437,0,0,0-.529.089m-3.72-.793c.424,0,1.693.053,2.328.053,1.322,0,2.274-.035,3.209-.035,2.168,0,3.278,1.181,3.278,2.715a2.919,2.919,0,0,1-2.045,2.7c-.036.017-.036.106-.018.14a29.4,29.4,0,0,0,2.838,3.879,1.762,1.762,0,0,0,1.234.6c.353,0,.53-.176.759-.7.934-2.239,2.679-6.929,3.1-8.163a10.2,10.2,0,0,0,.335-1.164c.194.017.476.035.793.035.371,0,.6-.018.793-.035.071.282.177.687.282,1.005.529,1.463,2.115,5.994,2.715,7.527.564,1.375.67,1.5,1.957,1.675a.951.951,0,0,1-.053.582c-.441,0-1.251-.053-2.433-.053-1.27,0-1.992.035-2.574.053a1.3,1.3,0,0,1,0-.582,3.946,3.946,0,0,0,.9-.212.306.306,0,0,0,.177-.388c-.159-.634-.617-1.939-.882-2.609-.035-.035-.105-.124-.176-.124-.264-.017-.864,0-1.445,0-.847,0-1.2,0-1.428.018a.231.231,0,0,0-.177.158,15.378,15.378,0,0,0-.776,2.4c0,.265.036.494.511.617.264.053.476.088.863.141a1.308,1.308,0,0,1-.036.582c-.458,0-.776-.053-2.238-.053-.564,0-2.01.053-2.609.053a2.385,2.385,0,0,1-2.115-1c-.705-.864-1.64-2.451-2.239-3.385a.607.607,0,0,0-.494-.317h-.7c-.018,0-.071.071-.071.106,0,1.057.018,2.327.035,3.015.036.547.142.74.53.846a6.991,6.991,0,0,0,.951.159c.088.053.053.547-.035.582-.494,0-1.358-.053-2.538-.053-1.358,0-2.133.053-2.5.053-.07-.071-.106-.511,0-.564.335-.052.618-.087.829-.14.388-.089.511-.318.546-.9.036-.512.053-2.891.053-3.949,0-1.728,0-3.032-.035-3.737-.018-.476-.159-.705-.529-.794a8.07,8.07,0,0,0-.9-.159c-.087-.106-.053-.529.035-.564" transform="translate(-55.354 -43.37)"/>
    <path id="패스_51" data-name="패스 51" d="M151.811,280.75a4.4,4.4,0,0,0-2.1-.441c-2.1,0-3.456,1.6-3.456,4.725,0,2.538,1.234,5.059,4.178,5.059a2.636,2.636,0,0,0,1.78-.582,6.952,6.952,0,0,0,1.34-1.745.93.93,0,0,1,.494.335,6.119,6.119,0,0,1-1.41,2.451,8.354,8.354,0,0,1-2.663.423c-3.931,0-6.223-2.011-6.223-5.765a5.232,5.232,0,0,1,2.855-4.813,7.543,7.543,0,0,1,3.579-.758c1.41,0,2.75.265,3.543.3a23.262,23.262,0,0,0-.282,2.874c-.071.088-.6.141-.617.053-.177-1.164-.336-1.727-1.023-2.116" transform="translate(-80.917 -43.068)"/>
    <path id="패스_52" data-name="패스 52" d="M168.664,280.206c.423,0,1.216.053,2.485.053,1.305,0,1.993-.053,2.468-.053a.868.868,0,0,1-.018.564,6.026,6.026,0,0,0-.828.159c-.352.123-.44.317-.458.864-.018.776-.018,1.8-.018,3.014a.217.217,0,0,0,.089.141,21.9,21.9,0,0,0,2.52.036c1.376,0,1.993,0,2.2-.018.035-.018.106-.07.106-.124,0-.881,0-2.432-.035-3.3a.581.581,0,0,0-.37-.582,3.757,3.757,0,0,0-.97-.194.633.633,0,0,1,0-.564c.634,0,1.3.053,2.522.053,1.269,0,1.974-.053,2.4-.053a.7.7,0,0,1,0,.564,4.133,4.133,0,0,0-.864.176c-.335.123-.441.3-.458.864-.036.987-.036,1.833-.036,3.984,0,1.287,0,2.856.036,3.579.035.476.105.74.423.846a5.01,5.01,0,0,0,1.11.212.819.819,0,0,1-.071.582c-.476,0-1.393-.053-2.538-.053-1.076,0-2.116.053-2.522.053a.734.734,0,0,1-.018-.582,4.386,4.386,0,0,0,.9-.159c.317-.088.459-.3.476-.846.018-.723.018-2.186.018-3.333a.116.116,0,0,0-.106-.123c-.335-.017-1.428-.017-2.257-.017-1.816.017-2.4.017-2.5.053a.292.292,0,0,0-.053.106c0,1.057,0,2.521.018,3.173.018.547.088.829.511.952a6.676,6.676,0,0,0,1.005.194.806.806,0,0,1-.071.582c-.335,0-1.164-.053-2.627-.053-1.251,0-2.133.053-2.5.053a.931.931,0,0,1,0-.582c.405-.053.6-.088.846-.141.476-.123.582-.405.617-1.181.018-.371.035-1.957.035-3.508,0-1.71-.017-3.367-.035-3.826-.035-.546-.123-.74-.476-.828a5.737,5.737,0,0,0-.97-.176.879.879,0,0,1,.018-.564" transform="translate(-94.138 -43.37)"/>
    <path id="패스_53" data-name="패스 53" d="M201.665,282.588c-.335.952-.882,2.592-1.164,3.438-.018.071,0,.106.035.123.194.018.6.018,1.146.018.529,0,1.005,0,1.181-.018.018,0,.053-.071.053-.105-.229-.74-.846-2.574-1.181-3.456-.017,0-.053-.018-.07,0m-3.262,6.382c.952-2.239,2.451-6.33,2.874-7.563a5.918,5.918,0,0,0,.335-1.164c.212.017.494.036.794.036.37,0,.617-.019.793-.036.07.282.194.687.3.987.529,1.481,2.1,6.012,2.715,7.546.547,1.375.653,1.5,1.957,1.675a1.1,1.1,0,0,1-.053.582c-.459,0-1.269-.053-2.433-.053-1.269,0-2.01.035-2.573.053a1.073,1.073,0,0,1,0-.582,3.942,3.942,0,0,0,.9-.212.322.322,0,0,0,.176-.388c-.159-.634-.634-1.939-.9-2.609-.018-.035-.106-.124-.158-.124-.282-.017-.882,0-1.463,0-.829,0-1.181,0-1.41.018-.071,0-.159.088-.194.158a14.847,14.847,0,0,0-.758,2.4c0,.265.035.494.512.6a5.376,5.376,0,0,0,.863.158,1.1,1.1,0,0,1-.052.582c-.458,0-1.216-.053-2.239-.053-.758,0-1.428.053-1.956.053a1.077,1.077,0,0,1,0-.582c1.251-.177,1.481-.317,1.974-1.481" transform="translate(-108.946 -43.39)"/>
    <path id="패스_54" data-name="패스 54" d="M30.122,225.614s-7.927-1.122-13.133,4.01a1.9,1.9,0,1,0,2.782,2.579h0l.015-.022a1.909,1.909,0,0,0,.132-.187,17.248,17.248,0,0,1,10.2-6.382" transform="translate(-8.092 -3.945)" fill="#b2000d"/>
    <path id="패스_55" data-name="패스 55" d="M29.526,230.186a2.1,2.1,0,0,0-1.262-.366h0A24.144,24.144,0,0,0,5.211,246.087,26.993,26.993,0,0,1,11,239.964c5.039-3.622,10.983-2.441,12.148-2.161a1.74,1.74,0,0,0,.175.044l.029.008h0a1.769,1.769,0,0,0,.765-3.451,23.989,23.989,0,0,1,4.329-.355v-.008a2.112,2.112,0,0,0,1.082-3.854" transform="translate(0 -7.059)" fill="#05133b"/>
    <path id="패스_56" data-name="패스 56" d="M19.212,221.917a1.865,1.865,0,1,1-1.865-1.865,1.866,1.866,0,0,1,1.865,1.865" transform="translate(-7.424)" fill="#b2000d"/>
  </g>
</svg>
