<svg xmlns="http://www.w3.org/2000/svg" width="77" height="77" viewBox="0 0 77 77">
  <g id="popup_02_icon_03_on" transform="translate(-988 -1087)">
    <rect id="사각형_763" data-name="사각형 763" width="77" height="77" rx="27" transform="translate(988 1087)" fill="#fff"/>
    <g id="그룹_1929" data-name="그룹 1929" transform="translate(0.111 533.175)">
      <g id="그룹_1915" data-name="그룹 1915">
        <g id="그룹_1914" data-name="그룹 1914">
          <path id="패스_19655" data-name="패스 19655" d="M1038.2,576.825h-28.231a4.078,4.078,0,0,0-4.078,4.078v17.778a4.078,4.078,0,0,0,4.078,4.078H1038.2a4.078,4.078,0,0,0,4.078-4.078V580.9A4.078,4.078,0,0,0,1038.2,576.825Zm-8.866,13.66-9.1,5.778a.82.82,0,0,1-1.26-.692V584.013a.82.82,0,0,1,1.26-.692l9.1,5.778A.822.822,0,0,1,1029.332,590.485Z" fill="#2b5bdf"/>
        </g>
      </g>
      <path id="패스_19656" data-name="패스 19656" d="M1043.538,580.994a4.07,4.07,0,0,1,.277,1.448V600.22a4.077,4.077,0,0,1-4.078,4.077h-28.232a4.027,4.027,0,0,1-1.447-.277,4.069,4.069,0,0,0,3.8,2.631h28.231a4.078,4.078,0,0,0,4.078-4.078V584.795A4.07,4.07,0,0,0,1043.538,580.994Z" fill="#8ebbfe"/>
    </g>
  </g>
</svg>
