<svg xmlns="http://www.w3.org/2000/svg" width="77" height="77" viewBox="0 0 77 77">
  <g id="popup_02_icon_04_on" transform="translate(-1282 -1087)">
    <rect id="사각형_764" data-name="사각형 764" width="77" height="77" rx="27" transform="translate(1282 1087)" fill="#fff"/>
    <g id="그룹_1921" data-name="그룹 1921" transform="translate(1.433 531.333)">
      <g id="그룹_1918" data-name="그룹 1918">
        <path id="패스_19657" data-name="패스 19657" d="M1323.037,574.667H1309.3a4.562,4.562,0,0,0-4.562,4.562v29.119a4.562,4.562,0,0,0,4.562,4.562h24.363a4.563,4.563,0,0,0,4.562-4.562V589.857A15.191,15.191,0,0,0,1323.037,574.667Zm-3.2,27.722h-13.444V591.834h13.444Z" fill="#2b5bdf"/>
      </g>
      <g id="그룹_1919" data-name="그룹 1919">
        <path id="패스_19658" data-name="패스 19658" d="M1320.465,587.868h-15.336a4.561,4.561,0,0,0-4.562,4.562v9.609a4.562,4.562,0,0,0,4.562,4.562h15.336a4.562,4.562,0,0,0,4.562-4.562V592.43A4.561,4.561,0,0,0,1320.465,587.868Zm-2,7.894-5.674,5.025a1.312,1.312,0,0,1-1.783-.042l-2.805-2.727a1.31,1.31,0,1,1,1.827-1.879l1.934,1.88,4.763-4.219a1.311,1.311,0,1,1,1.738,1.962Z" fill="#8ebbfe"/>
      </g>
    </g>
  </g>
</svg>
