<svg xmlns="http://www.w3.org/2000/svg" width="77" height="77" viewBox="0 0 77 77">
  <g id="popup_02_icon_02_on" transform="translate(-696 -1087)">
    <rect id="사각형_762" data-name="사각형 762" width="77" height="77" rx="27" transform="translate(696 1087)" fill="#fff"/>
    <g id="그룹_1928" data-name="그룹 1928" transform="translate(-0.874 532.313)">
      <g id="그룹_1910" data-name="그룹 1910">
        <g id="그룹_1909" data-name="그룹 1909">
          <path id="패스_19650" data-name="패스 19650" d="M740.077,573.687H722.4a2.521,2.521,0,0,0-2.521,2.521V606a2.521,2.521,0,0,0,2.521,2.521h22.779A2.52,2.52,0,0,0,747.7,606v-24.7Zm-6.471,23.4h-7.137a1.25,1.25,0,0,1,0-2.5h7.137a1.25,1.25,0,0,1,0,2.5ZM741.1,590.2H726.469a1.25,1.25,0,0,1,0-2.5H741.1a1.25,1.25,0,0,1,0,2.5Z" fill="#2b5bdf"/>
        </g>
        <path id="패스_19651" data-name="패스 19651" d="M740.077,578.784a2.522,2.522,0,0,0,2.521,2.522h5.1l-7.618-7.619Z" fill="#8ebbfe"/>
      </g>
      <g id="그룹_1911" data-name="그룹 1911">
        <path id="패스_19652" data-name="패스 19652" d="M749.616,595.957l-7.285,11.823.478,3.442L746.1,610.1l7.285-11.823Z" fill="#8ebbfe"/>
        <path id="패스_19653" data-name="패스 19653" d="M754.344,596.725l.591-.959a1.56,1.56,0,0,0-.51-2.148l-1.112-.685a1.56,1.56,0,0,0-2.148.51l-.591.959Z" fill="#8ebbfe"/>
      </g>
    </g>
  </g>
</svg>
