<svg xmlns="http://www.w3.org/2000/svg" width="77" height="77" viewBox="0 0 77 77">
  <g id="popup_02_icon_01_on" transform="translate(-403 -1087)">
    <rect id="사각형_761" data-name="사각형 761" width="77" height="77" rx="27" transform="translate(403 1087)" fill="#fff"/>
    <g id="그룹_1901" data-name="그룹 1901" transform="translate(1.424 536.225)">
      <g id="그룹_1901-2" data-name="그룹 1901">
        <g id="그룹_1900" data-name="그룹 1900">
          <path id="패스_19643" data-name="패스 19643" d="M455.111,600.58H428.319a2.906,2.906,0,0,0,0,5.812h2.659v-2.746h9.6v2.746h14.529Z" fill="#8ebbfe"/>
        </g>
        <path id="패스_19644" data-name="패스 19644" d="M438,609.866l-2.4-1.039-2.4,1.039v-4.63H438Z" fill="#2b5bdf"/>
      </g>
      <g id="그룹_1903" data-name="그룹 1903">
        <g id="그룹_1902" data-name="그룹 1902">
          <path id="패스_19645" data-name="패스 19645" d="M428.265,569.775a3.689,3.689,0,0,0-3.689,3.689v27.348a5.448,5.448,0,0,1,4.51-1.988h26.353V569.775Zm17.824,15.85h0a1.581,1.581,0,0,1,.628,2.194l-.287.5a1.632,1.632,0,0,1-2.227.6,1.563,1.563,0,0,0-2.085.506,1.46,1.46,0,0,0-.22.815,1.685,1.685,0,0,1-1.686,1.676h-.424a1.685,1.685,0,0,1-1.686-1.676,1.46,1.46,0,0,0-.22-.815,1.564,1.564,0,0,0-2.085-.507,1.631,1.631,0,0,1-2.227-.6l-.287-.5a1.581,1.581,0,0,1,.628-2.194,1.439,1.439,0,0,0,.761-1.269v-.111a1.446,1.446,0,0,0-.76-1.273h0a1.587,1.587,0,0,1-.624-2.2l.246-.427a1.705,1.705,0,0,1,2.326-.627,1.352,1.352,0,0,0,1.358.034l.172-.1a1.411,1.411,0,0,0,.708-1.223v-.059a1.686,1.686,0,0,1,1.687-1.686h.432a1.686,1.686,0,0,1,1.687,1.686v.059a1.411,1.411,0,0,0,.708,1.223l.172.1a1.348,1.348,0,0,0,1.335-.021,1.725,1.725,0,0,1,2.349.614l.269.465a1.544,1.544,0,0,1-.6,2.134,1.535,1.535,0,0,0-.808,1.344v.068A1.434,1.434,0,0,0,446.089,585.625Z" fill="#2b5bdf"/>
        </g>
        <circle id="타원_491" data-name="타원 491" cx="2.7" cy="2.7" r="2.7" transform="translate(437.301 581.599)" fill="#2b5bdf"/>
      </g>
    </g>
  </g>
</svg>
