<svg xmlns="http://www.w3.org/2000/svg" width="44" height="44.001" viewBox="0 0 44 44.001">
  <g id="icon-kkoch" transform="translate(-1731 -891)">
    <rect id="사각형_38" data-name="사각형 38" width="44" height="44" transform="translate(1731 891)" fill="#fff" opacity="0"/>
    <path id="패스_374" data-name="패스 374" d="M687.979,44.381c-10.494,0-19,7.868-19,17.574,0,7.168,3,10.59,7.115,13.71l.019.009v8.412a.483.483,0,0,0,.772.387l7.2-5.351.156.067a20.635,20.635,0,0,0,3.734.34c10.494,0,19-7.869,19-17.574s-8.506-17.574-19-17.574M681.61,66.408a3.97,3.97,0,0,0,3.936-2.837H688.3a6.592,6.592,0,0,1-6.69,5.487,7.123,7.123,0,1,1,0-14.247,6.6,6.6,0,0,1,6.71,5.589h-2.747a3.918,3.918,0,0,0-3.962-2.976,4.3,4.3,0,0,0-4.471,4.511,4.411,4.411,0,0,0,4.471,4.473m18.152,2.377h-2.525V63.091a1.813,1.813,0,0,0-1.937-2.016c-1.311,0-2.152.8-2.152,2.426v5.284h-2.525V54.856h2.525V60.1a3.237,3.237,0,0,1,2.916-1.369A3.463,3.463,0,0,1,698.7,59.8a4.062,4.062,0,0,1,1.058,2.975Z" transform="translate(1065.021 850.431)" fill="#000100"/>
  </g>
</svg>
