<svg xmlns="http://www.w3.org/2000/svg" width="15" height="15" viewBox="0 0 15 15">
  <g id="icon-phone-gn" transform="translate(-0.539)">
    <g id="그룹_213" data-name="그룹 213" transform="translate(0.539 0)">
      <path id="패스_376" data-name="패스 376" d="M15.146,11.009l-2.1-2.093a1.4,1.4,0,0,0-2.322.523,1.428,1.428,0,0,1-1.648.9,6.462,6.462,0,0,1-3.9-3.888,1.354,1.354,0,0,1,.9-1.645,1.391,1.391,0,0,0,.524-2.318L4.507.393a1.5,1.5,0,0,0-2.023,0L1.061,1.813c-1.423,1.5.15,5.458,3.671,8.971s7.492,5.159,8.99,3.663l1.423-1.42A1.491,1.491,0,0,0,15.146,11.009Z" transform="translate(-0.539 0)" fill="#26be63"/>
    </g>
  </g>
</svg>
