<svg xmlns="http://www.w3.org/2000/svg" width="40" height="40" viewBox="0 0 40 40">
  <g id="but-line" transform="translate(-1774 -674)">
    <circle id="타원_54" data-name="타원 54" cx="20" cy="20" r="20" transform="translate(1774 674)" fill="#00c300"/>
    <path id="합치기_3" data-name="합치기 3" d="M12.6,25.33a.444.444,0,0,1-.359-.139.971.971,0,0,1-.068-.738l.005-.029c.034-.2.189-1.129.19-1.138a2.535,2.535,0,0,0-.043-1.2c-.148-.365-.72-.558-1.174-.655A15.4,15.4,0,0,1,6.705,20.16a13.013,13.013,0,0,1-3.533-2.369A10.5,10.5,0,0,1,.841,14.58,9,9,0,0,1,0,10.787C0,4.839,5.981,0,13.333,0S26.667,4.839,26.667,10.787a8.473,8.473,0,0,1-.7,3.419,11.541,11.541,0,0,1-2.154,3.218,33.8,33.8,0,0,1-5.753,4.838,35.638,35.638,0,0,1-4.722,2.879A2.022,2.022,0,0,1,12.6,25.33ZM18.869,7.649a.7.7,0,0,0-.7.7v2.64h0v2.641a.7.7,0,0,0,.7.7h2.65a.7.7,0,1,0,0-1.395h-1.95V11.684h1.95a.7.7,0,1,0,0-1.394h-1.95V9.043h1.95a.7.7,0,1,0,0-1.394Zm-5.611,2.711h0l2.714,3.685a.7.7,0,0,0,.781.243.7.7,0,0,0,.478-.661V8.346a.7.7,0,0,0-1.4,0v3.268L13.118,7.928a.7.7,0,0,0-1.258.419v5.282a.7.7,0,0,0,1.4,0V10.361Zm-3.1-2.711a.7.7,0,0,0-.7.7v5.282a.7.7,0,0,0,1.4,0V8.346A.7.7,0,0,0,10.155,7.649Zm-4.691,0a.7.7,0,0,0-.7.7v5.282a.7.7,0,0,0,.7.7H8.114a.7.7,0,1,0,0-1.395H6.164V8.346A.7.7,0,0,0,5.465,7.649Z" transform="translate(1780.667 682.333)" fill="#fff"/>
  </g>
</svg>
