<svg xmlns="http://www.w3.org/2000/svg" xmlns:xlink="http://www.w3.org/1999/xlink" width="40" height="40" viewBox="0 0 40 40">
  <defs>
    <radialGradient id="radial-gradient" cx="0.212" cy="1.081" r="1.398" gradientTransform="translate(0)" gradientUnits="objectBoundingBox">
      <stop offset="0" stop-color="#f9ed32"/>
      <stop offset="0.36" stop-color="#ee2a7b"/>
      <stop offset="0.44" stop-color="#d22a8a"/>
      <stop offset="0.6" stop-color="#8b2ab2"/>
      <stop offset="0.796" stop-color="#4251a1"/>
      <stop offset="1" stop-color="#4251a1"/>
    </radialGradient>
  </defs>
  <g id="but-insta" transform="translate(24214 12584)">
    <circle id="타원_56" data-name="타원 56" cx="20" cy="20" r="20" transform="translate(-24214 -12584)" fill="url(#radial-gradient)"/>
    <g id="그룹_186" data-name="그룹 186" transform="translate(-24205.332 -12575.328)">
      <path id="패스_364" data-name="패스 364" d="M708.618,784.51h-9.773a6.675,6.675,0,0,0-6.675,6.673v9.774a6.675,6.675,0,0,0,6.675,6.675h9.773a6.674,6.674,0,0,0,6.676-6.675v-9.774a6.674,6.674,0,0,0-6.676-6.673m4.546,16.621a4.431,4.431,0,0,1-4.432,4.43h-10a4.431,4.431,0,0,1-4.429-4.43v-10a4.431,4.431,0,0,1,4.429-4.432h10a4.432,4.432,0,0,1,4.432,4.432Z" transform="translate(-692.17 -784.51)" fill="#fff"/>
      <path id="패스_365" data-name="패스 365" d="M706.72,793.148a6,6,0,1,0,6,6,6,6,0,0,0-6-6m0,9.89a3.89,3.89,0,1,1,3.89-3.89,3.89,3.89,0,0,1-3.89,3.89" transform="translate(-695.163 -787.541)" fill="#fff"/>
      <path id="패스_366" data-name="패스 366" d="M718.725,790.649a1.4,1.4,0,1,0,1.4,1.4,1.4,1.4,0,0,0-1.4-1.4" transform="translate(-700.986 -786.668)" fill="#fff"/>
    </g>
  </g>
</svg>
