<svg xmlns="http://www.w3.org/2000/svg" width="40" height="40" viewBox="0 0 40 40">
  <g id="but-youtube" transform="translate(24181 12584)">
    <circle id="타원_54" data-name="타원 54" cx="20" cy="20" r="20" transform="translate(-24181 -12584)" fill="#ce1312"/>
    <g id="Youtube_1_" transform="translate(-24172.43 -12572.572)">
      <path id="Youtube" d="M22.629,22.239A5.191,5.191,0,0,0,21.72,19.9a3.214,3.214,0,0,0-2.29-1c-3.2-.238-8-.238-8-.238h-.01s-4.8,0-8,.238a3.215,3.215,0,0,0-2.291,1,5.187,5.187,0,0,0-.908,2.337A36.679,36.679,0,0,0,0,26.05v1.787a36.66,36.66,0,0,0,.229,3.811,5.186,5.186,0,0,0,.908,2.337,3.807,3.807,0,0,0,2.521,1.007c1.829.181,7.771.237,7.771.237s4.8-.007,8-.246a3.218,3.218,0,0,0,2.29-1,5.191,5.191,0,0,0,.909-2.337,36.662,36.662,0,0,0,.229-3.811V26.05A36.679,36.679,0,0,0,22.629,22.239ZM9.069,30V23.386L15.244,26.7Z" transform="translate(0 -18.667)" fill="#fff" fill-rule="evenodd"/>
    </g>
  </g>
</svg>
