<svg xmlns="http://www.w3.org/2000/svg" xmlns:xlink="http://www.w3.org/1999/xlink" width="40" height="40" viewBox="0 0 40 40">
  <defs>
    <clipPath id="clip-path">
      <circle id="타원_262" data-name="타원 262" cx="20" cy="20" r="20" transform="translate(1658 630)" fill="#00c300"/>
    </clipPath>
  </defs>
  <g id="but-band" transform="translate(-1658 -630)" clip-path="url(#clip-path)">
    <g id="그룹_1993" data-name="그룹 1993" transform="translate(1203.191 167.927)">
      <path id="패스_19876" data-name="패스 19876" d="M494.809,494.746a7.3,7.3,0,0,1-7.273,7.327H462.083a7.3,7.3,0,0,1-7.274-7.327V469.4a7.3,7.3,0,0,1,7.274-7.329h25.453a7.3,7.3,0,0,1,7.273,7.329Z" fill="#5b5c64"/>
      <path id="패스_19877" data-name="패스 19877" d="M488.332,474.575H469.587a5.24,5.24,0,0,0-5.1,5.353,5.152,5.152,0,0,0,5.1,5.306h18.745a5.152,5.152,0,0,0,5.1-5.306,5.24,5.24,0,0,0-5.1-5.353m-.119,9.913H469.707a4.589,4.589,0,0,1,0-9.173h18.505a4.589,4.589,0,0,1,0,9.173m-16.024-4.7a1.421,1.421,0,0,0,.613-1.264,1.607,1.607,0,0,0-1.726-1.632h-1.818a.847.847,0,0,0-.876.894v4.257a.837.837,0,0,0,.876.889H471.1a1.672,1.672,0,0,0,1.855-1.782,1.424,1.424,0,0,0-.765-1.362m-2.549-1.635h1.249c.457,0,.652.162.652.549s-.211.562-.652.562H469.64Zm1.331,3.53H469.64v-1.261h1.346c.321,0,.7.11.7.631,0,.429-.229.63-.718.63m6.227-4.017a1.19,1.19,0,0,0-2.285,0l-1.537,4.4a.674.674,0,0,0,.351.84.544.544,0,0,0,.228.045.646.646,0,0,0,.592-.417l.427-1.29h2.148l.425,1.29a.613.613,0,0,0,.584.411.583.583,0,0,0,.235-.049.672.672,0,0,0,.352-.83Zm-1.842,2.409.629-1.9a.075.075,0,0,1,.065-.049.063.063,0,0,1,.058.051l.622,1.893Zm11.9-3.183h-1.238a.819.819,0,0,0-.875.874v4.277a.843.843,0,0,0,.875.889h1.238a2.523,2.523,0,0,0,2.759-2.6,6.958,6.958,0,0,0-.009-.91,2.487,2.487,0,0,0-2.75-2.529m1.491,3.387a1.311,1.311,0,0,1-1.467,1.378h-.878v-3.494h.878a1.324,1.324,0,0,1,1.477,1.441,6.388,6.388,0,0,1-.009.674m-5.051-3.423a.636.636,0,0,0-.625.663v3.539L481.09,477.4a.98.98,0,0,0-.881-.527.95.95,0,0,0-.959,1.026v4.41a.664.664,0,0,0,.633.67.639.639,0,0,0,.619-.67V478.66l2.049,3.757a1,1,0,0,0,.9.548.9.9,0,0,0,.874-.954V477.52a.636.636,0,0,0-.625-.663" transform="translate(-4.147 -1.358)" fill="#fff"/>
      <rect id="사각형_621" data-name="사각형 621" width="40" height="6.691" transform="translate(454.811 487.478)" fill="#68bf7e"/>
    </g>
  </g>
</svg>
