<svg xmlns="http://www.w3.org/2000/svg" width="32" height="32" viewBox="0 0 32 32">
  <g id="그룹_102" data-name="그룹 102" transform="translate(-805.006 -931.006)">
    <rect id="사각형_90" data-name="사각형 90" width="32" height="32" rx="5" transform="translate(805.006 931.006)" fill="#ffe900"/>
    <path id="패스_85" data-name="패스 85" d="M321.611,2437.741c-4.693,0-8.5,3.008-8.5,6.717a6.564,6.564,0,0,0,4.031,5.716c-.178.663-.644,2.4-.737,2.776-.116.462.169.456.356.332.146-.1,2.328-1.581,3.27-2.222a10.7,10.7,0,0,0,1.577.116c4.693,0,8.5-3.007,8.5-6.718S326.3,2437.741,321.611,2437.741Z" transform="translate(499.692 -1498.154)" fill="#381e1f"/>
  </g>
</svg>
