<svg xmlns="http://www.w3.org/2000/svg" width="63" height="63" viewBox="0 0 63 63">
  <g id="popup_01_icon_04_off" transform="translate(-1282 -1091)">
    <rect id="사각형_764" data-name="사각형 764" width="63" height="63" rx="20" transform="translate(1282 1091)" fill="#eceef5"/>
    <g id="그룹_1898" data-name="그룹 1898" transform="translate(1296.728 1108.182)">
      <path id="패스_19640" data-name="패스 19640" d="M1300.843,577.8v19.646a2,2,0,0,0,1.938,2.191,28.956,28.956,0,0,0,5.305.272c4.905,0,8.255.62,8.255,3.1V579.038a2.219,2.219,0,0,0-.6-1.529c-.944-1-3.1-2.631-7.152-2.631-3.119,0-5.028.2-6.548.943A2.2,2.2,0,0,0,1300.843,577.8Z" transform="translate(-1300.843 -574.878)" fill="#c2c6d6"/>
      <path id="패스_19641" data-name="패스 19641" d="M1337.564,577.8v19.646a2,2,0,0,1-1.937,2.191,28.955,28.955,0,0,1-5.305.272c-4.905,0-8.256.62-8.256,3.1V579.038a2.22,2.22,0,0,1,.6-1.529c.944-1,3.1-2.631,7.152-2.631,3.119,0,5.028.2,6.548.943A2.2,2.2,0,0,1,1337.564,577.8Z" transform="translate(-1304.702 -574.878)" fill="#cfd5e8"/>
    </g>
  </g>
</svg>
