<svg xmlns="http://www.w3.org/2000/svg" width="63" height="63" viewBox="0 0 63 63">
  <g id="popup_01_icon_02_on" transform="translate(-696 -1087)">
    <rect id="사각형_762" data-name="사각형 762" width="63" height="63" rx="20" transform="translate(696 1087)" fill="#fff"/>
    <g id="그룹_1925" data-name="그룹 1925" transform="translate(709.909 1103.364)">
      <g id="그룹_1889" data-name="그룹 1889" transform="translate(0 0)">
        <g id="그룹_1888" data-name="그룹 1888">
          <path id="패스_19633" data-name="패스 19633" d="M745.5,592.341l-13.323,2.007a2.33,2.33,0,0,1-.683,0l-13.323-2.007a2.292,2.292,0,0,0-2.633,2.266v6.842a2.292,2.292,0,0,0,2.292,2.292h28.012a2.292,2.292,0,0,0,2.292-2.292v-6.842A2.292,2.292,0,0,0,745.5,592.341Z" transform="translate(-714.308 -574.102)" fill="#2b5bdf"/>
          <path id="패스_19634" data-name="패스 19634" d="M741.281,577.239a1.221,1.221,0,0,1-.867-.36l-3.77-3.769a2.043,2.043,0,0,0-1.446-.6h-3.517a2.046,2.046,0,0,0-1.447.6l-3.769,3.769a1.227,1.227,0,0,1-1.735-1.735l4.488-4.488a2.046,2.046,0,0,1,1.447-.6h5.55a2.046,2.046,0,0,1,1.447.6l4.41,4.411a1.3,1.3,0,0,1,.134,1.753A1.224,1.224,0,0,1,741.281,577.239Z" transform="translate(-715.914 -570.055)" fill="#8ebbfe"/>
          <path id="패스_19635" data-name="패스 19635" d="M747.112,587.647l-15.234,2.134a2.3,2.3,0,0,1-.636,0l-15.234-2.134a2.292,2.292,0,0,1-1.973-2.27V578.07a2.292,2.292,0,0,1,2.292-2.292h30.467a2.292,2.292,0,0,1,2.292,2.292v7.308A2.292,2.292,0,0,1,747.112,587.647Z" transform="translate(-714.035 -571.096)" fill="#2b5bdf"/>
        </g>
      </g>
      <rect id="사각형_847" data-name="사각형 847" width="2.981" height="7.695" rx="1.375" transform="translate(15.991 15.642)" fill="#8ebbfe"/>
    </g>
  </g>
</svg>
