<svg xmlns="http://www.w3.org/2000/svg" width="63" height="63" viewBox="0 0 63 63">
  <g id="popup_01_icon_02_off" transform="translate(-696 -1092)">
    <rect id="사각형_762" data-name="사각형 762" width="63" height="63" rx="20" transform="translate(696 1092)" fill="#eceef5"/>
    <g id="그룹_1890" data-name="그룹 1890" transform="translate(709.946 1107.408)">
      <g id="그룹_1889" data-name="그룹 1889" transform="translate(0)">
        <g id="그룹_1888" data-name="그룹 1888">
          <path id="패스_19633" data-name="패스 19633" d="M745.578,592.341l-13.359,2.012a2.338,2.338,0,0,1-.685,0l-13.359-2.012a2.3,2.3,0,0,0-2.64,2.273v6.861a2.3,2.3,0,0,0,2.3,2.3h28.088a2.3,2.3,0,0,0,2.3-2.3v-6.861A2.3,2.3,0,0,0,745.578,592.341Z" transform="translate(-714.304 -574.053)" fill="#c2c6d6"/>
          <path id="패스_19634" data-name="패스 19634" d="M741.327,577.258a1.224,1.224,0,0,1-.87-.361l-3.78-3.78a2.048,2.048,0,0,0-1.45-.6H731.7a2.052,2.052,0,0,0-1.451.6l-3.779,3.78a1.23,1.23,0,0,1-1.74-1.74l4.5-4.5a2.052,2.052,0,0,1,1.45-.6h5.565a2.052,2.052,0,0,1,1.45.6l4.422,4.423a1.305,1.305,0,0,1,.135,1.758A1.228,1.228,0,0,1,741.327,577.258Z" transform="translate(-715.891 -570.055)" fill="#cfd5e8"/>
          <path id="패스_19635" data-name="패스 19635" d="M747.2,587.679l-15.275,2.14a2.3,2.3,0,0,1-.638,0l-15.275-2.14a2.3,2.3,0,0,1-1.979-2.276v-7.328a2.3,2.3,0,0,1,2.3-2.3h30.549a2.3,2.3,0,0,1,2.3,2.3V585.4A2.3,2.3,0,0,1,747.2,587.679Z" transform="translate(-714.035 -571.083)" fill="#c2c6d6"/>
        </g>
      </g>
      <rect id="사각형_847" data-name="사각형 847" width="2.989" height="7.716" rx="1.375" transform="translate(16.034 15.684)" fill="#cfd5e8"/>
    </g>
  </g>
</svg>
