<svg xmlns="http://www.w3.org/2000/svg" width="63" height="63" viewBox="0 0 63 63">
  <g id="popup_01_icon_03_on" transform="translate(-988 -1087)">
    <rect id="사각형_763" data-name="사각형 763" width="63" height="63" rx="20" transform="translate(988 1087)" fill="#fff"/>
    <g id="그룹_1926" data-name="그룹 1926" transform="translate(998.636 1105)">
      <g id="그룹_1893" data-name="그룹 1893" transform="translate(0 10.399)">
        <path id="패스_19637" data-name="패스 19637" d="M1021.133,600.771c-8.712,3.652-12.885,1.669-13.865,1.057a.86.86,0,0,1-.33-.39l-5.542-12.8c-.439-.019-.893-.043-1.369-.076a.864.864,0,0,0-.857,1.208l5.867,13.55a.862.862,0,0,0,.331.391c.98.612,5.153,2.594,13.865-1.058,9.486-3.977,11.628-4.988,18.7-4.354a.865.865,0,0,0,.881-1.19l-.327-.8C1032.446,595.93,1029.99,597.058,1021.133,600.771Z" transform="translate(-999.097 -588.561)" fill="#8ebbfe"/>
      </g>
      <g id="그룹_1894" data-name="그룹 1894" transform="translate(2.635)">
        <path id="패스_19638" data-name="패스 19638" d="M1042.036,590.938l-5.629-13.7a.868.868,0,0,0-.407-.444c-1.105-.576-5.344-2.236-13.1,1-8.694,3.622-10.786,5.465-19.65,4.927a.872.872,0,0,0-.857,1.215l5.868,13.5a.842.842,0,0,0,.331.387c.98.6,5.153,2.552,13.864-1.173,9.487-4.057,11.629-5.087,18.7-4.511A.872.872,0,0,0,1042.036,590.938ZM1022.21,593.4a6.041,6.041,0,1,1,6-6.041A6.021,6.021,0,0,1,1022.21,593.4Z" transform="translate(-1002.318 -575.852)" fill="#2b5bdf"/>
      </g>
      <g id="그룹_1895" data-name="그룹 1895" transform="translate(19.817 7.973)">
        <path id="패스_19639" data-name="패스 19639" d="M1025.365,591.386c.093-.018.2-.04.32-.067a2.971,2.971,0,0,0,.363-.1,3.649,3.649,0,0,0,.354-.117,2.44,2.44,0,0,0,.317-.15.755.755,0,0,0,.366-.363.5.5,0,0,0-.041-.413.514.514,0,0,0-.441-.3,4.039,4.039,0,0,0-.762.033,5.674,5.674,0,0,1-.612.045,2.208,2.208,0,0,1-.636-.076,1.557,1.557,0,0,1-1.068-.851,1.864,1.864,0,0,1-.183-.541,1.614,1.614,0,0,1,0-.574,1.847,1.847,0,0,1,.209-.565,2.056,2.056,0,0,1,.445-.544l-.137-.266a.5.5,0,0,1-.08-.323.358.358,0,0,1,.194-.209l.6-.342a.321.321,0,0,1,.273-.056.559.559,0,0,1,.216.246l.125.241a4.034,4.034,0,0,1,.5-.162c.166-.042.349-.081.549-.118a.268.268,0,0,1,.325.19l.278.695a.229.229,0,0,1,.008.183c-.023.041-.082.063-.175.068a3.074,3.074,0,0,0-.773.142,3.424,3.424,0,0,0-.619.262,1.184,1.184,0,0,0-.524.475.545.545,0,0,0,.03.492.408.408,0,0,0,.239.2,1.109,1.109,0,0,0,.388.056c.152,0,.317,0,.495-.015s.362-.027.554-.039a3.261,3.261,0,0,1,.564.018,1.994,1.994,0,0,1,.5.128,1.572,1.572,0,0,1,.426.3,1.876,1.876,0,0,1,.351.488,1.658,1.658,0,0,1,.184,1.046,1.835,1.835,0,0,1-.5.974l.166.3a.5.5,0,0,1,.081.323.36.36,0,0,1-.194.209l-.6.342a.321.321,0,0,1-.273.056.55.55,0,0,1-.215-.246l-.133-.237a4.57,4.57,0,0,1-1.1.325.367.367,0,0,1-.206,0,.206.206,0,0,1-.1-.135l-.22-.739Q1025.114,591.436,1025.365,591.386Z" transform="translate(-1023.318 -585.596)" fill="#2b5bdf"/>
      </g>
    </g>
  </g>
</svg>
