<svg id="btn-ttip" xmlns="http://www.w3.org/2000/svg" width="22" height="22" viewBox="0 0 22 22">
  <circle id="타원_57" data-name="타원 57" cx="11" cy="11" r="11" fill="#303038"/>
  <path id="패스_421" data-name="패스 421" d="M3.238-8.18c0-1.036.559-1.727,1.447-1.727S6.116-9.331,6.116-8.3c0,.806-.3,1.283-1.25,2.122A3.564,3.564,0,0,0,3.3-3.065v.74H5.853v-.526c0-.855.263-1.332,1.25-2.22A3.861,3.861,0,0,0,8.665-8.344c0-2.155-1.4-3.7-3.98-3.7S.705-10.5.705-8.344v.164ZM3.3,1.195H5.853V-1.141H3.3Z" transform="translate(6.445 16.425)" fill="#68ffa6"/>
</svg>
