<svg xmlns="http://www.w3.org/2000/svg" width="28" height="28" viewBox="0 0 28 28">
  <g id="but-blog-a" transform="translate(-0.186)">
    <circle id="타원_51" data-name="타원 51" cx="14" cy="14" r="14" transform="translate(0.186)" fill="#04cf5c"/>
    <g id="그룹_187" data-name="그룹 187" transform="translate(2.938 9.019)">
      <path id="패스_370" data-name="패스 370" d="M930.468,792.079v4.861h1.7v-4.91a2.353,2.353,0,0,0-2.522-2.51v1.713S930.468,791.419,930.468,792.079Z" transform="translate(-923.526 -789.521)" fill="#fff"/>
      <path id="패스_371" data-name="패스 371" d="M951.711,799.27c1.493,0,1.7-.665,1.7-.665.012,1.641-1.053,1.543-1.053,1.543h-.464v1.617h.771a2.428,2.428,0,0,0,2.51-2.5v-5.182h-1.727v.526a1.732,1.732,0,0,0-1.481-.661,2.42,2.42,0,0,0-2.376,2.314v.783A2.245,2.245,0,0,0,951.711,799.27Zm.759-3.679a1.053,1.053,0,1,1-1.053,1.053A1.053,1.053,0,0,1,952.469,795.59Z" transform="translate(-933.174 -791.664)" fill="#fff"/>
      <path id="패스_372" data-name="패스 372" d="M939.675,799.334a2.635,2.635,0,1,0-2.854-2.627A2.747,2.747,0,0,0,939.675,799.334Zm0-3.7a1.078,1.078,0,1,1-1.077,1.077A1.077,1.077,0,0,1,939.675,795.63Z" transform="translate(-926.996 -791.728)" fill="#fff"/>
      <path id="패스_373" data-name="패스 373" d="M919.527,796.731a2,2,0,0,0,1.447.612,2.406,2.406,0,0,0,2.4-2.375s.322-2.7-2.252-2.938c0,0-1.183-.012-1.593.685v-2.742s-1.63.022-1.738,0v7.171h1.738Zm1.057-2.984a1,1,0,1,1-1,1A1,1,0,0,1,920.584,793.747Z" transform="translate(-917.79 -789.739)" fill="#fff"/>
    </g>
  </g>
</svg>
