<svg xmlns="http://www.w3.org/2000/svg" width="96" height="96" viewBox="0 0 96 96">
  <g id="icon-empty" transform="translate(-145.474 -336.474)">
    <rect id="사각형_620" data-name="사각형 620" width="96" height="96" transform="translate(145.474 336.474)" fill="rgba(255,255,255,0)"/>
    <g id="그룹_1972" data-name="그룹 1972" transform="translate(163.005 341.54)">
      <g id="google-docs">
        <g id="Docs_3_">
          <g id="그룹_1961" data-name="그룹 1961" transform="translate(0)">
            <g id="그룹_1960" data-name="그룹 1960">
              <g id="그룹_1959" data-name="그룹 1959">
                <g id="그룹_1958" data-name="그룹 1958">
                  <path id="패스_19873" data-name="패스 19873" d="M121.835,21.058l-16.379-4.68L100.777,0H68.019A7.019,7.019,0,0,0,61,7.019V72.846a7.019,7.019,0,0,0,7.019,7.019h46.8a7.019,7.019,0,0,0,7.019-7.019Z" transform="translate(-61)" fill="#09397e"/>
                </g>
              </g>
            </g>
          </g>
          <path id="패스_19874" data-name="패스 19874" d="M286.417,21.058V72.846a7.019,7.019,0,0,1-7.019,7.019H256V0h9.359l4.68,16.379Z" transform="translate(-225.583)" fill="#012559"/>
          <path id="패스_19875" data-name="패스 19875" d="M337.058,21.058H320.68a4.693,4.693,0,0,1-4.68-4.68V0a2.194,2.194,0,0,1,1.638.7L336.356,19.42A2.194,2.194,0,0,1,337.058,21.058Z" transform="translate(-276.223)" fill="#2057a7"/>
          <g id="그룹_1962" data-name="그룹 1962" transform="translate(14.039 32.913)">
            <path id="패스_19876" data-name="패스 19876" d="M181.417,215.68H153.34a2.34,2.34,0,1,1,0-4.68h28.078a2.34,2.34,0,1,1,0,4.68Z" transform="translate(-151 -211)" fill="#fff5f5"/>
          </g>
          <g id="그룹_1963" data-name="그룹 1963" transform="translate(14.039 42.272)">
            <path id="패스_19877" data-name="패스 19877" d="M181.417,275.68H153.34a2.34,2.34,0,1,1,0-4.68h28.078a2.34,2.34,0,1,1,0,4.68Z" transform="translate(-151 -271)" fill="#fff5f5"/>
          </g>
          <g id="그룹_1964" data-name="그룹 1964" transform="translate(14.039 51.632)">
            <path id="패스_19878" data-name="패스 19878" d="M181.417,335.68H153.34a2.34,2.34,0,1,1,0-4.68h28.078a2.34,2.34,0,1,1,0,4.68Z" transform="translate(-151 -331)" fill="#fff5f5"/>
          </g>
          <g id="그룹_1965" data-name="그룹 1965" transform="translate(14.039 60.991)">
            <path id="패스_19879" data-name="패스 19879" d="M172.058,395.68H153.34a2.34,2.34,0,1,1,0-4.68h18.718a2.34,2.34,0,1,1,0,4.68Z" transform="translate(-151 -391)" fill="#fff5f5"/>
          </g>
        </g>
        <g id="Docs_4_" transform="translate(30.417 32.913)">
          <g id="그룹_1970" data-name="그룹 1970" transform="translate(0)">
            <g id="그룹_1966" data-name="그룹 1966" transform="translate(0 28.078)">
              <path id="패스_19880" data-name="패스 19880" d="M256,395.68h4.68a2.34,2.34,0,0,0,0-4.68H256Z" transform="translate(-256 -391)" fill="#e3e7ea"/>
            </g>
            <g id="그룹_1967" data-name="그룹 1967" transform="translate(0 18.718)">
              <path id="패스_19881" data-name="패스 19881" d="M256,335.68h14.039a2.34,2.34,0,1,0,0-4.68H256Z" transform="translate(-256 -331)" fill="#e3e7ea"/>
            </g>
            <g id="그룹_1968" data-name="그룹 1968" transform="translate(0 9.359)">
              <path id="패스_19882" data-name="패스 19882" d="M256,275.68h14.039a2.34,2.34,0,1,0,0-4.68H256Z" transform="translate(-256 -271)" fill="#e3e7ea"/>
            </g>
            <g id="그룹_1969" data-name="그룹 1969">
              <path id="패스_19883" data-name="패스 19883" d="M256,215.68h14.039a2.34,2.34,0,1,0,0-4.68H256Z" transform="translate(-256 -211)" fill="#e3e7ea"/>
            </g>
          </g>
        </g>
      </g>
      <circle id="타원_21" data-name="타원 21" cx="17.5" cy="17.5" r="17.5" transform="translate(42.469 53.934)" fill="#b72937"/>
      <g id="그룹_1971" data-name="그룹 1971" transform="translate(49.859 60.938)">
        <path id="패스_19877-2" data-name="패스 19877" d="M22.292,4.68H2.34A2.34,2.34,0,1,1,2.34,0H22.218a2.4,2.4,0,0,1,2.413,2.34A2.338,2.338,0,0,1,22.292,4.68Z" transform="translate(3.309 0) rotate(45)" fill="#fff5f5"/>
        <path id="패스_19884" data-name="패스 19884" d="M22.292,0H2.34a2.34,2.34,0,1,0,0,4.68H22.218a2.4,2.4,0,0,0,2.413-2.34A2.338,2.338,0,0,0,22.292,0Z" transform="translate(20.726 3.309) rotate(135)" fill="#fff5f5"/>
      </g>
    </g>
  </g>
</svg>
