<svg xmlns="http://www.w3.org/2000/svg" width="179" height="32" viewBox="0 0 179 32">
  <g id="그룹_2076" data-name="그룹 2076" transform="translate(-871 -1213)">
    <path id="다각형_1" data-name="다각형 1" d="M89.163.12a1,1,0,0,1,.673,0L173.57,30.058A1,1,0,0,1,173.233,32H5.767a1,1,0,0,1-.337-1.942Z" transform="translate(1050 1245) rotate(180)" fill="#eceef5"/>
    <g id="그룹_1774" data-name="그룹 1774" transform="translate(940.091 1226.756)">
      <path id="패스_19626" data-name="패스 19626" d="M11153.914,1224.5l19.557,7.154" transform="translate(-11153.914 -1224.496)" fill="none" stroke="#fff" stroke-width="1.4"/>
      <path id="패스_19627" data-name="패스 19627" d="M11173.471,1224.5l-19.557,7.154" transform="translate(-11134.358 -1224.496)" fill="none" stroke="#fff" stroke-width="1.4"/>
    </g>
    <g id="그룹_1775" data-name="그룹 1775" transform="translate(940.091 1221.602)">
      <path id="패스_19626-2" data-name="패스 19626" d="M11153.914,1224.5l19.557,7.154" transform="translate(-11153.914 -1224.496)" fill="none" stroke="#fff" stroke-width="1.4"/>
      <path id="패스_19627-2" data-name="패스 19627" d="M11173.471,1224.5l-19.557,7.154" transform="translate(-11134.358 -1224.496)" fill="none" stroke="#fff" stroke-width="1.4"/>
    </g>
  </g>
</svg>
