<svg xmlns="http://www.w3.org/2000/svg" width="38" height="38" viewBox="0 0 38 38">
  <g id="btn-home" transform="translate(-8 -6)">
    <rect id="사각형_630" data-name="사각형 630" width="38" height="38" transform="translate(8 6)" fill="#fff"/>
    <path id="패스_19887" data-name="패스 19887" d="M20.481,7.131,11.667.419a1.926,1.926,0,0,0-2.335,0L.46,7.131a1.279,1.279,0,0,0-.409,1.4,1.191,1.191,0,0,0,1.167.817H2.328V19.389A1.72,1.72,0,0,0,4.079,21.14H7V15.3a1.171,1.171,0,0,1,1.167-1.167h4.669A1.171,1.171,0,0,1,14,15.3V21.14H16.92a1.72,1.72,0,0,0,1.751-1.751V9.349H19.78a1.269,1.269,0,0,0,1.167-.817A1.192,1.192,0,0,0,20.481,7.131Z" transform="translate(16.016 13.975)" fill="#b72937"/>
  </g>
</svg>
