<svg xmlns="http://www.w3.org/2000/svg" xmlns:xlink="http://www.w3.org/1999/xlink" width="163.683" height="163.683" viewBox="0 0 163.683 163.683">
  <defs>
    <clipPath id="clip-path">
      <circle id="타원_11" data-name="타원 11" cx="66.167" cy="66.167" r="66.167" transform="translate(0 0)" fill="none"/>
    </clipPath>
  </defs>
  <g id="그룹_78" data-name="그룹 78" transform="translate(614.09 127.201) rotate(74)" opacity="0.076">
    <g id="그룹_13" data-name="그룹 13" transform="translate(-256.477 432.96)" clip-path="url(#clip-path)">
      <g id="그룹_11" data-name="그룹 11" transform="translate(-55.136 -9.029)">
        <rect id="사각형_30" data-name="사각형 30" width="209.332" height="1.719" transform="translate(1.215 47.262) rotate(45)" fill="#161151"/>
        <rect id="사각형_31" data-name="사각형 31" width="209.332" height="1.719" transform="translate(5.154 43.324) rotate(45)" fill="#161151"/>
        <rect id="사각형_32" data-name="사각형 32" width="209.332" height="1.719" transform="translate(9.093 39.385) rotate(45)" fill="#161151"/>
        <rect id="사각형_33" data-name="사각형 33" width="209.332" height="1.719" transform="translate(13.031 35.447) rotate(45)" fill="#161151"/>
        <rect id="사각형_34" data-name="사각형 34" width="209.332" height="1.719" transform="translate(16.97 31.508) rotate(45)" fill="#161151"/>
        <rect id="사각형_35" data-name="사각형 35" width="209.332" height="1.719" transform="translate(20.908 27.57) rotate(45)" fill="#161151"/>
        <rect id="사각형_36" data-name="사각형 36" width="209.332" height="1.719" transform="translate(24.847 23.631) rotate(45)" fill="#161151"/>
        <rect id="사각형_37" data-name="사각형 37" width="209.332" height="1.719" transform="translate(28.785 19.693) rotate(45)" fill="#161151"/>
        <rect id="사각형_38" data-name="사각형 38" width="209.332" height="1.719" transform="translate(32.724 15.754) rotate(45)" fill="#161151"/>
        <rect id="사각형_39" data-name="사각형 39" width="209.332" height="1.719" transform="translate(36.662 11.816) rotate(45)" fill="#161151"/>
        <rect id="사각형_40" data-name="사각형 40" width="209.332" height="1.719" transform="translate(40.601 7.877) rotate(45)" fill="#161151"/>
        <rect id="사각형_41" data-name="사각형 41" width="209.332" height="1.719" transform="translate(44.539 3.939) rotate(45)" fill="#161151"/>
        <rect id="사각형_42" data-name="사각형 42" width="209.332" height="1.719" transform="translate(48.478 0) rotate(45)" fill="#161151"/>
      </g>
      <g id="그룹_12" data-name="그룹 12" transform="translate(-5.153 -60.544)">
        <rect id="사각형_43" data-name="사각형 43" width="209.332" height="1.719" transform="translate(1.215 47.262) rotate(45)" fill="#161151"/>
        <rect id="사각형_44" data-name="사각형 44" width="209.332" height="1.719" transform="translate(5.154 43.324) rotate(45)" fill="#161151"/>
        <rect id="사각형_45" data-name="사각형 45" width="209.332" height="1.719" transform="translate(9.093 39.385) rotate(45)" fill="#161151"/>
        <rect id="사각형_46" data-name="사각형 46" width="209.332" height="1.719" transform="translate(13.031 35.447) rotate(45)" fill="#161151"/>
        <rect id="사각형_47" data-name="사각형 47" width="209.332" height="1.719" transform="translate(16.97 31.508) rotate(45)" fill="#161151"/>
        <rect id="사각형_48" data-name="사각형 48" width="209.332" height="1.719" transform="translate(20.908 27.57) rotate(45)" fill="#161151"/>
        <rect id="사각형_49" data-name="사각형 49" width="209.332" height="1.719" transform="translate(24.847 23.631) rotate(45)" fill="#161151"/>
        <rect id="사각형_50" data-name="사각형 50" width="209.332" height="1.719" transform="translate(28.785 19.693) rotate(45)" fill="#161151"/>
        <rect id="사각형_51" data-name="사각형 51" width="209.332" height="1.719" transform="translate(32.724 15.754) rotate(45)" fill="#161151"/>
        <rect id="사각형_52" data-name="사각형 52" width="209.332" height="1.719" transform="translate(36.662 11.816) rotate(45)" fill="#161151"/>
        <rect id="사각형_53" data-name="사각형 53" width="209.332" height="1.719" transform="translate(40.601 7.877) rotate(45)" fill="#161151"/>
        <rect id="사각형_54" data-name="사각형 54" width="209.332" height="1.719" transform="translate(44.539 3.939) rotate(45)" fill="#161151"/>
        <rect id="사각형_55" data-name="사각형 55" width="209.332" height="1.719" transform="translate(48.478 0) rotate(45)" fill="#161151"/>
      </g>
    </g>
  </g>
</svg>
