<svg xmlns="http://www.w3.org/2000/svg" xmlns:xlink="http://www.w3.org/1999/xlink" width="235.429" height="235.429" viewBox="0 0 235.429 235.429">
  <defs>
    <clipPath id="clip-path">
      <circle id="타원_11" data-name="타원 11" cx="95.169" cy="95.169" r="95.169" transform="translate(0 0)" fill="none"/>
    </clipPath>
  </defs>
  <g id="그룹_15" data-name="그룹 15" transform="translate(669.847 127.201) rotate(74)" opacity="0.167">
    <g id="그룹_13" data-name="그룹 13" transform="translate(-256.477 432.96)" clip-path="url(#clip-path)">
      <g id="그룹_11" data-name="그룹 11" transform="translate(-79.303 -12.987)">
        <rect id="사각형_30" data-name="사각형 30" width="301.087" height="2.472" transform="translate(1.748 67.979) rotate(45)" fill="#161151"/>
        <rect id="사각형_31" data-name="사각형 31" width="301.087" height="2.472" transform="translate(7.413 62.314) rotate(45)" fill="#161151"/>
        <rect id="사각형_32" data-name="사각형 32" width="301.087" height="2.472" transform="translate(13.078 56.649) rotate(45)" fill="#161151"/>
        <rect id="사각형_33" data-name="사각형 33" width="301.087" height="2.472" transform="translate(18.743 50.984) rotate(45)" fill="#161151"/>
        <rect id="사각형_34" data-name="사각형 34" width="301.087" height="2.472" transform="translate(24.408 45.319) rotate(45)" fill="#161151"/>
        <rect id="사각형_35" data-name="사각형 35" width="301.087" height="2.472" transform="translate(30.073 39.654) rotate(45)" fill="#161151"/>
        <rect id="사각형_36" data-name="사각형 36" width="301.087" height="2.472" transform="translate(35.738 33.989) rotate(45)" fill="#161151"/>
        <rect id="사각형_37" data-name="사각형 37" width="301.087" height="2.472" transform="translate(41.402 28.324) rotate(45)" fill="#161151"/>
        <rect id="사각형_38" data-name="사각형 38" width="301.087" height="2.472" transform="translate(47.067 22.66) rotate(45)" fill="#161151"/>
        <rect id="사각형_39" data-name="사각형 39" width="301.087" height="2.472" transform="translate(52.732 16.995) rotate(45)" fill="#161151"/>
        <rect id="사각형_40" data-name="사각형 40" width="301.087" height="2.472" transform="translate(58.397 11.33) rotate(45)" fill="#161151"/>
        <rect id="사각형_41" data-name="사각형 41" width="301.087" height="2.472" transform="translate(64.062 5.665) rotate(45)" fill="#161151"/>
        <rect id="사각형_42" data-name="사각형 42" width="301.087" height="2.472" transform="translate(69.727 0) rotate(45)" fill="#161151"/>
      </g>
      <g id="그룹_12" data-name="그룹 12" transform="translate(-7.411 -87.082)">
        <rect id="사각형_43" data-name="사각형 43" width="301.087" height="2.472" transform="translate(1.748 67.979) rotate(45)" fill="#161151"/>
        <rect id="사각형_44" data-name="사각형 44" width="301.087" height="2.472" transform="translate(7.413 62.314) rotate(45)" fill="#161151"/>
        <rect id="사각형_45" data-name="사각형 45" width="301.087" height="2.472" transform="translate(13.078 56.649) rotate(45)" fill="#161151"/>
        <rect id="사각형_46" data-name="사각형 46" width="301.087" height="2.472" transform="translate(18.743 50.984) rotate(45)" fill="#161151"/>
        <rect id="사각형_47" data-name="사각형 47" width="301.087" height="2.472" transform="translate(24.408 45.319) rotate(45)" fill="#161151"/>
        <rect id="사각형_48" data-name="사각형 48" width="301.087" height="2.472" transform="translate(30.073 39.654) rotate(45)" fill="#161151"/>
        <rect id="사각형_49" data-name="사각형 49" width="301.087" height="2.472" transform="translate(35.738 33.989) rotate(45)" fill="#161151"/>
        <rect id="사각형_50" data-name="사각형 50" width="301.087" height="2.472" transform="translate(41.402 28.324) rotate(45)" fill="#161151"/>
        <rect id="사각형_51" data-name="사각형 51" width="301.087" height="2.472" transform="translate(47.067 22.66) rotate(45)" fill="#161151"/>
        <rect id="사각형_52" data-name="사각형 52" width="301.087" height="2.472" transform="translate(52.732 16.995) rotate(45)" fill="#161151"/>
        <rect id="사각형_53" data-name="사각형 53" width="301.087" height="2.472" transform="translate(58.397 11.33) rotate(45)" fill="#161151"/>
        <rect id="사각형_54" data-name="사각형 54" width="301.087" height="2.472" transform="translate(64.062 5.665) rotate(45)" fill="#161151"/>
        <rect id="사각형_55" data-name="사각형 55" width="301.087" height="2.472" transform="translate(69.727 0) rotate(45)" fill="#161151"/>
      </g>
    </g>
  </g>
</svg>
