<svg xmlns="http://www.w3.org/2000/svg" width="48.75" height="33.755" viewBox="0 0 48.75 33.755">
  <g id="그룹_2165" data-name="그룹 2165" transform="translate(-261 -1602.333)">
    <path id="패스_19599" data-name="패스 19599" d="M1219.229,823.582l-3.9-3.686-.421-.4h-6.942l-.421.4-3.9,3.686-1.021.966.929,1.055,6.789,7.708,1.093,1.241,1.093-1.241,6.79-7.708.929-1.055Zm-7.79,8.766-2.406-7.708h-4.383l3.9-3.686h5.783l-2.107,3.686h6.005Z" transform="translate(-925.627 782.836)" fill="#1e1e1e"/>
    <g id="그룹_1386" data-name="그룹 1386" transform="translate(261 1623.845)">
      <path id="패스_19594" data-name="패스 19594" d="M1292.484,729.563a3.134,3.134,0,0,1-.417,4.223,4.416,4.416,0,0,1-2.92.877h-5.568V722.71h5.381a4.415,4.415,0,0,1,2.852.834,3.026,3.026,0,0,1,.477,4.019,2.864,2.864,0,0,1-1.473.971A2.781,2.781,0,0,1,1292.484,729.563Zm-5.994-2.017h1.907a1.687,1.687,0,0,0,1.1-.315,1.131,1.131,0,0,0,.383-.928,1.158,1.158,0,0,0-.383-.937,1.659,1.659,0,0,0-1.1-.323h-1.907Zm3.278,4.436a1.18,1.18,0,0,0,.4-.962,1.233,1.233,0,0,0-.417-.988,1.71,1.71,0,0,0-1.149-.357h-2.111v2.639h2.145A1.728,1.728,0,0,0,1289.768,731.982Z" transform="translate(-1283.578 -722.54)" fill="#1e1e1e"/>
      <path id="패스_19595" data-name="패스 19595" d="M1320.537,732.552h-4.461l-.716,2.111h-3.048l4.325-11.953h3.372l4.325,11.953h-3.082Zm-.749-2.248-1.482-4.376-1.464,4.376Z" transform="translate(-1302.301 -722.54)" fill="#1e1e1e"/>
      <path id="패스_19596" data-name="패스 19596" d="M1350.694,734.039a3.829,3.829,0,0,1-1.66-1.26,3.436,3.436,0,0,1-.655-2.009h3.1a1.5,1.5,0,0,0,.459,1.013,1.477,1.477,0,0,0,1.022.349,1.6,1.6,0,0,0,1.022-.3,1,1,0,0,0,.375-.826.978.978,0,0,0-.3-.732,2.4,2.4,0,0,0-.732-.477,11.827,11.827,0,0,0-1.234-.426,13.368,13.368,0,0,1-1.89-.715,3.488,3.488,0,0,1-1.26-1.056,2.941,2.941,0,0,1-.528-1.822,3.133,3.133,0,0,1,1.209-2.614,4.968,4.968,0,0,1,3.15-.945,5.026,5.026,0,0,1,3.184.945,3.383,3.383,0,0,1,1.294,2.631h-3.15a1.232,1.232,0,0,0-.425-.911,1.5,1.5,0,0,0-1.005-.332,1.253,1.253,0,0,0-.851.281,1.015,1.015,0,0,0-.323.809,1,1,0,0,0,.545.9,8.911,8.911,0,0,0,1.7.7,15.812,15.812,0,0,1,1.882.749,3.587,3.587,0,0,1,1.251,1.039,2.782,2.782,0,0,1,.528,1.754,3.442,3.442,0,0,1-.519,1.856,3.64,3.64,0,0,1-1.507,1.328,5.154,5.154,0,0,1-2.333.494A6.151,6.151,0,0,1,1350.694,734.039Z" transform="translate(-1325.799 -722.221)" fill="#1e1e1e"/>
      <path id="패스_19597" data-name="패스 19597" d="M1381.1,722.71v11.953h-2.912V722.71Z" transform="translate(-1345.221 -722.54)" fill="#1e1e1e"/>
      <path id="패스_19598" data-name="패스 19598" d="M1390.73,725.256a5.477,5.477,0,0,1,2.137-2.163,6.2,6.2,0,0,1,3.108-.775,5.946,5.946,0,0,1,3.643,1.124,5.4,5.4,0,0,1,2.027,3.065h-3.2a2.588,2.588,0,0,0-1.013-1.141,2.849,2.849,0,0,0-1.49-.392,2.781,2.781,0,0,0-2.179.937,4.169,4.169,0,0,0,0,5.006,2.779,2.779,0,0,0,2.179.937,2.846,2.846,0,0,0,1.49-.392,2.586,2.586,0,0,0,1.013-1.141h3.2a5.359,5.359,0,0,1-2.027,3.057,5.977,5.977,0,0,1-3.643,1.115,6.2,6.2,0,0,1-3.108-.775,5.489,5.489,0,0,1-2.137-2.154,6.875,6.875,0,0,1,0-6.309Z" transform="translate(-1352.895 -722.285)" fill="#1e1e1e"/>
    </g>
  </g>
</svg>
