<svg xmlns="http://www.w3.org/2000/svg" width="52" height="39" viewBox="0 0 52 39">
  <g id="그룹_2166" data-name="그룹 2166" transform="translate(-200 -1600.333)">
    <g id="그룹_1242" data-name="그룹 1242" transform="translate(216.999 1600.333)">
      <path id="패스_19592" data-name="패스 19592" d="M1211.575,709.734a8.756,8.756,0,1,0,8.755,8.756A8.766,8.766,0,0,0,1211.575,709.734Zm0,16.055a7.3,7.3,0,1,1,7.3-7.3A7.307,7.307,0,0,1,1211.575,725.789Z" transform="translate(-1202.818 -709.734)" fill="#1e1e1e"/>
      <path id="패스_19593" data-name="패스 19593" d="M1226.119,731.828c0-.014-.008-.026-.012-.04a.627.627,0,0,0-.6-.438h-.4l.5-1.988a.659.659,0,0,0-.073-.558.682.682,0,0,0-.438-.279.77.77,0,0,0-.5.054.6.6,0,0,0-.332.448l-.519,2.324h-.943l-.507-2.155a.9.9,0,0,0-.312-.536.844.844,0,0,0-.986,0,.926.926,0,0,0-.3.532l-.543,2.156h-.988l-.52-2.326a.615.615,0,0,0-.34-.458.816.816,0,0,0-.5-.042.69.69,0,0,0-.451.28.663.663,0,0,0-.073.558l.491,1.989h-.41a.627.627,0,0,0-.6.438c0,.013-.009.026-.012.041a.611.611,0,0,0-.021.151v0c0,.005,0,.009,0,.014a.631.631,0,0,0,.017.129c0,.017.01.033.015.05a.628.628,0,0,0,.594.431h.715l.675,2.708a.881.881,0,0,0,.324.548.807.807,0,0,0,.953,0,.862.862,0,0,0,.33-.536l.685-2.72h.859l.628,2.7a.887.887,0,0,0,.324.558.8.8,0,0,0,.949,0,.873.873,0,0,0,.324-.536l.675-2.719h.7a.628.628,0,0,0,.594-.432c.005-.016.011-.032.015-.049a.631.631,0,0,0,.017-.129s0-.009,0-.014v0A.622.622,0,0,0,1226.119,731.828Zm-2.654.78-.176.79-.186-.79Zm-2.1-1.258.128-.5.116.5Zm-1.527,1.258-.206.816-.181-.816Z" transform="translate(-1212.681 -723.034)" fill="#1e1e1e"/>
    </g>
    <text id="무료체험" transform="translate(226 1635.333)" fill="#1e1e1e" font-size="14" font-family="SpoqaHanSansNeo-Bold, Spoqa Han Sans Neo" font-weight="700" letter-spacing="-0.03em"><tspan x="-25.13" y="0">무료체험</tspan></text>
  </g>
</svg>
