<svg xmlns="http://www.w3.org/2000/svg" width="191.993" height="35.154" viewBox="0 0 191.993 35.154">
  <g id="logo_w" transform="translate(1131.678 -756.653)">
    <path id="패스_1" data-name="패스 1" d="M-958.979,789h-.128l-4.263-11.538H-970.9v21.4h4.488V783.014h.192l4.936,13.278h4.039l5-13.278h.128v15.842h4.68v-21.4h-7.341Z" transform="translate(-109.788 -14.207)" fill="#fff"/>
    <path id="패스_2" data-name="패스 2" d="M-880.235,789.49c-5.225,0-8.495,3.327-8.495,8.913,0,5.952,2.917,9,8.623,9,3.462,0,5.225-.824,6.635-1.923l-2.116-3.266a5.621,5.621,0,0,1-3.975,1.556c-3.077,0-4.36-1.5-4.424-4.212h10.8a19.827,19.827,0,0,0,.225-3.083C-872.959,792.268-875.619,789.49-880.235,789.49Zm2.724,7.021h-6.379a3.4,3.4,0,0,1,3.526-3.541c1.955,0,2.853,1.069,2.853,3.083Z" transform="translate(-165.901 -22.423)" fill="#fff"/>
    <path id="패스_3" data-name="패스 3" d="M-824.161,778.138a9.719,9.719,0,0,0-2.981-.366c-3.815,0-7.918,2.351-7.918,9.615,0,5.616,2.789,8,6.6,8a6.359,6.359,0,0,0,4.424-1.679h.128l.769,1.4h3.782V771.972h-4.808Zm.128,12.149a3.568,3.568,0,0,1-2.981,1.465c-1.859,0-3.141-1.4-3.141-4.762,0-4.67,1.731-5.495,3.719-5.495a4.733,4.733,0,0,1,2.4.611Z" transform="translate(-202.551 -10.461)" fill="#fff"/>
    <rect id="사각형_2" data-name="사각형 2" width="4.84" height="17.246" transform="translate(-1018.058 767.403)" fill="#fff"/>
    <path id="패스_4" data-name="패스 4" d="M-771.962,767.738a2.7,2.7,0,0,0-2.757,2.747,2.668,2.668,0,0,0,2.757,2.595,2.7,2.7,0,0,0,2.853-2.595A2.722,2.722,0,0,0-771.962,767.738Z" transform="translate(-243.756 -7.569)" fill="#fff"/>
    <path id="패스_5" data-name="패스 5" d="M-742.678,798.856h4.872v-8.028h7.244v-3.846h-7.244V781.3h8.43v-3.846h-13.3Z" transform="translate(-265.636 -14.207)" fill="#fff"/>
    <path id="패스_6" data-name="패스 6" d="M-687,789.676v-17.7h-4.84v18.895c0,2.869,1.763,4.518,4.712,4.518a6.1,6.1,0,0,0,2.308-.428v-3.632a3.037,3.037,0,0,1-.673.061C-686.388,791.385-687,790.958-687,789.676Z" transform="translate(-300.353 -10.461)" fill="#fff"/>
    <path id="패스_7" data-name="패스 7" d="M-654.8,789.586c-5.995,0-8.334,3.693-8.334,9,0,5.342,1.955,8.883,8.174,8.883,5.995,0,8.367-3.693,8.367-9C-646.592,793.127-648.547,789.586-654.8,789.586Zm0,14.286c-2.436,0-3.366-1.893-3.366-5.464,0-3.51.962-5.22,3.174-5.22,2.5,0,3.43,1.893,3.43,5.464C-651.56,802.162-652.33,803.872-654.8,803.872Z" transform="translate(-319.955 -22.489)" fill="#fff"/>
    <path id="패스_8" data-name="패스 8" d="M-586.687,790.549l-1.923,7.814a43.031,43.031,0,0,0-1.09,5.525h-.128a28.332,28.332,0,0,0-.993-5.464l-1.956-7.875h-4.616l-2.243,8a33.475,33.475,0,0,0-.994,5.342h-.128a40.166,40.166,0,0,0-.929-5.373l-1.923-7.967h-4.841l4.713,17.246h5.545l2.949-11.538h.128l2.4,11.538h5.642l4.68-17.246Z" transform="translate(-357.293 -23.146)" fill="#fff"/>
    <path id="패스_9" data-name="패스 9" d="M-1091.5,763.243c0-.02,0-.039,0-.058s0-.055-.006-.083c0-.005,0-.01,0-.015a1.067,1.067,0,0,0-.3-.594,1.066,1.066,0,0,0-.221-.171l-9.436-5.5a1.067,1.067,0,0,0-1.07,0l-9.042,5.2-9.017-5.215a1.068,1.068,0,0,0-1.064,0l-9.484,5.42h0a1.093,1.093,0,0,0-.1.063l-.022.015c-.025.019-.047.04-.07.061s-.024.02-.035.031-.035.04-.053.06-.027.029-.039.045-.025.038-.038.057-.027.038-.039.059-.017.036-.027.054-.025.046-.035.07-.014.04-.02.059-.018.048-.025.073-.009.044-.013.066-.011.047-.014.071,0,.045,0,.068-.005.048-.005.073h0v0l.013,22.076a1.068,1.068,0,0,0,.53.922l9.436,5.5a1.067,1.067,0,0,0,.538.146,1.07,1.07,0,0,0,.532-.142l9.028-5.189,9.032,5.207a1.067,1.067,0,0,0,.533.143,1.07,1.07,0,0,0,.53-.141l9.484-5.42h0c.024-.014.046-.03.069-.046s.034-.021.05-.033.041-.036.062-.054.03-.025.044-.039.032-.037.048-.055.03-.032.044-.049.022-.034.034-.05.031-.042.044-.065.017-.035.026-.053.025-.047.035-.071.014-.04.021-.06.018-.047.025-.072.009-.044.013-.066.011-.047.014-.071,0-.045,0-.068.005-.048.005-.072h0v0Zm-2.123,20.209-7.313-4.307V769.36l7.3-4.259Zm-1.063-20.208-7.321,4.27-7.429-4.27,7.429-4.271Zm-26.446-4.292,9.018,5.216h0l9.04,5.2V777.9l-17.476-10.178-7.923-4.575Zm-.028,30.535-8.373-4.883-.012-19.6,7.313,4.307v10.4a1.067,1.067,0,0,0,.01.141c0,.026.01.051.015.077s.007.041.012.061a1.113,1.113,0,0,0,.043.126l0,.005a1.039,1.039,0,0,0,.053.108c0,.005.005.011.008.016a1.086,1.086,0,0,0,.069.1l.008.011a1.066,1.066,0,0,0,.071.081c.007.008.013.016.021.024a1,1,0,0,0,.079.07c.009.007.016.016.026.022.024.018.051.035.076.051s.027.019.041.028h0l.015.009,7.938,4.577Zm19.124.022-8.88-5.12a1.062,1.062,0,0,0-.14-.1l-9.04-5.2v-8.532l17.476,10.178,7.923,4.575Z" transform="translate(0 0)" fill="#fff"/>
  </g>
</svg>
