<svg xmlns="http://www.w3.org/2000/svg" width="363.152" height="66.494" viewBox="0 0 363.152 66.494">
  <g id="logo_color" transform="translate(-1228.322 -570.339)">
    <g id="그룹_2" data-name="그룹 2" transform="translate(1324.763 576.988)">
      <path id="패스_10" data-name="패스 10" d="M1411.409,612.969h.243l7.943-21.824h13.885v40.473h-8.852V601.653h-.243l-9.458,25.115h-7.64l-9.337-25.115h-.364v29.965H1389.1V591.145h14.249Z" transform="translate(-1389.096 -585.314)"/>
      <path id="패스_11" data-name="패스 11" d="M1500.131,633.43c-2.667,2.078-6,3.637-12.551,3.637-10.792,0-16.31-5.773-16.31-17.032,0-10.565,6.184-16.859,16.067-16.859,8.731,0,13.764,5.254,13.764,13.222a37.563,37.563,0,0,1-.424,5.831h-20.433c.121,5.138,2.547,7.967,8.367,7.967a10.629,10.629,0,0,0,7.519-2.944Zm-19.706-16.975h12.066v-.866c0-3.81-1.7-5.831-5.4-5.831C1482.972,609.758,1480.547,612.645,1480.425,616.456Z" transform="translate(-1421.978 -590.128)"/>
      <path id="패스_12" data-name="패스 12" d="M1545.555,585.658h9.094v43.765H1547.5l-1.455-2.656h-.243a12.03,12.03,0,0,1-8.367,3.176c-7.215,0-12.49-4.5-12.49-15.127,0-13.741,7.761-18.187,14.977-18.187a18.376,18.376,0,0,1,5.639.693Zm.242,34.642V604.827a8.954,8.954,0,0,0-4.547-1.155c-3.759,0-7.033,1.559-7.033,10.392,0,6.351,2.425,9.007,5.942,9.007A6.747,6.747,0,0,0,1545.8,620.3Z" transform="translate(-1443.453 -583.118)"/>
      <path id="패스_13" data-name="패스 13" d="M1590.5,581.424a5.15,5.15,0,0,1,5.4,5.2,5.1,5.1,0,0,1-5.4,4.908,5.047,5.047,0,0,1-5.214-4.908A5.1,5.1,0,0,1,1590.5,581.424Zm-4.426,13.683h9.155v32.621h-9.155Z" transform="translate(-1467.599 -581.424)"/>
      <path id="패스_14" data-name="패스 14" d="M1617.322,631.618V591.145h25.162v7.274h-15.946v10.739h13.7v7.275h-13.7v15.185Z" transform="translate(-1480.42 -585.314)"/>
      <path id="패스_15" data-name="패스 15" d="M1677.318,585.658v33.487c0,2.425,1.152,3.234,2.85,3.234a5.738,5.738,0,0,0,1.273-.116v6.871a11.549,11.549,0,0,1-4.366.809c-5.578,0-8.912-3.118-8.912-8.545V585.658Z" transform="translate(-1500.764 -583.118)"/>
      <path id="패스_16" data-name="패스 16" d="M1696.867,620.3c0-10.046,4.426-17.033,15.765-17.033,11.823,0,15.522,6.7,15.522,16.8,0,10.046-4.487,17.032-15.825,17.032C1700.565,637.105,1696.867,630.409,1696.867,620.3Zm15.765,9.988c4.668,0,6.123-3.233,6.123-9.873,0-6.755-1.757-10.335-6.487-10.335-4.185,0-6,3.233-6,9.873C1706.265,626.714,1708.024,630.293,1712.632,630.293Z" transform="translate(-1512.25 -590.166)"/>
      <path id="패스_17" data-name="패스 17" d="M1776.528,615.032l-5.578,21.824h-10.489l-8.914-32.621h9.156l3.638,15.07a75.955,75.955,0,0,1,1.757,10.161h.242a63.39,63.39,0,0,1,1.88-10.1l4.243-15.127h8.731l3.7,14.9a53.61,53.61,0,0,1,1.879,10.335h.243a81.46,81.46,0,0,1,2.062-10.451l3.638-14.78h8.124l-8.851,32.621h-10.671l-4.548-21.824Z" transform="translate(-1534.13 -590.552)"/>
    </g>
    <g id="그룹_3" data-name="그룹 3" transform="translate(1228.322 570.339)">
      <path id="패스_18" data-name="패스 18" d="M1248.214,643.635a2.016,2.016,0,0,1-1.017-.275l-17.848-10.41a2.019,2.019,0,0,1-1-1.743l-.025-41.758a2.02,2.02,0,0,1,3.044-1.741l17.873,10.527a2.019,2.019,0,0,1,.994,1.74v19.652l17.1,9.828a2.019,2.019,0,0,1,0,3.5l-18.112,10.41A2.023,2.023,0,0,1,1248.214,643.635Zm-15.83-13.59,15.837,9.237,14.053-8.077-15.066-8.66a2.019,2.019,0,0,1-1.013-1.75V601.129l-13.833-8.147Z" transform="translate(-1228.322 -577.178)" fill="#2b5bdf"/>
      <path id="패스_19" data-name="패스 19" d="M1296.313,650.694a2.019,2.019,0,0,1-1.009-.271l-36.175-20.857a2.02,2.02,0,0,1-1.011-1.749V607a2.019,2.019,0,0,1,3.035-1.745l36.084,21.015,18.025,10.406a2.019,2.019,0,0,1-.008,3.5l-17.94,10.252A2.012,2.012,0,0,1,1296.313,650.694Zm-34.157-24.043,34.161,19.7,13.881-7.932-14.986-8.652-33.055-19.251Z" transform="translate(-1240.245 -584.2)" fill="#2b5bdf"/>
      <path id="패스_20" data-name="패스 20" d="M1326.346,626.605a2.015,2.015,0,0,1-1.025-.28L1307.448,615.8a2.019,2.019,0,0,1-.994-1.74V594.408l-17.1-9.828a2.019,2.019,0,0,1,0-3.5l18.112-10.411a2.019,2.019,0,0,1,2.024.007l17.848,10.41a2.021,2.021,0,0,1,1,1.743l.025,41.757a2.019,2.019,0,0,1-2.019,2.02Zm-15.854-13.7,13.833,8.147-.023-37.064-15.837-9.238-14.053,8.078,15.066,8.659a2.019,2.019,0,0,1,1.013,1.75Z" transform="translate(-1252.338 -570.363)" fill="#2b5bdf"/>
      <path id="패스_21" data-name="패스 21" d="M1284.456,616.055a2.017,2.017,0,0,1-1.016-.275l-36.083-21.015-18.025-10.407a2.019,2.019,0,0,1,.008-3.5l17.94-10.251a2.018,2.018,0,0,1,2.013.005l17.055,9.863,17.1-9.83a2.019,2.019,0,0,1,2.024.007l17.848,10.41a2.019,2.019,0,0,1,0,3.488l-16.846,9.826v19.661a2.02,2.02,0,0,1-2.019,2.019ZM1234.4,582.619l14.987,8.654,33.055,19.251V593.215a2.019,2.019,0,0,1,1-1.744l14.858-8.666-13.848-8.078-17.1,9.828a2.023,2.023,0,0,1-2.017,0l-17.057-9.865Z" transform="translate(-1228.322 -570.339)" fill="#2b5bdf"/>
    </g>
  </g>
</svg>
