<svg xmlns="http://www.w3.org/2000/svg" width="166.213" height="37" viewBox="0 0 166.213 37">
  <g id="logo-header" transform="translate(-85 -22)">
    <rect id="사각형_141" data-name="사각형 141" width="166" height="37" transform="translate(85 22)" fill="#fff" opacity="0"/>
    <g id="그룹_5272" data-name="그룹 5272" transform="translate(-523.578 -304.354)">
      <g id="그룹_5272-2" data-name="그룹 5272" transform="translate(693.856 337.961)">
        <path id="패스_425" data-name="패스 425" d="M768.124,355.78a8.908,8.908,0,0,1,1.69-5.75,5.718,5.718,0,0,1,4.719-1.985,6.6,6.6,0,0,1,2.8.577,5.288,5.288,0,0,1,1.977,1.6,6.923,6.923,0,0,1,1.157,2.468,12.264,12.264,0,0,1,.361,3.188,8.867,8.867,0,0,1-1.7,5.75,5.727,5.727,0,0,1-4.707,1.985,6.657,6.657,0,0,1-2.818-.577,5.192,5.192,0,0,1-1.966-1.6,7.02,7.02,0,0,1-1.146-2.468A12.241,12.241,0,0,1,768.124,355.78Zm3.079.023a10.52,10.52,0,0,0,.176,2.086,5.363,5.363,0,0,0,.576,1.64,2.984,2.984,0,0,0,1.007,1.077,2.745,2.745,0,0,0,1.473.4,2.778,2.778,0,0,0,2.424-1.2,7.047,7.047,0,0,0,.885-3.949,10.721,10.721,0,0,0-.167-2.032,5.66,5.66,0,0,0-.554-1.651,2.957,2.957,0,0,0-1-1.109,3.01,3.01,0,0,0-3.94.826A7.069,7.069,0,0,0,771.2,355.8Z" transform="translate(-768.123 -348.044)" fill="#24a810"/>
        <path id="패스_426" data-name="패스 426" d="M807.367,356.015l.343-2.969h-.128l-.938,2.387-3.227,5.557-.941-.007-3.315-5.627-.923-2.38h-.107l.405,2.953-.058,7.783-2.778-.021.112-14.966,2.672.02,3.947,6.871.693,1.716h.086l.654-1.748,3.834-6.771,2.651.02-.112,14.966-2.929-.022Z" transform="translate(-780.96 -348.36)" fill="#24a810"/>
        <path id="패스_427" data-name="패스 427" d="M827.81,348.952q.9-.164,1.979-.252t2.149-.08a13.955,13.955,0,0,1,2.233.2,5.551,5.551,0,0,1,2.015.742,4.22,4.22,0,0,1,1.454,1.529,5,5,0,0,1,.547,2.537,5.239,5.239,0,0,1-.509,2.38,4.533,4.533,0,0,1-1.316,1.583,5.233,5.233,0,0,1-1.856.885,8.251,8.251,0,0,1-2.151.262l-.342,0q-.236,0-.492-.014c-.172-.009-.338-.02-.5-.036a3.437,3.437,0,0,1-.353-.045l-.038,5.153-2.929-.022Zm4.344,2.193c-.285,0-.556.006-.812.026s-.465.043-.621.07l-.037,4.854a2.524,2.524,0,0,0,.257.045q.171.022.363.034c.129.009.253.012.375.013l.267,0a6.082,6.082,0,0,0,1.144-.1,2.821,2.821,0,0,0,1.019-.388,2.055,2.055,0,0,0,.722-.8,2.919,2.919,0,0,0,.278-1.345,2.377,2.377,0,0,0-.248-1.167,2.105,2.105,0,0,0-.668-.742,2.614,2.614,0,0,0-.949-.392A5.511,5.511,0,0,0,832.154,351.145Z" transform="translate(-795.856 -348.312)" fill="#24a810"/>
        <path id="패스_428" data-name="패스 428" d="M853.782,360.752l-4.6-.035-1.157,3.306L845.1,364l5.5-15.032,2.159.016,5.274,15.113-3.078-.023Zm-3.831-2.381,3.207.023-1.087-3.343-.432-2.356h-.107l-.467,2.37Z" transform="translate(-803.955 -348.475)" fill="#24a810"/>
        <path id="패스_429" data-name="패스 429" d="M875.476,356.389l-1.159-2.36h-.107l.325,2.354-.059,7.8-2.779-.02.113-15.073,2.138.016,5.606,8.017,1.116,2.3h.107l-.326-2.29.059-7.868,2.779.021-.113,15.072-2.138-.016Z" transform="translate(-816.337 -348.532)" fill="#24a810"/>
        <path id="패스_430" data-name="패스 430" d="M900.552,358.915l-4.846-9.444,3.485.026,2.694,5.643.288,1.584h.107l.333-1.622,2.693-5.56,3.143.023-4.966,9.349-.042,5.58-2.929-.022Z" transform="translate(-827.513 -348.709)" fill="#24a810"/>
      </g>
      <g id="그룹_5274" data-name="그룹 5274" transform="translate(608.579 338.461)">
        <g id="그룹_5273" data-name="그룹 5273" transform="translate(0 0)">
          <path id="패스_431" data-name="패스 431" d="M608.691,348.98l9.79.073-.019,2.608-6.558-.049-.028,3.7,6.039.045-.019,2.608-6.039-.045-.046,6.05-3.232-.024Z" transform="translate(-608.579 -348.98)" fill="#515151"/>
          <path id="패스_432" data-name="패스 432" d="M631.728,349.152l3.232.025-.112,14.965-3.232-.024Z" transform="translate(-619.303 -349.06)" fill="#515151"/>
          <path id="패스_433" data-name="패스 433" d="M647.74,356.342l-1.28-2.361h-.118l.36,2.354-.059,7.8-3.066-.023.113-15.073,2.359.018,6.192,8.022,1.233,2.3h.118l-.36-2.29.059-7.868,3.066.023-.113,15.072-2.359-.018Z" transform="translate(-624.87 -349.009)" fill="#515151"/>
          <path id="패스_434" data-name="패스 434" d="M672.685,349.3q.5-.06,1.121-.1t1.286-.054q.661-.016,1.286-.022t1.121,0a11.2,11.2,0,0,1,3.747.584,6.437,6.437,0,0,1,2.512,1.579,6.1,6.1,0,0,1,1.4,2.405,9.91,9.91,0,0,1,.425,3.06,10.069,10.069,0,0,1-.447,2.926,6.416,6.416,0,0,1-1.432,2.49,7.089,7.089,0,0,1-2.621,1.734,10.58,10.58,0,0,1-4,.633q-.378,0-1-.029t-1.3-.063l-1.285-.074c-.409-.025-.715-.052-.919-.082Zm5.054,2.433q-.519,0-1.05.013a7.1,7.1,0,0,0-.791.058l-.075,10.027a2.081,2.081,0,0,0,.319.035l.483.025.495.025q.236.012.354.013a5.223,5.223,0,0,0,2.28-.421,3.769,3.769,0,0,0,1.447-1.155,4.461,4.461,0,0,0,.756-1.673,8.968,8.968,0,0,0,.227-1.955,8.5,8.5,0,0,0-.175-1.765,4.191,4.191,0,0,0-.684-1.6,3.8,3.8,0,0,0-1.372-1.165A4.822,4.822,0,0,0,677.74,351.736Z" transform="translate(-638.368 -349.047)" fill="#515151"/>
        </g>
      </g>
      <g id="그룹_5277" data-name="그룹 5277" transform="translate(660.465 326.382)">
        <g id="그룹_5275" data-name="그룹 5275">
          <path id="패스_435" data-name="패스 435" d="M726.625,327.5a15.242,15.242,0,1,0,7.436,21.76l-4.319-1.752a10.933,10.933,0,1,1,1.5-3.5l4.3,1.745A15.243,15.243,0,0,0,726.625,327.5Z" transform="translate(-705.653 -326.382)" fill="#24a810"/>
        </g>
        <path id="패스_436" data-name="패스 436" d="M729.556,339.775a8.3,8.3,0,1,0,4.57,10.81A8.3,8.3,0,0,0,729.556,339.775Zm-.52,2.426a.488.488,0,0,1-.489.063,5.606,5.606,0,0,0-7.311,3.091.489.489,0,1,1-.907-.368,6.6,6.6,0,0,1,8.586-3.629.489.489,0,0,1,.121.843Z" transform="translate(-711.464 -332.332)" fill="#24a810"/>
        <g id="그룹_5276" data-name="그룹 5276" transform="translate(8.827 8.541)">
          <path id="패스_437" data-name="패스 437" d="M722.206,346.476a6.6,6.6,0,0,1,8.586-3.63.489.489,0,1,1-.368.907,5.605,5.605,0,0,0-7.311,3.091.489.489,0,1,1-.907-.368Z" transform="translate(-722.167 -342.362)" fill="#fff"/>
        </g>
      </g>
    </g>
  </g>
</svg>
