<svg xmlns="http://www.w3.org/2000/svg" width="17.515" height="20.068" viewBox="0 0 17.515 20.068">
  <path id="패스_19596" data-name="패스 19596" d="M0,8.6a11.79,11.79,0,0,0,2.406,7.61,2.689,2.689,0,0,0,2.09.986H6.023a.771.771,0,0,0,.771-.771V12.858a.772.772,0,0,0-.771-.772H4.454a.771.771,0,0,1-.738-.547A10.261,10.261,0,0,1,3.378,8.6a10.26,10.26,0,0,1,.338-2.944A.771.771,0,0,1,4.454,5.1H6.023a.772.772,0,0,0,.771-.772V.771A.771.771,0,0,0,6.023,0H4.5a2.689,2.689,0,0,0-2.09.986A11.789,11.789,0,0,0,0,8.6Z" transform="matrix(0.819, -0.574, 0.574, 0.819, 1.045, 4.941)" fill="none" stroke="#fff" stroke-linecap="round" stroke-linejoin="round" stroke-width="1.5"/>
</svg>
