<?xml version="1.0" standalone="no"?>
<!DOCTYPE svg PUBLIC "-//W3C//DTD SVG 20010904//EN"
 "http://www.w3.org/TR/2001/REC-SVG-20010904/DTD/svg10.dtd">
<svg version="1.0" xmlns="http://www.w3.org/2000/svg"
 width="800.000000pt" height="800.000000pt" viewBox="0 0 800.000000 800.000000"
 preserveAspectRatio="xMidYMid meet">
<metadata>
Created by potrace 1.11, written by Peter Selinger 2001-2013
</metadata>
<g transform="translate(0.000000,800.000000) scale(0.100000,-0.100000)"
fill="#000000" stroke="none">
<path d="M3020 5513 c-52 -30 -120 -69 -150 -86 -30 -17 -68 -38 -85 -48 -149
-85 -308 -176 -345 -197 -122 -68 -216 -126 -227 -141 -10 -13 -12 -232 -10
-1043 l2 -1028 25 -24 c35 -34 862 -513 900 -521 27 -6 56 8 243 115 117 68
230 132 252 144 22 12 115 66 207 119 l166 97 137 -80 c76 -44 139 -80 141
-80 2 0 44 -25 95 -55 50 -30 93 -55 94 -55 2 0 48 -27 103 -59 91 -53 175
-101 242 -137 39 -21 72 -17 123 16 26 17 49 30 51 30 2 0 75 41 162 91 88 51
173 99 190 108 135 71 442 256 453 273 11 17 13 214 12 1034 -1 558 -4 1021
-8 1031 -4 10 -12 23 -17 29 -10 10 -190 119 -281 169 -22 13 -168 98 -325
189 -167 97 -295 166 -310 166 -15 0 -196 -98 -443 -240 l-418 -239 -307 178
c-169 98 -355 205 -413 239 -66 39 -116 62 -135 62 -17 -1 -69 -25 -124 -57z
m249 -220 c64 -36 168 -97 231 -134 63 -36 131 -76 150 -86 19 -11 134 -77
254 -147 121 -70 236 -136 255 -147 20 -10 43 -24 51 -29 13 -9 187 -110 280
-162 173 -99 261 -151 265 -158 4 -7 7 -393 5 -694 l0 -68 -24 16 c-14 8 -42
25 -63 37 -21 12 -78 45 -128 74 -49 29 -106 61 -125 72 -19 11 -215 125 -435
253 -387 225 -1441 836 -1479 857 -16 9 -7 17 65 59 46 27 87 50 91 52 4 2
112 64 240 138 128 73 237 134 242 134 5 0 62 -30 125 -67z m1628 46 c21 -12
43 -25 48 -29 6 -4 30 -19 55 -32 55 -31 456 -264 488 -285 23 -14 21 -16
-110 -92 -73 -43 -200 -117 -283 -165 -251 -147 -233 -139 -263 -123 -15 8
-126 72 -247 142 -121 70 -257 148 -302 173 -51 29 -79 50 -73 56 8 8 640 375
647 376 1 0 19 -9 40 -21z m-2207 -694 c129 -76 262 -154 295 -174 l60 -36 0
-460 c-1 -253 2 -476 6 -495 4 -18 18 -42 30 -51 12 -9 177 -105 366 -214 188
-108 346 -201 349 -206 3 -5 -3 -12 -13 -16 -10 -4 -51 -26 -91 -50 -40 -24
-75 -43 -78 -43 -3 0 -30 -16 -60 -35 -30 -19 -56 -35 -58 -35 -2 0 -81 -45
-177 -101 l-174 -100 -35 19 c-19 10 -118 67 -220 127 -102 59 -256 149 -342
199 l-157 91 -1 878 0 879 32 -20 c18 -11 139 -81 268 -157z m2920 -656 l0
-821 -32 20 c-30 18 -274 162 -525 310 -51 29 -93 59 -94 65 0 7 -1 205 -2
441 l-2 428 105 62 c58 34 112 65 120 69 8 3 105 60 215 126 110 65 203 120
208 120 4 1 7 -368 7 -820z m-2112 182 c133 -78 257 -150 275 -161 17 -11 39
-23 47 -27 8 -4 62 -34 120 -69 136 -80 635 -370 770 -447 58 -33 119 -68 135
-78 102 -59 411 -238 525 -304 74 -43 136 -79 138 -80 4 -3 -11 -12 -341 -202
-147 -84 -278 -159 -291 -164 -20 -10 -38 -3 -127 49 -57 33 -120 68 -139 79
-19 11 -150 87 -290 168 -140 82 -439 255 -665 386 l-410 237 -3 382 c-1 210
1 379 5 377 5 -2 117 -68 251 -146z"/>
</g>
</svg>
