<svg xmlns="http://www.w3.org/2000/svg" width="260" height="55" viewBox="0 0 260 55">
  <g id="main_menu_btn_01" transform="translate(3178 2103)">
    <text id="경영관리_이용하기" data-name="경영관리 이용하기" transform="translate(-3123 -2068)" fill="#1e1e1e" font-size="18" font-family="SpoqaHanSansNeo-Regular, Spoqa Han Sans Neo" letter-spacing="-0.05em"><tspan x="0" y="0">경영관리 이용하기</tspan></text>
    <g id="그룹_1645" data-name="그룹 1645" transform="translate(-3161 -2089)">
      <g id="그룹_1642" data-name="그룹 1642" transform="translate(0 0)">
        <ellipse id="타원_44" data-name="타원 44" cx="3.32" cy="3.32" rx="3.32" ry="3.32" transform="translate(21.535)" fill="#2b5bdf" opacity="0.55"/>
        <g id="그룹_1641" data-name="그룹 1641" transform="translate(0 0.6)">
          <path id="패스_148" data-name="패스 148" d="M475.2,699.629a5.208,5.208,0,0,1-6.466-7.412,8.018,8.018,0,0,0-1.493-.144H456.385a7.98,7.98,0,0,0-7.98,7.981v10.854a7.98,7.98,0,0,0,7.98,7.98h10.854a7.98,7.98,0,0,0,7.981-7.98V700.054C475.22,699.911,475.206,699.771,475.2,699.629Z" transform="translate(-448.405 -692.073)" fill="#2b5bdf"/>
        </g>
      </g>
      <g id="그룹_1644" data-name="그룹 1644" transform="translate(6.573 5.676)">
        <g id="그룹_1643" data-name="그룹 1643">
          <path id="패스_149" data-name="패스 149" d="M461.267,718.089a1.27,1.27,0,0,1-2.528,0v-9.959a1.27,1.27,0,0,1,2.528,0Z" transform="translate(-458.739 -702.575)" fill="#fff"/>
          <path id="패스_150" data-name="패스 150" d="M471.1,715.568a1.27,1.27,0,0,1-2.528,0V701.2a1.27,1.27,0,0,1,2.528,0Z" transform="translate(-462.316 -700.054)" fill="#fff"/>
          <path id="패스_151" data-name="패스 151" d="M480.922,720.939a1.27,1.27,0,0,1-2.528,0v-4.98a1.27,1.27,0,0,1,2.528,0Z" transform="translate(-465.893 -705.425)" fill="#fff"/>
        </g>
      </g>
    </g>
    <g id="그룹_1713" data-name="그룹 1713" transform="translate(591.362 -24)">
      <path id="패스_155" data-name="패스 155" d="M-3574.326-2043.659l4.638,4.638" transform="translate(33.326 -12.341)" fill="none" stroke="#1e1e1e" stroke-linecap="round" stroke-width="1.5"/>
      <path id="패스_156" data-name="패스 156" d="M0,0,4.638,4.638" transform="translate(-3536.362 -2051.362) rotate(90)" fill="none" stroke="#1e1e1e" stroke-linecap="round" stroke-width="1.5"/>
    </g>
    <rect id="사각형_945" data-name="사각형 945" width="260" height="55" transform="translate(-3178 -2103)" fill="none"/>
  </g>
</svg>
