<svg xmlns="http://www.w3.org/2000/svg" width="25" height="25" viewBox="0 0 25 25">
  <g id="menu-06" transform="translate(21463 14736)">
    <rect id="사각형_82" data-name="사각형 82" width="25" height="25" transform="translate(-21463 -14736)" fill="red" opacity="0"/>
    <g id="그룹_235" data-name="그룹 235" transform="translate(-21460 -14732)">
      <path id="패스_411" data-name="패스 411" d="M-262.134,340.853v-1.261a5.007,5.007,0,0,1,5.007-5.007h2.535a5.007,5.007,0,0,1,5.006,5.007v1.261" transform="translate(265.258 -334.586)" fill="none" stroke="#303038" stroke-linejoin="bevel" stroke-width="1"/>
      <path id="사각형_69" data-name="사각형 69" d="M3.053,0h.072a0,0,0,0,1,0,0V6.223a0,0,0,0,1,0,0H3.053A3.053,3.053,0,0,1,0,3.17V3.053A3.053,3.053,0,0,1,3.053,0Z" transform="translate(0 6.268)" fill="#6bd998" stroke="#303038" stroke-linejoin="bevel" stroke-width="1"/>
      <path id="사각형_70" data-name="사각형 70" d="M3.053,0h.072a0,0,0,0,1,0,0V6.223a0,0,0,0,1,0,0H3.053A3.053,3.053,0,0,1,0,3.17V3.053A3.053,3.053,0,0,1,3.053,0Z" transform="translate(18.798 12.49) rotate(-180)" fill="#6bd998" stroke="#303038" stroke-linejoin="bevel" stroke-width="1"/>
      <path id="패스_412" data-name="패스 412" d="M-244.745,354.641v1.11a2.291,2.291,0,0,1-2.291,2.291H-249.3" transform="translate(260.418 -342.15)" fill="none" stroke="#303038" stroke-linejoin="bevel" stroke-width="1"/>
      <circle id="타원_56" data-name="타원 56" cx="1.327" cy="1.327" r="1.327" transform="translate(8.464 14.564)" fill="#6bd998" stroke="#303038" stroke-linejoin="bevel" stroke-width="1"/>
    </g>
  </g>
</svg>
