<svg xmlns="http://www.w3.org/2000/svg" width="25" height="25" viewBox="0 0 25 25">
  <g id="menu-05" transform="translate(21502 14735.801)">
    <rect id="사각형_81" data-name="사각형 81" width="25" height="25" transform="translate(-21502 -14735.801)" fill="red" opacity="0"/>
    <g id="그룹_234" data-name="그룹 234" transform="translate(-21500 -14735.801)">
      <ellipse id="타원_54" data-name="타원 54" cx="2.643" cy="2.313" rx="2.643" ry="2.313" transform="translate(7.929 19.484)" fill="#6bd998" stroke="#303038" stroke-linejoin="bevel" stroke-width="1"/>
      <path id="패스_405" data-name="패스 405" d="M-307.682,340.169a6.608,6.608,0,0,0-6.608-6.608,6.608,6.608,0,0,0-6.608,6.608,6.6,6.6,0,0,0,3.3,5.716v2.874h6.608v-2.874A6.6,6.6,0,0,0-307.682,340.169Z" transform="translate(324.861 -329.596)" fill="#fff" stroke="#303038" stroke-linejoin="bevel" stroke-width="1"/>
      <rect id="사각형_63" data-name="사각형 63" width="6.608" height="1.982" transform="translate(7.269 18.162)" fill="#6bd998" stroke="#303038" stroke-linejoin="bevel" stroke-width="1"/>
      <rect id="사각형_64" data-name="사각형 64" width="6.608" height="1.982" transform="translate(7.269 20.145)" fill="#6bd998" stroke="#303038" stroke-linejoin="bevel" stroke-width="1"/>
      <line id="선_6" data-name="선 6" y1="1.982" transform="translate(10.572)" fill="#fff" stroke="#303038" stroke-linejoin="bevel" stroke-width="1"/>
      <line id="선_7" data-name="선 7" x1="1.402" y1="1.402" transform="translate(3.096 3.097)" fill="#fff" stroke="#303038" stroke-linejoin="bevel" stroke-width="1"/>
      <line id="선_8" data-name="선 8" x1="1.982" transform="translate(0 10.572)" fill="#fff" stroke="#303038" stroke-linejoin="bevel" stroke-width="1"/>
      <line id="선_9" data-name="선 9" x1="1.402" y2="1.402" transform="translate(3.096 16.646)" fill="#fff" stroke="#303038" stroke-linejoin="bevel" stroke-width="1"/>
      <line id="선_10" data-name="선 10" x2="1.402" y2="1.402" transform="translate(16.646 16.646)" fill="#fff" stroke="#303038" stroke-linejoin="bevel" stroke-width="1"/>
      <line id="선_11" data-name="선 11" x2="1.982" transform="translate(19.162 10.572)" fill="#fff" stroke="#303038" stroke-linejoin="bevel" stroke-width="1"/>
      <line id="선_12" data-name="선 12" y1="1.402" x2="1.402" transform="translate(16.646 3.097)" fill="#fff" stroke="#303038" stroke-linejoin="bevel" stroke-width="1"/>
      <path id="패스_406" data-name="패스 406" d="M-310.9,337.561a3.964,3.964,0,0,1,3.965,3.965" transform="translate(321.469 -330.953)" fill="#fff" stroke="#303038" stroke-linejoin="bevel" stroke-width="1"/>
    </g>
  </g>
</svg>
