<svg xmlns="http://www.w3.org/2000/svg" width="77" height="77" viewBox="0 0 77 77">
  <g id="popup_01_icon_04_on" transform="translate(-1282 -1087)">
    <rect id="사각형_764" data-name="사각형 764" width="77" height="77" rx="27" transform="translate(1282 1087)" fill="#fff"/>
    <g id="그룹_1899" data-name="그룹 1899" transform="translate(-0.843 533.122)">
      <path id="패스_19640" data-name="패스 19640" d="M1300.843,578.455v24.012c0,1.391.564,2.348,2.369,2.678a35.392,35.392,0,0,0,6.484.332c5.995,0,10.09.758,10.09,3.793V579.963a2.712,2.712,0,0,0-.73-1.869c-1.154-1.223-3.794-3.216-8.741-3.216-3.812,0-6.145.247-8,1.152A2.685,2.685,0,0,0,1300.843,578.455Z" fill="#2b5bdf"/>
      <path id="패스_19641" data-name="패스 19641" d="M1341.008,578.455v24.012c0,1.391-.564,2.348-2.368,2.678a35.393,35.393,0,0,1-6.484.332c-5.995,0-10.091.758-10.091,3.793V579.963a2.713,2.713,0,0,1,.731-1.869c1.154-1.223,3.794-3.216,8.741-3.216,3.812,0,6.145.247,8,1.152A2.684,2.684,0,0,1,1341.008,578.455Z" fill="#8ebbfe"/>
    </g>
  </g>
</svg>
