<svg xmlns="http://www.w3.org/2000/svg" width="77" height="77" viewBox="0 0 77 77">
  <g id="popup_01_icon_02_off" transform="translate(-696 -1091)">
    <rect id="사각형_762" data-name="사각형 762" width="77" height="77" rx="27" transform="translate(696 1091)" fill="#eceef5"/>
    <g id="그룹_1890" data-name="그룹 1890" transform="translate(-1.035 540.945)">
      <g id="그룹_1889" data-name="그룹 1889">
        <g id="그룹_1888" data-name="그룹 1888">
          <path id="패스_19633" data-name="패스 19633" d="M752.156,592.347,735.872,594.8a2.849,2.849,0,0,1-.835,0l-16.284-2.453a2.8,2.8,0,0,0-3.218,2.77v8.363a2.8,2.8,0,0,0,2.8,2.8h34.237a2.8,2.8,0,0,0,2.8-2.8v-8.363A2.8,2.8,0,0,0,752.156,592.347Z" fill="#c2c6d6"/>
          <path id="패스_19634" data-name="패스 19634" d="M745.039,578.835a1.492,1.492,0,0,1-1.06-.44l-4.608-4.607a2.5,2.5,0,0,0-1.767-.733h-4.3a2.5,2.5,0,0,0-1.768.733l-4.607,4.607a1.5,1.5,0,0,1-2.121-2.121l5.485-5.486a2.5,2.5,0,0,1,1.768-.733h6.783a2.5,2.5,0,0,1,1.768.733l5.39,5.391a1.591,1.591,0,0,1,.164,2.143A1.5,1.5,0,0,1,745.039,578.835Z" fill="#cfd5e8"/>
          <path id="패스_19635" data-name="패스 19635" d="M754.462,590.285l-18.619,2.608a2.808,2.808,0,0,1-.777,0l-18.619-2.608a2.8,2.8,0,0,1-2.412-2.774v-8.932a2.8,2.8,0,0,1,2.8-2.8h37.237a2.8,2.8,0,0,1,2.8,2.8v8.932A2.8,2.8,0,0,1,754.462,590.285Z" fill="#c2c6d6"/>
        </g>
      </g>
      <rect id="사각형_847" data-name="사각형 847" width="3.644" height="9.405" rx="1.375" transform="translate(733.579 589.173)" fill="#cfd5e8"/>
    </g>
  </g>
</svg>
