<svg xmlns="http://www.w3.org/2000/svg" width="77" height="77" viewBox="0 0 77 77">
  <g id="popup_01_icon_03_off" transform="translate(-988 -1091)">
    <g id="그룹_2042" data-name="그룹 2042">
      <rect id="사각형_763" data-name="사각형 763" width="77" height="77" rx="27" transform="translate(988 1091)" fill="#eceef5"/>
      <g id="그룹_1897" data-name="그룹 1897" transform="translate(1.902 537.148)">
        <g id="그룹_1893" data-name="그룹 1893">
          <path id="패스_19637" data-name="패스 19637" d="M1026.03,603.484c-10.648,4.464-15.748,2.04-16.946,1.292a1.05,1.05,0,0,1-.4-.477l-6.773-15.642c-.537-.023-1.091-.053-1.673-.093a1.056,1.056,0,0,0-1.047,1.476l7.171,16.561a1.053,1.053,0,0,0,.4.478c1.2.748,6.3,3.171,16.946-1.293,11.594-4.861,14.212-6.1,22.856-5.321a1.057,1.057,0,0,0,1.077-1.455l-.4-.975C1039.857,597.567,1036.855,598.946,1026.03,603.484Z" fill="#cfd5e8"/>
        </g>
        <g id="그룹_1894" data-name="그룹 1894">
          <path id="패스_19638" data-name="패스 19638" d="M1050.862,594.29l-6.88-16.746a1.062,1.062,0,0,0-.5-.543c-1.351-.7-6.531-2.733-16.013,1.219-10.626,4.427-13.183,6.679-24.017,6.022a1.066,1.066,0,0,0-1.048,1.485l7.172,16.5a1.029,1.029,0,0,0,.4.473c1.2.739,6.3,3.119,16.945-1.434,11.595-4.959,14.213-6.218,22.857-5.514A1.066,1.066,0,0,0,1050.862,594.29ZM1026.63,597.3a7.383,7.383,0,1,1,7.334-7.383A7.359,7.359,0,0,1,1026.63,597.3Z" fill="#c2c6d6"/>
        </g>
        <g id="그룹_1895" data-name="그룹 1895">
          <path id="패스_19639" data-name="패스 19639" d="M1025.82,592.673c.114-.022.244-.049.391-.082a3.64,3.64,0,0,0,.443-.124,4.463,4.463,0,0,0,.433-.143,2.983,2.983,0,0,0,.388-.183.923.923,0,0,0,.447-.444.6.6,0,0,0-.05-.505.628.628,0,0,0-.539-.362,4.936,4.936,0,0,0-.932.04,6.923,6.923,0,0,1-.748.055,2.7,2.7,0,0,1-.777-.093,1.9,1.9,0,0,1-1.3-1.04,2.275,2.275,0,0,1-.224-.661,1.973,1.973,0,0,1,.006-.7,2.254,2.254,0,0,1,.256-.691,2.513,2.513,0,0,1,.544-.665l-.168-.325a.608.608,0,0,1-.1-.395.437.437,0,0,1,.237-.255l.736-.418a.393.393,0,0,1,.334-.068.685.685,0,0,1,.264.3l.153.295a4.925,4.925,0,0,1,.606-.2q.3-.077.671-.144a.327.327,0,0,1,.4.232l.34.849a.28.28,0,0,1,.01.224c-.028.05-.1.077-.214.083a3.755,3.755,0,0,0-.945.173,4.189,4.189,0,0,0-.756.32,1.448,1.448,0,0,0-.64.58.666.666,0,0,0,.037.6.5.5,0,0,0,.292.248,1.356,1.356,0,0,0,.474.068c.186.005.388,0,.6-.018s.442-.033.677-.048a3.98,3.98,0,0,1,.69.022,2.438,2.438,0,0,1,.608.157,1.922,1.922,0,0,1,.521.365,2.294,2.294,0,0,1,.429.6,2.027,2.027,0,0,1,.225,1.278,2.243,2.243,0,0,1-.611,1.191l.2.368a.616.616,0,0,1,.1.395.441.441,0,0,1-.237.255l-.737.418a.393.393,0,0,1-.334.068.672.672,0,0,1-.263-.3l-.163-.29a5.589,5.589,0,0,1-1.349.4.448.448,0,0,1-.252,0,.251.251,0,0,1-.124-.165l-.269-.9Q1025.513,592.733,1025.82,592.673Z" fill="#c2c6d6"/>
        </g>
      </g>
    </g>
  </g>
</svg>
