<svg xmlns="http://www.w3.org/2000/svg" width="62" height="62" viewBox="0 0 62 62">
  <g id="그룹_2093" data-name="그룹 2093" transform="translate(18240 -5087)">
    <circle id="타원_495" data-name="타원 495" cx="31" cy="31" r="31" transform="translate(-18240 5087)" fill="#2b5bdf" opacity="0.1"/>
    <g id="그룹_2072" data-name="그룹 2072" transform="translate(-18220 5104.469)">
      <path id="패스_19619" data-name="패스 19619" d="M687.282,759.873l-2.466,1.877a19.192,19.192,0,0,1-6.97-11.146l3.037-1.394,1.8-6.49-4.917-1.021-2.136-.442s-6.578,19.706,16.24,27.063l.662-2.262-.055-.019,1.378-4.7Z" transform="translate(-674.75 -741.256)" fill="#2b5bdf"/>
      <path id="패스_19620" data-name="패스 19620" d="M684.192,748.652a5.708,5.708,0,0,1,3.243,5.406" transform="translate(-673.375 -740.179)" fill="none" stroke="#2b5bdf" stroke-linecap="round" stroke-linejoin="round" stroke-width="2"/>
      <path id="패스_19621" data-name="패스 19621" d="M686.023,744.6a10.962,10.962,0,0,1,6.23,10.382" transform="translate(-673.108 -740.769)" fill="none" stroke="#2b5bdf" stroke-linecap="round" stroke-linejoin="round" stroke-width="2"/>
    </g>
  </g>
</svg>
