<svg xmlns="http://www.w3.org/2000/svg" width="146.825" height="34.383" viewBox="0 0 146.825 34.383">
  <g id="그룹_1431" data-name="그룹 1431" transform="translate(978 -2611)">
    <path id="패스_19599" data-name="패스 19599" d="M1240.545,828.826l-8.9-8.419-.962-.91h-15.856l-.962.91-8.9,8.419-2.333,2.206,2.123,2.409,15.507,17.6,2.5,2.834,2.5-2.834,15.507-17.6,2.123-2.409Zm-17.792,20.021-5.5-17.6h-10.012l8.9-8.419h13.208l-4.813,8.419h13.716Z" transform="translate(-2180.627 1791.503)" fill="#1e1e1e"/>
    <g id="그룹_1386" data-name="그룹 1386" transform="translate(-924.266 2614.506)">
      <path id="패스_19594" data-name="패스 19594" d="M1300.584,735.8a5.983,5.983,0,0,1-.8,8.064,8.434,8.434,0,0,1-5.576,1.674h-10.632V722.71h10.275a8.43,8.43,0,0,1,5.446,1.593,5.778,5.778,0,0,1,.911,7.674,5.466,5.466,0,0,1-2.813,1.854A5.311,5.311,0,0,1,1300.584,735.8Zm-11.445-3.852h3.641a3.224,3.224,0,0,0,2.1-.6,2.16,2.16,0,0,0,.732-1.772,2.21,2.21,0,0,0-.732-1.788,3.169,3.169,0,0,0-2.1-.617h-3.641Zm6.259,8.47a2.253,2.253,0,0,0,.764-1.838,2.353,2.353,0,0,0-.8-1.886,3.266,3.266,0,0,0-2.195-.683h-4.031v5.04h4.1A3.3,3.3,0,0,0,1295.4,740.415Z" transform="translate(-1283.578 -722.385)" fill="#1e1e1e"/>
      <path id="패스_19595" data-name="패스 19595" d="M1328.018,741.5H1319.5l-1.366,4.031h-5.82l8.259-22.825h6.438l8.259,22.825h-5.885Zm-1.431-4.292-2.829-8.356-2.8,8.356Z" transform="translate(-1293.194 -722.385)" fill="#1e1e1e"/>
      <path id="패스_19596" data-name="패스 19596" d="M1352.8,744.787a7.305,7.305,0,0,1-3.17-2.407,6.56,6.56,0,0,1-1.252-3.836h5.918a2.865,2.865,0,0,0,.878,1.935,2.82,2.82,0,0,0,1.951.666,3.048,3.048,0,0,0,1.951-.569,1.9,1.9,0,0,0,.715-1.577,1.868,1.868,0,0,0-.569-1.4,4.579,4.579,0,0,0-1.4-.91,22.55,22.55,0,0,0-2.357-.813,25.512,25.512,0,0,1-3.609-1.366,6.656,6.656,0,0,1-2.407-2.016,5.615,5.615,0,0,1-1.008-3.479,5.982,5.982,0,0,1,2.309-4.992,9.487,9.487,0,0,1,6.015-1.8,9.6,9.6,0,0,1,6.081,1.8,6.461,6.461,0,0,1,2.471,5.024H1359.3a2.353,2.353,0,0,0-.812-1.74,2.866,2.866,0,0,0-1.919-.634,2.392,2.392,0,0,0-1.625.536,1.937,1.937,0,0,0-.618,1.545,1.914,1.914,0,0,0,1.041,1.723,17.023,17.023,0,0,0,3.252,1.333,30.209,30.209,0,0,1,3.593,1.43,6.852,6.852,0,0,1,2.39,1.983,5.315,5.315,0,0,1,1.008,3.349,6.572,6.572,0,0,1-.992,3.544,6.948,6.948,0,0,1-2.878,2.536,9.84,9.84,0,0,1-4.455.943A11.74,11.74,0,0,1,1352.8,744.787Z" transform="translate(-1305.263 -722.221)" fill="#1e1e1e"/>
      <path id="패스_19597" data-name="패스 19597" d="M1383.747,722.71v22.825h-5.56V722.71Z" transform="translate(-1315.238 -722.385)" fill="#1e1e1e"/>
      <path id="패스_19598" data-name="패스 19598" d="M1391.427,727.928a10.461,10.461,0,0,1,4.081-4.13,11.848,11.848,0,0,1,5.934-1.479,11.355,11.355,0,0,1,6.958,2.146,10.308,10.308,0,0,1,3.87,5.853h-6.113a4.944,4.944,0,0,0-1.935-2.179,5.443,5.443,0,0,0-2.845-.748,5.311,5.311,0,0,0-4.162,1.788,7.964,7.964,0,0,0,0,9.559,5.309,5.309,0,0,0,4.162,1.789,5.437,5.437,0,0,0,2.845-.748,4.939,4.939,0,0,0,1.935-2.178h6.113a10.23,10.23,0,0,1-3.87,5.837,11.414,11.414,0,0,1-6.958,2.13,11.842,11.842,0,0,1-5.934-1.48,10.484,10.484,0,0,1-4.081-4.113,13.129,13.129,0,0,1,0-12.046Z" transform="translate(-1319.179 -722.254)" fill="#1e1e1e"/>
    </g>
  </g>
</svg>
