<svg xmlns="http://www.w3.org/2000/svg" width="62" height="62" viewBox="0 0 62 62">
  <g id="그룹_2088" data-name="그룹 2088" transform="translate(18240 -4889)">
    <circle id="타원_498" data-name="타원 498" cx="31" cy="31" r="31" transform="translate(-18240 4889)" fill="#2b5bdf" opacity="0.1"/>
    <g id="그룹_2075" data-name="그룹 2075" transform="translate(-18221 4910)">
      <path id="패스_19609" data-name="패스 19609" d="M672.93,591.322v17.642l4.677-12.537H696.38v-2.393a1.47,1.47,0,0,0-1.47-1.47H684.655l-1.01-1.925a1.47,1.47,0,0,0-1.3-.786H674.4A1.469,1.469,0,0,0,672.93,591.322Z" transform="translate(-672.929 -589.852)" fill="#2b5bdf"/>
      <path id="패스_19610" data-name="패스 19610" d="M695.791,608.549l3.952-10.593H679.275l-4.308,11.55h19.447A1.469,1.469,0,0,0,695.791,608.549Z" transform="translate(-672.632 -588.671)" fill="#2b5bdf"/>
    </g>
  </g>
</svg>
