<svg xmlns="http://www.w3.org/2000/svg" width="154" height="41" viewBox="0 0 154 41">
  <g id="그룹_1385" data-name="그룹 1385" transform="translate(-811 -2779)">
    <g id="그룹_1242" data-name="그룹 1242" transform="translate(811 2780)">
      <path id="패스_19592" data-name="패스 19592" d="M1222.817,709.734a20,20,0,1,0,20,20A20.021,20.021,0,0,0,1222.817,709.734Zm0,36.669a16.671,16.671,0,1,1,16.671-16.671A16.69,16.69,0,0,1,1222.817,746.4Z" transform="translate(-1202.819 -709.734)" fill="#1e1e1e"/>
      <path id="패스_19593" data-name="패스 19593" d="M1238.166,736.1c-.008-.031-.019-.061-.029-.091a1.432,1.432,0,0,0-1.361-1h-.909l1.14-4.541a1.509,1.509,0,0,0-.166-1.275,1.558,1.558,0,0,0-1-.637,1.757,1.757,0,0,0-1.148.122,1.379,1.379,0,0,0-.758,1.023l-1.186,5.308h-2.155l-1.158-4.921a2.052,2.052,0,0,0-.712-1.223,1.928,1.928,0,0,0-2.252,0,2.113,2.113,0,0,0-.683,1.216l-1.241,4.924h-2.256l-1.187-5.312a1.4,1.4,0,0,0-.776-1.046,1.863,1.863,0,0,0-1.146-.1,1.577,1.577,0,0,0-1.03.639,1.514,1.514,0,0,0-.166,1.274l1.121,4.542h-.936a1.432,1.432,0,0,0-1.361,1c-.01.031-.021.061-.029.092a1.393,1.393,0,0,0-.047.344v.011c0,.011,0,.021,0,.033a1.434,1.434,0,0,0,.04.294,1.168,1.168,0,0,0,.035.113,1.433,1.433,0,0,0,1.356.985h1.633l1.541,6.185a2.013,2.013,0,0,0,.74,1.252,1.843,1.843,0,0,0,2.176,0,1.968,1.968,0,0,0,.753-1.226l1.564-6.213h1.962l1.435,6.161a2.029,2.029,0,0,0,.741,1.276,1.818,1.818,0,0,0,2.167,0,1.994,1.994,0,0,0,.739-1.225l1.543-6.211h1.609a1.434,1.434,0,0,0,1.357-.986c.013-.037.025-.073.035-.112a1.477,1.477,0,0,0,.04-.294c0-.011,0-.021,0-.033v-.011A1.438,1.438,0,0,0,1238.166,736.1Zm-6.062,1.78-.4,1.8-.425-1.8Zm-4.8-2.872.291-1.15.265,1.15Zm-3.487,2.872-.472,1.864-.413-1.864Z" transform="translate(-1207.476 -716.014)" fill="#1e1e1e"/>
    </g>
    <text id="무료체험" transform="translate(914 2811)" fill="#1e1e1e" font-size="28" font-family="SpoqaHanSansNeo-Bold, Spoqa Han Sans Neo" font-weight="700" letter-spacing="-0.03em"><tspan x="-50.26" y="0">무료체험</tspan></text>
  </g>
</svg>
