<svg xmlns="http://www.w3.org/2000/svg" width="62" height="62" viewBox="0 0 62 62">
  <g id="그룹_2083" data-name="그룹 2083" transform="translate(18799 -4691)">
    <circle id="타원_502" data-name="타원 502" cx="31" cy="31" r="31" transform="translate(-18799 4691)" fill="#2b5bdf" opacity="0.1"/>
    <g id="그룹_2080" data-name="그룹 2080" transform="translate(-18783 4707)">
      <ellipse id="타원_443" data-name="타원 443" cx="14.815" cy="14.815" rx="14.815" ry="14.815" transform="translate(0 0)" fill="#2b5bdf"/>
      <path id="패스_19603" data-name="패스 19603" d="M255.707,442.167l1.534,3.106a.993.993,0,0,0,.748.544l3.428.5a.994.994,0,0,1,.551,1.7l-2.48,2.417a1,1,0,0,0-.286.88l.585,3.414a.993.993,0,0,1-1.441,1.048l-3.067-1.612a.992.992,0,0,0-.925,0l-3.067,1.612a.993.993,0,0,1-1.441-1.048l.585-3.414a1,1,0,0,0-.286-.88l-2.48-2.417a.994.994,0,0,1,.551-1.7l3.428-.5a.992.992,0,0,0,.748-.544l1.533-3.106A.994.994,0,0,1,255.707,442.167Z" transform="translate(-240.001 -433.936)" fill="#e9eefc"/>
    </g>
  </g>
</svg>
