<svg xmlns="http://www.w3.org/2000/svg" width="62" height="62" viewBox="0 0 62 62">
  <g id="그룹_2091" data-name="그룹 2091" transform="translate(18799 -5087)">
    <circle id="타원_501" data-name="타원 501" cx="31" cy="31" r="31" transform="translate(-18799 5087)" fill="#2b5bdf" opacity="0.1"/>
    <g id="그룹_2078" data-name="그룹 2078" transform="translate(-18778 5106)">
      <g id="그룹_1711" data-name="그룹 1711" transform="translate(0 0)">
        <path id="패스_19614" data-name="패스 19614" d="M264.6,761.665h-17.2a3.554,3.554,0,0,0-2.943,1.3V745.116a2.408,2.408,0,0,1,2.407-2.407H264.6Z" transform="translate(-244.464 -742.709)" fill="#2b5bdf"/>
        <g id="그룹_1710" data-name="그룹 1710" transform="translate(0.546 20.102)">
          <path id="패스_19615" data-name="패스 19615" d="M264.321,760.254H246.837a1.9,1.9,0,1,0,0,3.792h1.736v-1.792h6.267v1.792h9.481Z" transform="translate(-244.941 -760.254)" fill="#2b5bdf"/>
        </g>
        <path id="패스_19616" data-name="패스 19616" d="M252.506,765.928l-1.567-.678-1.567.678v-3.021h3.134Z" transform="translate(-243.749 -739.766)" fill="#2b5bdf"/>
      </g>
      <g id="그룹_1712" data-name="그룹 1712" transform="translate(5.543 4.511)">
        <path id="패스_19617" data-name="패스 19617" d="M257.8,752.479h0a.936.936,0,0,1-.5-.825v-.045a1,1,0,0,1,.528-.878,1.008,1.008,0,0,0,.391-1.392l-.175-.3a1.127,1.127,0,0,0-1.533-.4.878.878,0,0,1-.871.014l-.112-.064a.921.921,0,0,1-.463-.8v-.038a1.1,1.1,0,0,0-1.1-1.1h-.282a1.1,1.1,0,0,0-1.1,1.1v.038a.923.923,0,0,1-.462.8l-.113.064a.884.884,0,0,1-.886-.022,1.113,1.113,0,0,0-1.518.409l-.16.278a1.036,1.036,0,0,0,.407,1.434h0a.943.943,0,0,1,.5.831v.072a.938.938,0,0,1-.5.828h0a1.032,1.032,0,0,0-.409,1.432l.187.324a1.066,1.066,0,0,0,1.454.389,1.021,1.021,0,0,1,1.361.33.947.947,0,0,1,.142.532,1.1,1.1,0,0,0,1.1,1.094h.277a1.1,1.1,0,0,0,1.1-1.094.948.948,0,0,1,.143-.532,1.021,1.021,0,0,1,1.361-.33,1.065,1.065,0,0,0,1.453-.389l.188-.324A1.033,1.033,0,0,0,257.8,752.479Z" transform="translate(-249.302 -746.646)" fill="#e9eefc"/>
        <ellipse id="타원_446" data-name="타원 446" cx="1.762" cy="1.762" rx="1.762" ry="1.762" transform="translate(2.761 3.205)" fill="#2b5bdf"/>
      </g>
    </g>
  </g>
</svg>
