<svg xmlns="http://www.w3.org/2000/svg" width="617.206" height="464.123" viewBox="0 0 617.206 464.123">
  <g id="그룹_44" data-name="그룹 44" transform="translate(162.182 -43.53)" opacity="0.062">
    <path id="패스_36" data-name="패스 36" d="M183.769,51.184S-10.079,23.744-137.417,149.259a46.287,46.287,0,0,0-14.28,33.469,46.5,46.5,0,0,0,46.482,46.482,46.373,46.373,0,0,0,35.828-16.865l.051.043s.13-.224.355-.55a46.671,46.671,0,0,0,3.2-4.553c17.306-23.806,98.343-124.66,249.552-156.1" transform="translate(65.399 31.902)" fill="#fff"/>
    <path id="패스_37" data-name="패스 37" d="M432.507,61.662a51.275,51.275,0,0,0-30.9-8.953v-.014c-448.25,7.166-563.79,397.888-563.79,397.888A659.135,659.135,0,0,1-20.65,300.82c123.249-88.593,268.6-59.714,297.12-52.852a42.585,42.585,0,0,0,4.256,1.071c.463.123.731.21.731.21v-.043a43.258,43.258,0,0,0,18.717-84.4c63.817-10.365,105.856-8.686,105.856-8.686v-.21a51.651,51.651,0,0,0,26.477-94.246" transform="translate(0 57.071)" fill="#fff"/>
    <path id="패스_38" data-name="패스 38" d="M-61.341,89.158a45.608,45.608,0,0,1-45.6,45.621,45.622,45.622,0,0,1-45.621-45.621A45.618,45.618,0,0,1-106.941,43.53a45.6,45.6,0,0,1,45.6,45.628" transform="translate(60.01 0)" fill="#fff"/>
  </g>
</svg>
