<svg xmlns="http://www.w3.org/2000/svg" width="50.099" height="49.396" viewBox="0 0 50.099 49.396">
  <g id="그룹_2224" data-name="그룹 2224" transform="translate(-1043 -3116)">
    <g id="그룹_1636" data-name="그룹 1636" transform="translate(1043 3118.384)">
      <path id="패스_145" data-name="패스 145" d="M744.381,705.32a9.129,9.129,0,0,1-11.336-12.994,14.06,14.06,0,0,0-2.617-.253H711.4a13.993,13.993,0,0,0-13.992,13.992v19.029A13.992,13.992,0,0,0,711.4,739.086h19.029a13.991,13.991,0,0,0,13.991-13.991V706.065C744.419,705.814,744.395,705.569,744.381,705.32Z" transform="translate(-697.406 -692.073)" fill="#fff"/>
    </g>
    <g id="그룹_1638" data-name="그룹 1638" transform="translate(1055.407 3128.587)">
      <g id="그룹_1637" data-name="그룹 1637">
        <ellipse id="타원_43" data-name="타원 43" cx="6.319" cy="6.331" rx="6.319" ry="6.331" transform="translate(4.78)" fill="#2b5bdf"/>
        <path id="패스_146" data-name="패스 146" d="M730.73,726.37h-22.2v-4.779a7.7,7.7,0,0,1,7.682-7.682h6.833a7.7,7.7,0,0,1,7.682,7.682Z" transform="translate(-708.533 -699.763)" fill="#2b5bdf"/>
      </g>
    </g>
    <g id="그룹_1639" data-name="그룹 1639" transform="translate(1080.572 3116)">
      <path id="패스_147" data-name="패스 147" d="M742.854,698h0a1.3,1.3,0,0,1-.686-1.143v-.06a1.386,1.386,0,0,1,.73-1.214,1.393,1.393,0,0,0,.541-1.926l-.243-.421a1.557,1.557,0,0,0-2.12-.553,1.221,1.221,0,0,1-1.2.019l-.156-.09a1.272,1.272,0,0,1-.639-1.1v-.052a1.522,1.522,0,0,0-1.522-1.522h-.39a1.523,1.523,0,0,0-1.523,1.522v.052a1.272,1.272,0,0,1-.639,1.1l-.155.09a1.223,1.223,0,0,1-1.225-.031,1.54,1.54,0,0,0-2.1.565l-.223.386a1.433,1.433,0,0,0,.564,1.984h0a1.306,1.306,0,0,1,.687,1.148v.1a1.3,1.3,0,0,1-.687,1.145,1.427,1.427,0,0,0-.568,1.98l.26.448a1.474,1.474,0,0,0,2.01.539,1.41,1.41,0,0,1,1.881.457,1.3,1.3,0,0,1,.2.735,1.522,1.522,0,0,0,1.522,1.513h.382a1.522,1.522,0,0,0,1.522-1.513,1.314,1.314,0,0,1,.2-.735,1.411,1.411,0,0,1,1.882-.457,1.475,1.475,0,0,0,2.01-.539l.259-.45A1.427,1.427,0,0,0,742.854,698Zm-5.5.863a2.061,2.061,0,1,1,2.061-2.061A2.061,2.061,0,0,1,737.358,698.866Z" transform="translate(-731.1 -689.935)" fill="#fff" opacity="0.55"/>
    </g>
  </g>
</svg>
