<svg id="그룹_2079" data-name="그룹 2079" xmlns="http://www.w3.org/2000/svg" width="48.144" height="46.845" viewBox="0 0 48.144 46.845">
  <g id="그룹_1642" data-name="그룹 1642" transform="translate(0 0)">
    <ellipse id="타원_44" data-name="타원 44" cx="5.673" cy="5.673" rx="5.673" ry="5.673" transform="translate(36.798)" fill="#fff" opacity="0.55"/>
    <g id="그룹_1641" data-name="그룹 1641" transform="translate(0 1.025)">
      <path id="패스_148" data-name="패스 148" d="M494.188,704.984a8.9,8.9,0,0,1-11.05-12.665,13.692,13.692,0,0,0-2.551-.247H462.041a13.636,13.636,0,0,0-13.636,13.637v18.546a13.636,13.636,0,0,0,13.636,13.636h18.546a13.637,13.637,0,0,0,13.637-13.636V705.71C494.225,705.466,494.2,705.227,494.188,704.984Z" transform="translate(-448.405 -692.073)" fill="#fff"/>
    </g>
  </g>
  <g id="그룹_1644" data-name="그룹 1644" transform="translate(11.231 9.699)">
    <g id="그룹_1643" data-name="그룹 1643">
      <path id="패스_149" data-name="패스 149" d="M463.059,725.962a2.17,2.17,0,0,1-4.32,0V708.944a2.17,2.17,0,0,1,4.32,0Z" transform="translate(-458.739 -699.453)" fill="#2b5bdf"/>
      <path id="패스_150" data-name="패스 150" d="M472.887,726.563a2.17,2.17,0,0,1-4.32,0V702.017a2.17,2.17,0,0,1,4.32,0Z" transform="translate(-457.886 -700.054)" fill="#2b5bdf"/>
      <path id="패스_151" data-name="패스 151" d="M482.714,725.282a2.17,2.17,0,0,1-4.32,0v-8.51a2.17,2.17,0,0,1,4.32,0Z" transform="translate(-457.033 -698.773)" fill="#2b5bdf"/>
    </g>
  </g>
</svg>
